<ttFont>
<head>
    <!-- Most of this table will be recalculated by the compiler -->
    <tableVersion value="1.0"/>
    <fontRevision value="3.0"/>
    <checkSumAdjustment value="0xc58ae717"/>
    <magicNumber value="0x5f0f3cf5"/>
    <flags value="00000000 00000111"/>
    <unitsPerEm value="2000"/>
    <created value="Tue Dec  4 23:15:01 2018"/>
    <modified value="Wed Dec  5 20:30:09 2018"/>
    <xMin value="-350"/>
    <yMin value="-516"/>
    <xMax value="2806"/>
    <yMax value="2330"/>
    <macStyle value="00000000 00000000"/>
    <lowestRecPPEM value="6"/>
    <fontDirectionHint value="2"/>
    <indexToLocFormat value="0"/>
    <glyphDataFormat value="0"/>
  </head>
    <TTGlyph name=".notdef" xMin="100" yMin="-440" xMax="900" yMax="1616">
      <contour>
        <pt x="100" y="-440" on="1"/>
        <pt x="900" y="-440" on="1"/>
        <pt x="900" y="1616" on="1"/>
        <pt x="100" y="1616" on="1"/>
      </contour>
      <contour>
        <pt x="200" y="-340" on="1"/>
        <pt x="200" y="1516" on="1"/>
        <pt x="800" y="1516" on="1"/>
        <pt x="800" y="-340" on="1"/>
      </contour>
    </TTGlyph>
    <TTGlyph name="A" xMin="-8" yMin="0" xMax="1308" yMax="1480">
      <contour>
        <pt x="-8" y="0" on="1"/>
        <pt x="356" y="1480" on="1"/>
        <pt x="944" y="1480" on="1"/>
        <pt x="1308" y="0" on="1"/>
        <pt x="924" y="0" on="1"/>
        <pt x="846" y="344" on="1"/>
        <pt x="449" y="344" on="1"/>
        <pt x="372" y="0" on="1"/>
      </contour>
      <contour>
        <pt x="523" y="674" on="1"/>
        <pt x="771" y="674" on="1"/>
        <pt x="646" y="1226" on="1"/>
      </contour>
    </TTGlyph>
    <TTGlyph name="AE" xMin="-8" yMin="0" xMax="1784" yMax="1480">
      <contour>
        <pt x="-8" y="0" on="1"/>
        <pt x="356" y="1480" on="1"/>
        <pt x="1774" y="1480" on="1"/>
        <pt x="1774" y="1146" on="1"/>
        <pt x="1174" y="1146" on="1"/>
        <pt x="1193" y="922" on="1"/>
        <pt x="1670" y="922" on="1"/>
        <pt x="1670" y="588" on="1"/>
        <pt x="1222" y="588" on="1"/>
        <pt x="1244" y="334" on="1"/>
        <pt x="1784" y="334" on="1"/>
        <pt x="1784" y="0" on="1"/>
        <pt x="890" y="0" on="1"/>
        <pt x="865" y="342" on="1"/>
        <pt x="456" y="342" on="1"/>
        <pt x="378" y="0" on="1"/>
      </contour>
      <contour>
        <pt x="638" y="1146" on="1"/>
        <pt x="531" y="676" on="1"/>
        <pt x="841" y="676" on="1"/>
        <pt x="806" y="1146" on="1"/>
      </contour>
    </TTGlyph>
    <TTGlyph name="AEacute" xMin="-8" yMin="0" xMax="1784" yMax="1902">
      <component glyphName="AE" x="0" y="0" flags="0x204"/>
      <component glyphName="acutecomb.case" x="354" y="0" flags="0x4"/>
    </TTGlyph>
    <TTGlyph name="Aacute" xMin="-8" yMin="0" xMax="1308" yMax="1902">
      <component glyphName="A" x="0" y="0" flags="0x204"/>
      <component glyphName="acutecomb.case" x="50" y="0" flags="0x4"/>
    </TTGlyph>
    <TTGlyph name="Abreve" xMin="-8" yMin="0" xMax="1308" yMax="1902">
      <component glyphName="A" x="0" y="0" flags="0x204"/>
      <component glyphName="uni0306.case" x="50" y="0" flags="0x4"/>
    </TTGlyph>
    <TTGlyph name="Acircumflex" xMin="-8" yMin="0" xMax="1308" yMax="1902">
      <component glyphName="A" x="0" y="0" flags="0x204"/>
      <component glyphName="uni0302.case" x="50" y="0" flags="0x4"/>
    </TTGlyph>
    <TTGlyph name="Adieresis" xMin="-8" yMin="0" xMax="1308" yMax="1930">
      <component glyphName="A" x="0" y="0" flags="0x204"/>
      <component glyphName="uni0308.case" x="50" y="0" flags="0x4"/>
    </TTGlyph>
    <TTGlyph name="Agrave" xMin="-8" yMin="0" xMax="1308" yMax="1902">
      <component glyphName="A" x="0" y="0" flags="0x204"/>
      <component glyphName="gravecomb.case" x="50" y="0" flags="0x4"/>
    </TTGlyph>
    <TTGlyph name="Amacron" xMin="-8" yMin="0" xMax="1308" yMax="1868">
      <component glyphName="A" x="0" y="0" flags="0x204"/>
      <component glyphName="uni0304.case" x="50" y="0" flags="0x4"/>
    </TTGlyph>
    <TTGlyph name="Aogonek" xMin="-8" yMin="-460" xMax="1320" yMax="1480">
      <component glyphName="A" x="0" y="0" flags="0x204"/>
      <component glyphName="uni0328.case" x="792" y="0" flags="0x4"/>
    </TTGlyph>
    <TTGlyph name="Aring" xMin="-8" yMin="0" xMax="1308" yMax="2010">
      <component glyphName="A" x="0" y="0" flags="0x204"/>
      <component glyphName="uni030A.case" x="50" y="0" flags="0x4"/>
    </TTGlyph>
    <TTGlyph name="Aringacute" xMin="-8" yMin="0" xMax="1308" yMax="2136">
      <component glyphName="A" x="0" y="0" flags="0x204"/>
      <component glyphName="uni030A0301.case" x="50" y="0" flags="0x4"/>
    </TTGlyph>
    <TTGlyph name="Atilde" xMin="-8" yMin="0" xMax="1308" yMax="1902">
      <component glyphName="A" x="0" y="0" flags="0x204"/>
      <component glyphName="tildecomb.case" x="50" y="0" flags="0x4"/>
    </TTGlyph>
    <TTGlyph name="B" xMin="88" yMin="-20" xMax="1216" yMax="1500">
      <contour>
        <pt x="500" y="-20" on="1"/>
        <pt x="412" y="-20" on="0"/>
        <pt x="180" y="-1" on="0"/>
        <pt x="88" y="14" on="1"/>
        <pt x="88" y="1450" on="1"/>
        <pt x="190" y="1473" on="0"/>
        <pt x="438" y="1500" on="0"/>
        <pt x="550" y="1500" on="1"/>
        <pt x="868" y="1500" on="0"/>
        <pt x="1174" y="1301" on="0"/>
        <pt x="1174" y="1082" on="1"/>
        <pt x="1174" y="967" on="0"/>
        <pt x="1056" y="796" on="0"/>
        <pt x="958" y="763" on="1"/>
        <pt x="1069" y="736" on="0"/>
        <pt x="1216" y="570" on="0"/>
        <pt x="1216" y="418" on="1"/>
        <pt x="1216" y="202" on="0"/>
        <pt x="877" y="-20" on="0"/>
      </contour>
      <contour>
        <pt x="616" y="1200" on="1"/>
        <pt x="577" y="1200" on="0"/>
        <pt x="508" y="1194" on="0"/>
        <pt x="470" y="1188" on="1"/>
        <pt x="470" y="910" on="1"/>
        <pt x="604" y="910" on="1"/>
        <pt x="718" y="910" on="0"/>
        <pt x="806" y="978" on="0"/>
        <pt x="806" y="1054" on="1"/>
        <pt x="806" y="1132" on="0"/>
        <pt x="720" y="1200" on="0"/>
      </contour>
      <contour>
        <pt x="612" y="280" on="1"/>
        <pt x="743" y="280" on="0"/>
        <pt x="848" y="355" on="0"/>
        <pt x="848" y="442" on="1"/>
        <pt x="848" y="525" on="0"/>
        <pt x="744" y="598" on="0"/>
        <pt x="630" y="598" on="1"/>
        <pt x="470" y="598" on="1"/>
        <pt x="470" y="286" on="1"/>
        <pt x="514" y="283" on="0"/>
        <pt x="579" y="280" on="0"/>
      </contour>
    </TTGlyph>
    <TTGlyph name="C" xMin="54" yMin="-20" xMax="1068" yMax="1500">
      <contour>
        <pt x="770" y="-20" on="1"/>
        <pt x="544" y="-20" on="0"/>
        <pt x="224" y="134" on="0"/>
        <pt x="54" y="467" on="0"/>
        <pt x="54" y="736" on="1"/>
        <pt x="54" y="1125" on="0"/>
        <pt x="446" y="1500" on="0"/>
        <pt x="792" y="1500" on="1"/>
        <pt x="942" y="1500" on="0"/>
        <pt x="1068" y="1470" on="1"/>
        <pt x="1068" y="1142" on="1"/>
        <pt x="1011" y="1154" on="0"/>
        <pt x="891" y="1170" on="0"/>
        <pt x="828" y="1170" on="1"/>
        <pt x="647" y="1170" on="0"/>
        <pt x="464" y="980" on="0"/>
        <pt x="464" y="740" on="1"/>
        <pt x="464" y="575" on="0"/>
        <pt x="542" y="388" on="0"/>
        <pt x="703" y="310" on="0"/>
        <pt x="828" y="310" on="1"/>
        <pt x="878" y="310" on="0"/>
        <pt x="1001" y="335" on="0"/>
        <pt x="1068" y="356" on="1"/>
        <pt x="1068" y="28" on="1"/>
        <pt x="1011" y="6" on="0"/>
        <pt x="848" y="-20" on="0"/>
      </contour>
    </TTGlyph>
    <TTGlyph name="Cacute" xMin="54" yMin="-20" xMax="1078" yMax="1902">
      <component glyphName="C" x="0" y="0" flags="0x204"/>
      <component glyphName="acutecomb.case" x="88" y="0" flags="0x4"/>
    </TTGlyph>
    <TTGlyph name="Ccaron" xMin="54" yMin="-20" xMax="1068" yMax="1902">
      <component glyphName="C" x="0" y="0" flags="0x204"/>
      <component glyphName="uni030C.case" x="88" y="0" flags="0x4"/>
    </TTGlyph>
    <TTGlyph name="Ccedilla" xMin="54" yMin="-460" xMax="1068" yMax="1500">
      <component glyphName="C" x="0" y="0" flags="0x204"/>
      <component glyphName="uni0327.case" x="88" y="0" flags="0x4"/>
    </TTGlyph>
    <TTGlyph name="Ccircumflex" xMin="54" yMin="-20" xMax="1068" yMax="1902">
      <component glyphName="C" x="0" y="0" flags="0x204"/>
      <component glyphName="uni0302.case" x="88" y="0" flags="0x4"/>
    </TTGlyph>
    <TTGlyph name="Cdotaccent" xMin="54" yMin="-20" xMax="1068" yMax="1930">
      <component glyphName="C" x="0" y="0" flags="0x204"/>
      <component glyphName="uni0307.case" x="88" y="0" flags="0x4"/>
    </TTGlyph>
    <TTGlyph name="D" xMin="88" yMin="-20" xMax="1278" yMax="1500">
      <contour>
        <pt x="472" y="-20" on="1"/>
        <pt x="277" y="-20" on="0"/>
        <pt x="88" y="2" on="1"/>
        <pt x="88" y="1450" on="1"/>
        <pt x="190" y="1473" on="0"/>
        <pt x="409" y="1500" on="0"/>
        <pt x="526" y="1500" on="1"/>
        <pt x="903" y="1500" on="0"/>
        <pt x="1278" y="1133" on="0"/>
        <pt x="1278" y="740" on="1"/>
        <pt x="1278" y="344" on="0"/>
        <pt x="879" y="-20" on="0"/>
      </contour>
      <contour>
        <pt x="580" y="306" on="1"/>
        <pt x="672" y="306" on="0"/>
        <pt x="804" y="383" on="0"/>
        <pt x="874" y="572" on="0"/>
        <pt x="874" y="740" on="1"/>
        <pt x="874" y="909" on="0"/>
        <pt x="800" y="1099" on="0"/>
        <pt x="665" y="1176" on="0"/>
        <pt x="574" y="1176" on="1"/>
        <pt x="553" y="1176" on="0"/>
        <pt x="498" y="1171" on="0"/>
        <pt x="480" y="1166" on="1"/>
        <pt x="480" y="308" on="1"/>
        <pt x="513" y="307" on="0"/>
        <pt x="564" y="306" on="0"/>
      </contour>
    </TTGlyph>
    <TTGlyph name="Dcaron" xMin="88" yMin="-20" xMax="1278" yMax="1902">
      <component glyphName="D" x="0" y="0" flags="0x204"/>
      <component glyphName="uni030C.case" x="18" y="0" flags="0x4"/>
    </TTGlyph>
    <TTGlyph name="Dcroat" xMin="0" yMin="-20" xMax="1278" yMax="1500">
      <component glyphName="Eth" x="0" y="0" flags="0x204"/>
    </TTGlyph>
    <TTGlyph name="E" xMin="88" yMin="0" xMax="1070" yMax="1480">
      <contour>
        <pt x="88" y="0" on="1"/>
        <pt x="88" y="1480" on="1"/>
        <pt x="1060" y="1480" on="1"/>
        <pt x="1060" y="1146" on="1"/>
        <pt x="474" y="1146" on="1"/>
        <pt x="474" y="922" on="1"/>
        <pt x="956" y="922" on="1"/>
        <pt x="956" y="588" on="1"/>
        <pt x="474" y="588" on="1"/>
        <pt x="474" y="334" on="1"/>
        <pt x="1070" y="334" on="1"/>
        <pt x="1070" y="0" on="1"/>
      </contour>
    </TTGlyph>
    <TTGlyph name="Eacute" xMin="88" yMin="0" xMax="1070" yMax="1902">
      <component glyphName="E" x="0" y="0" flags="0x204"/>
      <component glyphName="acutecomb.case" x="-4" y="0" flags="0x4"/>
    </TTGlyph>
    <TTGlyph name="Ebreve" xMin="88" yMin="0" xMax="1070" yMax="1902">
      <component glyphName="E" x="0" y="0" flags="0x204"/>
      <component glyphName="uni0306.case" x="-4" y="0" flags="0x4"/>
    </TTGlyph>
    <TTGlyph name="Ecaron" xMin="88" yMin="0" xMax="1070" yMax="1902">
      <component glyphName="E" x="0" y="0" flags="0x204"/>
      <component glyphName="uni030C.case" x="-4" y="0" flags="0x4"/>
    </TTGlyph>
    <TTGlyph name="Ecircumflex" xMin="88" yMin="0" xMax="1070" yMax="1902">
      <component glyphName="E" x="0" y="0" flags="0x204"/>
      <component glyphName="uni0302.case" x="-4" y="0" flags="0x4"/>
    </TTGlyph>
    <TTGlyph name="Edieresis" xMin="88" yMin="0" xMax="1070" yMax="1930">
      <component glyphName="E" x="0" y="0" flags="0x204"/>
      <component glyphName="uni0308.case" x="-4" y="0" flags="0x4"/>
    </TTGlyph>
    <TTGlyph name="Edotaccent" xMin="88" yMin="0" xMax="1070" yMax="1930">
      <component glyphName="E" x="0" y="0" flags="0x204"/>
      <component glyphName="uni0307.case" x="-4" y="0" flags="0x4"/>
    </TTGlyph>
    <TTGlyph name="Egrave" xMin="88" yMin="0" xMax="1070" yMax="1902">
      <component glyphName="E" x="0" y="0" flags="0x204"/>
      <component glyphName="gravecomb.case" x="-4" y="0" flags="0x4"/>
    </TTGlyph>
    <TTGlyph name="Emacron" xMin="88" yMin="0" xMax="1070" yMax="1868">
      <component glyphName="E" x="0" y="0" flags="0x204"/>
      <component glyphName="uni0304.case" x="-4" y="0" flags="0x4"/>
    </TTGlyph>
    <TTGlyph name="Eng" xMin="88" yMin="-476" xMax="1292" yMax="1480">
      <contour>
        <pt x="1022" y="-476" on="1"/>
        <pt x="766" y="-308" on="1"/>
        <pt x="824" y="-232" on="0"/>
        <pt x="893" y="-92" on="0"/>
        <pt x="909" y="-13" on="1"/>
        <pt x="454" y="824" on="1"/>
        <pt x="454" y="0" on="1"/>
        <pt x="88" y="0" on="1"/>
        <pt x="88" y="1480" on="1"/>
        <pt x="478" y="1480" on="1"/>
        <pt x="926" y="655" on="1"/>
        <pt x="926" y="1480" on="1"/>
        <pt x="1292" y="1480" on="1"/>
        <pt x="1292" y="236" on="1"/>
        <pt x="1292" y="91" on="0"/>
        <pt x="1241" y="-150" on="0"/>
        <pt x="1123" y="-367" on="0"/>
      </contour>
    </TTGlyph>
    <TTGlyph name="Eogonek" xMin="88" yMin="-460" xMax="1082" yMax="1480">
      <component glyphName="E" x="0" y="0" flags="0x204"/>
      <component glyphName="uni0328.case" x="554" y="0" flags="0x4"/>
    </TTGlyph>
    <TTGlyph name="Eth" xMin="0" yMin="-20" xMax="1278" yMax="1500">
      <component glyphName="D" x="0" y="0" flags="0x204"/>
      <component glyphName="uni0335.D" x="-248" y="-338" flags="0x4"/>
    </TTGlyph>
    <TTGlyph name="Euro" xMin="40" yMin="-20" xMax="1214" yMax="1500">
      <contour>
        <pt x="40" y="478" on="1"/>
        <pt x="40" y="712" on="1"/>
        <pt x="200" y="712" on="1"/>
        <pt x="200" y="724" on="0"/>
        <pt x="200" y="736" on="1"/>
        <pt x="200" y="762" on="0"/>
        <pt x="201" y="788" on="1"/>
        <pt x="40" y="788" on="1"/>
        <pt x="40" y="1022" on="1"/>
        <pt x="234" y="1022" on="1"/>
        <pt x="300" y="1264" on="0"/>
        <pt x="663" y="1500" on="0"/>
        <pt x="938" y="1500" on="1"/>
        <pt x="1088" y="1500" on="0"/>
        <pt x="1214" y="1470" on="1"/>
        <pt x="1214" y="1142" on="1"/>
        <pt x="1157" y="1154" on="0"/>
        <pt x="1037" y="1170" on="0"/>
        <pt x="974" y="1170" on="1"/>
        <pt x="860" y="1170" on="0"/>
        <pt x="700" y="1102" on="0"/>
        <pt x="656" y="1022" on="1"/>
        <pt x="1054" y="1022" on="1"/>
        <pt x="1054" y="788" on="1"/>
        <pt x="601" y="788" on="1"/>
        <pt x="600" y="765" on="0"/>
        <pt x="600" y="740" on="1"/>
        <pt x="600" y="725" on="0"/>
        <pt x="600" y="712" on="1"/>
        <pt x="1054" y="712" on="1"/>
        <pt x="1054" y="478" on="1"/>
        <pt x="642" y="478" on="1"/>
        <pt x="683" y="385" on="0"/>
        <pt x="847" y="310" on="0"/>
        <pt x="974" y="310" on="1"/>
        <pt x="1024" y="310" on="0"/>
        <pt x="1147" y="335" on="0"/>
        <pt x="1214" y="356" on="1"/>
        <pt x="1214" y="28" on="1"/>
        <pt x="1157" y="6" on="0"/>
        <pt x="994" y="-20" on="0"/>
        <pt x="916" y="-20" on="1"/>
        <pt x="637" y="-20" on="0"/>
        <pt x="281" y="215" on="0"/>
        <pt x="225" y="478" on="1"/>
      </contour>
    </TTGlyph>
    <TTGlyph name="Euro.tf" xMin="40" yMin="-20" xMax="1166" yMax="1500">
      <contour>
        <pt x="40" y="478" on="1"/>
        <pt x="40" y="712" on="1"/>
        <pt x="200" y="712" on="1"/>
        <pt x="200" y="724" on="0"/>
        <pt x="200" y="736" on="1"/>
        <pt x="200" y="763" on="0"/>
        <pt x="201" y="788" on="1"/>
        <pt x="40" y="788" on="1"/>
        <pt x="40" y="1022" on="1"/>
        <pt x="235" y="1022" on="1"/>
        <pt x="281" y="1189" on="0"/>
        <pt x="475" y="1400" on="0"/>
        <pt x="745" y="1500" on="0"/>
        <pt x="904" y="1500" on="1"/>
        <pt x="972" y="1500" on="0"/>
        <pt x="1106" y="1485" on="0"/>
        <pt x="1166" y="1470" on="1"/>
        <pt x="1166" y="1142" on="1"/>
        <pt x="1112" y="1154" on="0"/>
        <pt x="1001" y="1170" on="0"/>
        <pt x="942" y="1170" on="1"/>
        <pt x="834" y="1170" on="0"/>
        <pt x="686" y="1106" on="0"/>
        <pt x="646" y="1022" on="1"/>
        <pt x="1006" y="1022" on="1"/>
        <pt x="1006" y="788" on="1"/>
        <pt x="601" y="788" on="1"/>
        <pt x="600" y="765" on="0"/>
        <pt x="600" y="740" on="1"/>
        <pt x="600" y="725" on="0"/>
        <pt x="600" y="712" on="1"/>
        <pt x="1006" y="712" on="1"/>
        <pt x="1006" y="478" on="1"/>
        <pt x="634" y="478" on="1"/>
        <pt x="670" y="379" on="0"/>
        <pt x="822" y="310" on="0"/>
        <pt x="942" y="310" on="1"/>
        <pt x="989" y="310" on="0"/>
        <pt x="1103" y="335" on="0"/>
        <pt x="1166" y="356" on="1"/>
        <pt x="1166" y="28" on="1"/>
        <pt x="1111" y="6" on="0"/>
        <pt x="956" y="-20" on="0"/>
        <pt x="884" y="-20" on="1"/>
        <pt x="723" y="-20" on="0"/>
        <pt x="453" y="78" on="0"/>
        <pt x="265" y="297" on="0"/>
        <pt x="225" y="478" on="1"/>
      </contour>
    </TTGlyph>
    <TTGlyph name="F" xMin="88" yMin="0" xMax="1060" yMax="1480">
      <contour>
        <pt x="88" y="0" on="1"/>
        <pt x="88" y="1480" on="1"/>
        <pt x="1060" y="1480" on="1"/>
        <pt x="1060" y="1142" on="1"/>
        <pt x="480" y="1142" on="1"/>
        <pt x="480" y="876" on="1"/>
        <pt x="962" y="876" on="1"/>
        <pt x="962" y="538" on="1"/>
        <pt x="480" y="538" on="1"/>
        <pt x="480" y="0" on="1"/>
      </contour>
    </TTGlyph>
    <TTGlyph name="G" xMin="54" yMin="-20" xMax="1196" yMax="1500">
      <contour>
        <pt x="850" y="-20" on="1"/>
        <pt x="456" y="-20" on="0"/>
        <pt x="54" y="349" on="0"/>
        <pt x="54" y="740" on="1"/>
        <pt x="54" y="1126" on="0"/>
        <pt x="465" y="1500" on="0"/>
        <pt x="850" y="1500" on="1"/>
        <pt x="943" y="1500" on="0"/>
        <pt x="1088" y="1482" on="0"/>
        <pt x="1158" y="1464" on="1"/>
        <pt x="1158" y="1136" on="1"/>
        <pt x="1091" y="1151" on="0"/>
        <pt x="965" y="1170" on="0"/>
        <pt x="896" y="1170" on="1"/>
        <pt x="743" y="1170" on="0"/>
        <pt x="553" y="1088" on="0"/>
        <pt x="464" y="897" on="0"/>
        <pt x="464" y="734" on="1"/>
        <pt x="464" y="499" on="0"/>
        <pt x="643" y="308" on="0"/>
        <pt x="806" y="308" on="1"/>
        <pt x="820" y="308" on="0"/>
        <pt x="834" y="308" on="1"/>
        <pt x="834" y="720" on="1"/>
        <pt x="1196" y="720" on="1"/>
        <pt x="1196" y="10" on="1"/>
        <pt x="1111" y="-3" on="0"/>
        <pt x="930" y="-20" on="0"/>
      </contour>
    </TTGlyph>
    <TTGlyph name="Gbreve" xMin="54" yMin="-20" xMax="1196" yMax="1902">
      <component glyphName="G" x="0" y="0" flags="0x204"/>
      <component glyphName="uni0306.case" x="150" y="0" flags="0x4"/>
    </TTGlyph>
    <TTGlyph name="Gcaron" xMin="54" yMin="-20" xMax="1196" yMax="1902">
      <component glyphName="G" x="0" y="0" flags="0x204"/>
      <component glyphName="uni030C.case" x="150" y="0" flags="0x4"/>
    </TTGlyph>
    <TTGlyph name="Gcircumflex" xMin="54" yMin="-20" xMax="1196" yMax="1902">
      <component glyphName="G" x="0" y="0" flags="0x204"/>
      <component glyphName="uni0302.case" x="150" y="0" flags="0x4"/>
    </TTGlyph>
    <TTGlyph name="Gdotaccent" xMin="54" yMin="-20" xMax="1196" yMax="1930">
      <component glyphName="G" x="0" y="0" flags="0x204"/>
      <component glyphName="uni0307.case" x="150" y="0" flags="0x4"/>
    </TTGlyph>
    <TTGlyph name="H" xMin="88" yMin="0" xMax="1278" yMax="1480">
      <contour>
        <pt x="88" y="0" on="1"/>
        <pt x="88" y="1480" on="1"/>
        <pt x="480" y="1480" on="1"/>
        <pt x="480" y="934" on="1"/>
        <pt x="886" y="934" on="1"/>
        <pt x="886" y="1480" on="1"/>
        <pt x="1278" y="1480" on="1"/>
        <pt x="1278" y="0" on="1"/>
        <pt x="886" y="0" on="1"/>
        <pt x="886" y="576" on="1"/>
        <pt x="480" y="576" on="1"/>
        <pt x="480" y="0" on="1"/>
      </contour>
    </TTGlyph>
    <TTGlyph name="Hbar" xMin="0" yMin="0" xMax="1366" yMax="1480">
      <component glyphName="H" x="0" y="0" flags="0x204"/>
      <component glyphName="uni0336.case" x="-4" y="40" flags="0x4"/>
    </TTGlyph>
    <TTGlyph name="Hcircumflex" xMin="88" yMin="0" xMax="1278" yMax="1902">
      <component glyphName="H" x="0" y="0" flags="0x204"/>
      <component glyphName="uni0302.case" x="84" y="0" flags="0x4"/>
    </TTGlyph>
    <TTGlyph name="I" xMin="88" yMin="0" xMax="480" yMax="1480">
      <contour>
        <pt x="88" y="0" on="1"/>
        <pt x="88" y="1480" on="1"/>
        <pt x="480" y="1480" on="1"/>
        <pt x="480" y="0" on="1"/>
      </contour>
    </TTGlyph>
    <TTGlyph name="I_J.loclNLD" xMin="88" yMin="-350" xMax="1048" yMax="1480">
      <component glyphName="I" x="0" y="0" flags="0x4"/>
      <component glyphName="J" x="568" y="0" flags="0x4"/>
    </TTGlyph>
    <TTGlyph name="Iacute" xMin="88" yMin="0" xMax="674" yMax="1902">
      <component glyphName="I" x="0" y="0" flags="0x204"/>
      <component glyphName="acutecomb.case" x="-316" y="0" flags="0x4"/>
    </TTGlyph>
    <TTGlyph name="Iacute_J.loclNLD" xMin="88" yMin="-350" xMax="1242" yMax="1902">
      <component glyphName="I" x="0" y="0" flags="0x4"/>
      <component glyphName="acutecomb.case" x="-316" y="0" flags="0x4"/>
      <component glyphName="J" x="568" y="0" flags="0x4"/>
      <component glyphName="acutecomb.case" x="252" y="0" flags="0x4"/>
    </TTGlyph>
    <TTGlyph name="Ibreve" xMin="-82" yMin="0" xMax="650" yMax="1902">
      <component glyphName="I" x="0" y="0" flags="0x204"/>
      <component glyphName="uni0306.case" x="-316" y="0" flags="0x4"/>
    </TTGlyph>
    <TTGlyph name="Icircumflex" xMin="-70" yMin="0" xMax="638" yMax="1902">
      <component glyphName="I" x="0" y="0" flags="0x204"/>
      <component glyphName="uni0302.case" x="-316" y="0" flags="0x4"/>
    </TTGlyph>
    <TTGlyph name="Idieresis" xMin="-174" yMin="0" xMax="742" yMax="1930">
      <component glyphName="I" x="0" y="0" flags="0x204"/>
      <component glyphName="uni0308.case" x="-316" y="0" flags="0x4"/>
    </TTGlyph>
    <TTGlyph name="Idotaccent" xMin="48" yMin="0" xMax="520" yMax="1930">
      <component glyphName="I" x="0" y="0" flags="0x204"/>
      <component glyphName="uni0307.case" x="-316" y="0" flags="0x4"/>
    </TTGlyph>
    <TTGlyph name="Igrave" xMin="-106" yMin="0" xMax="480" yMax="1902">
      <component glyphName="I" x="0" y="0" flags="0x204"/>
      <component glyphName="gravecomb.case" x="-316" y="0" flags="0x4"/>
    </TTGlyph>
    <TTGlyph name="Imacron" xMin="-92" yMin="0" xMax="660" yMax="1868">
      <component glyphName="I" x="0" y="0" flags="0x204"/>
      <component glyphName="uni0304.case" x="-316" y="0" flags="0x4"/>
    </TTGlyph>
    <TTGlyph name="Iogonek" xMin="18" yMin="-460" xMax="492" yMax="1480">
      <component glyphName="I" x="0" y="0" flags="0x204"/>
      <component glyphName="uni0328.case" x="-36" y="0" flags="0x4"/>
    </TTGlyph>
    <TTGlyph name="Itilde" xMin="-92" yMin="0" xMax="660" yMax="1902">
      <component glyphName="I" x="0" y="0" flags="0x204"/>
      <component glyphName="tildecomb.case" x="-316" y="0" flags="0x4"/>
    </TTGlyph>
    <TTGlyph name="J" xMin="-50" yMin="-350" xMax="480" yMax="1480">
      <contour>
        <pt x="206" y="-350" on="1"/>
        <pt x="-50" y="-182" on="1"/>
        <pt x="4" y="-104" on="0"/>
        <pt x="64" y="41" on="0"/>
        <pt x="88" y="203" on="0"/>
        <pt x="88" y="306" on="1"/>
        <pt x="88" y="1480" on="1"/>
        <pt x="480" y="1480" on="1"/>
        <pt x="480" y="322" on="1"/>
        <pt x="480" y="135" on="0"/>
        <pt x="359" y="-186" on="0"/>
      </contour>
    </TTGlyph>
    <TTGlyph name="Jcircumflex" xMin="-70" yMin="-350" xMax="638" yMax="1902">
      <component glyphName="J" x="0" y="0" flags="0x204"/>
      <component glyphName="uni0302.case" x="-316" y="0" flags="0x4"/>
    </TTGlyph>
    <TTGlyph name="K" xMin="88" yMin="0" xMax="1308" yMax="1480">
      <contour>
        <pt x="88" y="0" on="1"/>
        <pt x="88" y="1480" on="1"/>
        <pt x="480" y="1480" on="1"/>
        <pt x="480" y="934" on="1"/>
        <pt x="565" y="934" on="1"/>
        <pt x="866" y="1480" on="1"/>
        <pt x="1272" y="1480" on="1"/>
        <pt x="877" y="765" on="1"/>
        <pt x="1308" y="0" on="1"/>
        <pt x="890" y="0" on="1"/>
        <pt x="563" y="576" on="1"/>
        <pt x="480" y="576" on="1"/>
        <pt x="480" y="0" on="1"/>
      </contour>
    </TTGlyph>
    <TTGlyph name="L" xMin="88" yMin="0" xMax="1032" yMax="1480">
      <contour>
        <pt x="88" y="0" on="1"/>
        <pt x="88" y="1480" on="1"/>
        <pt x="480" y="1480" on="1"/>
        <pt x="480" y="346" on="1"/>
        <pt x="1032" y="346" on="1"/>
        <pt x="1032" y="0" on="1"/>
      </contour>
    </TTGlyph>
    <TTGlyph name="Lacute" xMin="88" yMin="0" xMax="1032" yMax="1902">
      <component glyphName="L" x="0" y="0" flags="0x204"/>
      <component glyphName="acutecomb.case" x="-308" y="0" flags="0x4"/>
    </TTGlyph>
    <TTGlyph name="Lcaron" xMin="88" yMin="0" xMax="1032" yMax="1616">
      <component glyphName="L" x="0" y="0" flags="0x204"/>
      <component glyphName="uni030C.alt.case" x="76" y="0" flags="0x4"/>
    </TTGlyph>
    <TTGlyph name="Ldot" xMin="88" yMin="0" xMax="1032" yMax="1480">
      <component glyphName="L" x="0" y="0" flags="0x204"/>
      <component glyphName="periodcentered.CAT" x="536" y="154" flags="0x4"/>
    </TTGlyph>
    <TTGlyph name="Lslash" xMin="7" yMin="0" xMax="1070" yMax="1480">
      <component glyphName="L" x="38" y="0" flags="0x4"/>
      <component glyphName="uni0337.case" x="-70" y="80" flags="0x4"/>
    </TTGlyph>
    <TTGlyph name="M" xMin="92" yMin="0" xMax="1644" yMax="1480">
      <contour>
        <pt x="92" y="0" on="1"/>
        <pt x="92" y="1480" on="1"/>
        <pt x="576" y="1480" on="1"/>
        <pt x="875" y="660" on="1"/>
        <pt x="1160" y="1480" on="1"/>
        <pt x="1644" y="1480" on="1"/>
        <pt x="1644" y="0" on="1"/>
        <pt x="1280" y="0" on="1"/>
        <pt x="1280" y="932" on="1"/>
        <pt x="1020" y="220" on="1"/>
        <pt x="716" y="220" on="1"/>
        <pt x="456" y="903" on="1"/>
        <pt x="456" y="0" on="1"/>
      </contour>
    </TTGlyph>
    <TTGlyph name="N" xMin="88" yMin="0" xMax="1292" yMax="1480">
      <contour>
        <pt x="88" y="0" on="1"/>
        <pt x="88" y="1480" on="1"/>
        <pt x="478" y="1480" on="1"/>
        <pt x="926" y="657" on="1"/>
        <pt x="926" y="1480" on="1"/>
        <pt x="1292" y="1480" on="1"/>
        <pt x="1292" y="0" on="1"/>
        <pt x="902" y="0" on="1"/>
        <pt x="454" y="823" on="1"/>
        <pt x="454" y="0" on="1"/>
      </contour>
    </TTGlyph>
    <TTGlyph name="Nacute" xMin="88" yMin="0" xMax="1292" yMax="1902">
      <component glyphName="N" x="0" y="0" flags="0x204"/>
      <component glyphName="acutecomb.case" x="90" y="0" flags="0x4"/>
    </TTGlyph>
    <TTGlyph name="Ncaron" xMin="88" yMin="0" xMax="1292" yMax="1902">
      <component glyphName="N" x="0" y="0" flags="0x204"/>
      <component glyphName="uni030C.case" x="90" y="0" flags="0x4"/>
    </TTGlyph>
    <TTGlyph name="Ntilde" xMin="88" yMin="0" xMax="1292" yMax="1902">
      <component glyphName="N" x="0" y="0" flags="0x204"/>
      <component glyphName="tildecomb.case" x="90" y="0" flags="0x4"/>
    </TTGlyph>
    <TTGlyph name="O" xMin="54" yMin="-20" xMax="1342" yMax="1500">
      <contour>
        <pt x="698" y="-20" on="1"/>
        <pt x="508" y="-20" on="0"/>
        <pt x="218" y="137" on="0"/>
        <pt x="54" y="472" on="0"/>
        <pt x="54" y="740" on="1"/>
        <pt x="54" y="1008" on="0"/>
        <pt x="218" y="1343" on="0"/>
        <pt x="508" y="1500" on="0"/>
        <pt x="698" y="1500" on="1"/>
        <pt x="888" y="1500" on="0"/>
        <pt x="1178" y="1343" on="0"/>
        <pt x="1342" y="1008" on="0"/>
        <pt x="1342" y="740" on="1"/>
        <pt x="1342" y="472" on="0"/>
        <pt x="1178" y="137" on="0"/>
        <pt x="888" y="-20" on="0"/>
      </contour>
      <contour>
        <pt x="698" y="304" on="1"/>
        <pt x="814" y="304" on="0"/>
        <pt x="938" y="494" on="0"/>
        <pt x="938" y="732" on="1"/>
        <pt x="938" y="899" on="0"/>
        <pt x="882" y="1093" on="0"/>
        <pt x="775" y="1176" on="0"/>
        <pt x="698" y="1176" on="1"/>
        <pt x="583" y="1176" on="0"/>
        <pt x="458" y="987" on="0"/>
        <pt x="458" y="748" on="1"/>
        <pt x="458" y="581" on="0"/>
        <pt x="514" y="387" on="0"/>
        <pt x="621" y="304" on="0"/>
      </contour>
    </TTGlyph>
    <TTGlyph name="OE" xMin="54" yMin="-10" xMax="1806" yMax="1490">
      <contour>
        <pt x="802" y="-10" on="1"/>
        <pt x="433" y="-10" on="0"/>
        <pt x="54" y="358" on="0"/>
        <pt x="54" y="740" on="1"/>
        <pt x="54" y="999" on="0"/>
        <pt x="240" y="1331" on="0"/>
        <pt x="584" y="1490" on="0"/>
        <pt x="822" y="1490" on="1"/>
        <pt x="891" y="1490" on="0"/>
        <pt x="1034" y="1480" on="0"/>
        <pt x="1098" y="1480" on="1"/>
        <pt x="1796" y="1480" on="1"/>
        <pt x="1796" y="1146" on="1"/>
        <pt x="1234" y="1146" on="1"/>
        <pt x="1234" y="922" on="1"/>
        <pt x="1692" y="922" on="1"/>
        <pt x="1692" y="588" on="1"/>
        <pt x="1234" y="588" on="1"/>
        <pt x="1234" y="334" on="1"/>
        <pt x="1806" y="334" on="1"/>
        <pt x="1806" y="0" on="1"/>
        <pt x="1098" y="0" on="1"/>
        <pt x="1034" y="0" on="0"/>
        <pt x="871" y="-10" on="0"/>
      </contour>
      <contour>
        <pt x="748" y="314" on="1"/>
        <pt x="769" y="314" on="0"/>
        <pt x="815" y="315" on="0"/>
        <pt x="848" y="316" on="1"/>
        <pt x="848" y="1162" on="1"/>
        <pt x="815" y="1164" on="0"/>
        <pt x="765" y="1164" on="0"/>
        <pt x="748" y="1164" on="1"/>
        <pt x="658" y="1164" on="0"/>
        <pt x="528" y="1088" on="0"/>
        <pt x="458" y="903" on="0"/>
        <pt x="458" y="740" on="1"/>
        <pt x="458" y="576" on="0"/>
        <pt x="528" y="390" on="0"/>
        <pt x="658" y="314" on="0"/>
      </contour>
    </TTGlyph>
    <TTGlyph name="Oacute" xMin="54" yMin="-20" xMax="1342" yMax="1902">
      <component glyphName="O" x="0" y="0" flags="0x204"/>
      <component glyphName="acutecomb.case" x="98" y="0" flags="0x4"/>
    </TTGlyph>
    <TTGlyph name="Obreve" xMin="54" yMin="-20" xMax="1342" yMax="1902">
      <component glyphName="O" x="0" y="0" flags="0x204"/>
      <component glyphName="uni0306.case" x="98" y="0" flags="0x4"/>
    </TTGlyph>
    <TTGlyph name="Ocircumflex" xMin="54" yMin="-20" xMax="1342" yMax="1902">
      <component glyphName="O" x="0" y="0" flags="0x204"/>
      <component glyphName="uni0302.case" x="98" y="0" flags="0x4"/>
    </TTGlyph>
    <TTGlyph name="Odieresis" xMin="54" yMin="-20" xMax="1342" yMax="1930">
      <component glyphName="O" x="0" y="0" flags="0x204"/>
      <component glyphName="uni0308.case" x="98" y="0" flags="0x4"/>
    </TTGlyph>
    <TTGlyph name="Ograve" xMin="54" yMin="-20" xMax="1342" yMax="1902">
      <component glyphName="O" x="0" y="0" flags="0x204"/>
      <component glyphName="gravecomb.case" x="98" y="0" flags="0x4"/>
    </TTGlyph>
    <TTGlyph name="Ohorn" xMin="54" yMin="-20" xMax="1362" yMax="1776">
      <contour>
        <pt x="698" y="-20" on="1"/>
        <pt x="505" y="-20" on="0"/>
        <pt x="215" y="137" on="0"/>
        <pt x="54" y="472" on="0"/>
        <pt x="54" y="740" on="1"/>
        <pt x="54" y="1008" on="0"/>
        <pt x="218" y="1343" on="0"/>
        <pt x="508" y="1500" on="0"/>
        <pt x="698" y="1500" on="1"/>
        <pt x="778" y="1500" on="0"/>
        <pt x="883" y="1480" on="0"/>
        <pt x="946" y="1480" on="1"/>
        <pt x="1017" y="1480" on="0"/>
        <pt x="1092" y="1548" on="0"/>
        <pt x="1092" y="1636" on="1"/>
        <pt x="1092" y="1668" on="0"/>
        <pt x="1085" y="1737" on="0"/>
        <pt x="1076" y="1776" on="1"/>
        <pt x="1342" y="1776" on="1"/>
        <pt x="1354" y="1739" on="0"/>
        <pt x="1362" y="1657" on="0"/>
        <pt x="1362" y="1612" on="1"/>
        <pt x="1362" y="1484" on="0"/>
        <pt x="1253" y="1345" on="0"/>
        <pt x="1163" y="1320" on="1"/>
        <pt x="1248" y="1229" on="0"/>
        <pt x="1342" y="941" on="0"/>
        <pt x="1342" y="740" on="1"/>
        <pt x="1342" y="472" on="0"/>
        <pt x="1181" y="137" on="0"/>
        <pt x="891" y="-20" on="0"/>
      </contour>
      <contour>
        <pt x="698" y="304" on="1"/>
        <pt x="814" y="304" on="0"/>
        <pt x="938" y="494" on="0"/>
        <pt x="938" y="732" on="1"/>
        <pt x="938" y="899" on="0"/>
        <pt x="882" y="1093" on="0"/>
        <pt x="775" y="1176" on="0"/>
        <pt x="698" y="1176" on="1"/>
        <pt x="583" y="1176" on="0"/>
        <pt x="458" y="987" on="0"/>
        <pt x="458" y="748" on="1"/>
        <pt x="458" y="581" on="0"/>
        <pt x="514" y="387" on="0"/>
        <pt x="621" y="304" on="0"/>
      </contour>
    </TTGlyph>
    <TTGlyph name="Ohungarumlaut" xMin="54" yMin="-20" xMax="1342" yMax="1902">
      <component glyphName="O" x="0" y="0" flags="0x204"/>
      <component glyphName="uni030B.case" x="98" y="0" flags="0x4"/>
    </TTGlyph>
    <TTGlyph name="Omacron" xMin="54" yMin="-20" xMax="1342" yMax="1868">
      <component glyphName="O" x="0" y="0" flags="0x204"/>
      <component glyphName="uni0304.case" x="98" y="0" flags="0x4"/>
    </TTGlyph>
    <TTGlyph name="Oslash" xMin="54" yMin="-20" xMax="1342" yMax="1500">
      <component glyphName="O" x="0" y="0" flags="0x204"/>
      <component glyphName="slashcomb.case" x="98" y="0" flags="0x4"/>
    </TTGlyph>
    <TTGlyph name="Oslashacute" xMin="54" yMin="-20" xMax="1342" yMax="1902">
      <component glyphName="Oslash" x="0" y="0" flags="0x204"/>
      <component glyphName="acutecomb.case" x="100" y="0" flags="0x4"/>
    </TTGlyph>
    <TTGlyph name="Otilde" xMin="54" yMin="-20" xMax="1342" yMax="1902">
      <component glyphName="O" x="0" y="0" flags="0x204"/>
      <component glyphName="tildecomb.case" x="98" y="0" flags="0x4"/>
    </TTGlyph>
    <TTGlyph name="P" xMin="88" yMin="0" xMax="1172" yMax="1500">
      <contour>
        <pt x="88" y="0" on="1"/>
        <pt x="88" y="1450" on="1"/>
        <pt x="190" y="1473" on="0"/>
        <pt x="410" y="1500" on="0"/>
        <pt x="530" y="1500" on="1"/>
        <pt x="850" y="1500" on="0"/>
        <pt x="1172" y="1234" on="0"/>
        <pt x="1172" y="946" on="1"/>
        <pt x="1172" y="675" on="0"/>
        <pt x="861" y="394" on="0"/>
        <pt x="574" y="394" on="1"/>
        <pt x="546" y="394" on="0"/>
        <pt x="506" y="396" on="0"/>
        <pt x="480" y="396" on="1"/>
        <pt x="480" y="0" on="1"/>
      </contour>
      <contour>
        <pt x="578" y="708" on="1"/>
        <pt x="685" y="708" on="0"/>
        <pt x="792" y="813" on="0"/>
        <pt x="792" y="942" on="1"/>
        <pt x="792" y="1071" on="0"/>
        <pt x="682" y="1186" on="0"/>
        <pt x="568" y="1186" on="1"/>
        <pt x="515" y="1186" on="0"/>
        <pt x="480" y="1178" on="1"/>
        <pt x="480" y="714" on="1"/>
        <pt x="503" y="711" on="0"/>
        <pt x="548" y="708" on="0"/>
      </contour>
    </TTGlyph>
    <TTGlyph name="Q" xMin="54" yMin="-354" xMax="1342" yMax="1500">
      <contour>
        <pt x="1244" y="-354" on="1"/>
        <pt x="907" y="-289" on="0"/>
        <pt x="449" y="-87" on="0"/>
        <pt x="174" y="186" on="0"/>
        <pt x="54" y="532" on="0"/>
        <pt x="54" y="740" on="1"/>
        <pt x="54" y="1008" on="0"/>
        <pt x="218" y="1343" on="0"/>
        <pt x="508" y="1500" on="0"/>
        <pt x="698" y="1500" on="1"/>
        <pt x="888" y="1500" on="0"/>
        <pt x="1178" y="1343" on="0"/>
        <pt x="1342" y="1008" on="0"/>
        <pt x="1342" y="740" on="1"/>
        <pt x="1342" y="461" on="0"/>
        <pt x="1140" y="111" on="0"/>
        <pt x="950" y="52" on="1"/>
        <pt x="1055" y="17" on="0"/>
        <pt x="1232" y="-24" on="0"/>
        <pt x="1318" y="-36" on="1"/>
      </contour>
      <contour>
        <pt x="698" y="304" on="1"/>
        <pt x="814" y="304" on="0"/>
        <pt x="938" y="494" on="0"/>
        <pt x="938" y="732" on="1"/>
        <pt x="938" y="899" on="0"/>
        <pt x="882" y="1093" on="0"/>
        <pt x="775" y="1176" on="0"/>
        <pt x="698" y="1176" on="1"/>
        <pt x="583" y="1176" on="0"/>
        <pt x="458" y="987" on="0"/>
        <pt x="458" y="748" on="1"/>
        <pt x="458" y="581" on="0"/>
        <pt x="514" y="387" on="0"/>
        <pt x="621" y="304" on="0"/>
      </contour>
    </TTGlyph>
    <TTGlyph name="R" xMin="88" yMin="0" xMax="1274" yMax="1500">
      <contour>
        <pt x="88" y="0" on="1"/>
        <pt x="88" y="1450" on="1"/>
        <pt x="190" y="1473" on="0"/>
        <pt x="412" y="1500" on="0"/>
        <pt x="536" y="1500" on="1"/>
        <pt x="1168" y="1500" on="0"/>
        <pt x="1168" y="1000" on="1"/>
        <pt x="1168" y="848" on="0"/>
        <pt x="1038" y="634" on="0"/>
        <pt x="923" y="575" on="1"/>
        <pt x="1274" y="0" on="1"/>
        <pt x="858" y="0" on="1"/>
        <pt x="561" y="502" on="1"/>
        <pt x="536" y="503" on="0"/>
        <pt x="496" y="504" on="0"/>
        <pt x="474" y="504" on="1"/>
        <pt x="474" y="0" on="1"/>
      </contour>
      <contour>
        <pt x="584" y="808" on="1"/>
        <pt x="686" y="808" on="0"/>
        <pt x="798" y="894" on="0"/>
        <pt x="798" y="1000" on="1"/>
        <pt x="798" y="1102" on="0"/>
        <pt x="688" y="1198" on="0"/>
        <pt x="592" y="1198" on="1"/>
        <pt x="553" y="1198" on="0"/>
        <pt x="498" y="1193" on="0"/>
        <pt x="474" y="1188" on="1"/>
        <pt x="474" y="814" on="1"/>
        <pt x="501" y="811" on="0"/>
        <pt x="550" y="808" on="0"/>
      </contour>
    </TTGlyph>
    <TTGlyph name="Racute" xMin="88" yMin="0" xMax="1274" yMax="1902">
      <component glyphName="R" x="0" y="0" flags="0x204"/>
      <component glyphName="acutecomb.case" x="22" y="0" flags="0x4"/>
    </TTGlyph>
    <TTGlyph name="Rcaron" xMin="88" yMin="0" xMax="1274" yMax="1902">
      <component glyphName="R" x="0" y="0" flags="0x204"/>
      <component glyphName="uni030C.case" x="22" y="0" flags="0x4"/>
    </TTGlyph>
    <TTGlyph name="S" xMin="20" yMin="-20" xMax="1030" yMax="1500">
      <contour>
        <pt x="446" y="-20" on="1"/>
        <pt x="356" y="-20" on="0"/>
        <pt x="147" y="12" on="0"/>
        <pt x="66" y="42" on="1"/>
        <pt x="66" y="368" on="1"/>
        <pt x="149" y="343" on="0"/>
        <pt x="340" y="308" on="0"/>
        <pt x="436" y="308" on="1"/>
        <pt x="546" y="308" on="0"/>
        <pt x="636" y="371" on="0"/>
        <pt x="636" y="420" on="1"/>
        <pt x="636" y="461" on="0"/>
        <pt x="574" y="517" on="0"/>
        <pt x="476" y="550" on="1"/>
        <pt x="356" y="590" on="1"/>
        <pt x="214" y="638" on="0"/>
        <pt x="20" y="849" on="0"/>
        <pt x="20" y="1024" on="1"/>
        <pt x="20" y="1245" on="0"/>
        <pt x="320" y="1500" on="0"/>
        <pt x="624" y="1500" on="1"/>
        <pt x="719" y="1500" on="0"/>
        <pt x="885" y="1478" on="0"/>
        <pt x="948" y="1460" on="1"/>
        <pt x="948" y="1134" on="1"/>
        <pt x="821" y="1172" on="0"/>
        <pt x="666" y="1172" on="1"/>
        <pt x="566" y="1172" on="0"/>
        <pt x="457" y="1139" on="0"/>
        <pt x="414" y="1085" on="0"/>
        <pt x="414" y="1054" on="1"/>
        <pt x="414" y="1017" on="0"/>
        <pt x="466" y="967" on="0"/>
        <pt x="550" y="938" on="1"/>
        <pt x="670" y="898" on="1"/>
        <pt x="834" y="844" on="0"/>
        <pt x="1030" y="638" on="0"/>
        <pt x="1030" y="456" on="1"/>
        <pt x="1030" y="239" on="0"/>
        <pt x="724" y="-20" on="0"/>
      </contour>
    </TTGlyph>
    <TTGlyph name="Sacute" xMin="20" yMin="-20" xMax="1030" yMax="1902">
      <component glyphName="S" x="0" y="0" flags="0x204"/>
      <component glyphName="acutecomb.case" x="-64" y="0" flags="0x4"/>
    </TTGlyph>
    <TTGlyph name="Scaron" xMin="20" yMin="-20" xMax="1030" yMax="1902">
      <component glyphName="S" x="0" y="0" flags="0x204"/>
      <component glyphName="uni030C.case" x="-64" y="0" flags="0x4"/>
    </TTGlyph>
    <TTGlyph name="Scedilla" xMin="20" yMin="-460" xMax="1030" yMax="1500">
      <component glyphName="S" x="0" y="0" flags="0x204"/>
      <component glyphName="uni0327.case" x="-64" y="0" flags="0x4"/>
    </TTGlyph>
    <TTGlyph name="Scircumflex" xMin="20" yMin="-20" xMax="1030" yMax="1902">
      <component glyphName="S" x="0" y="0" flags="0x204"/>
      <component glyphName="uni0302.case" x="-64" y="0" flags="0x4"/>
    </TTGlyph>
    <TTGlyph name="T" xMin="4" yMin="0" xMax="1182" yMax="1480">
      <contour>
        <pt x="396" y="0" on="1"/>
        <pt x="396" y="1134" on="1"/>
        <pt x="4" y="1134" on="1"/>
        <pt x="4" y="1480" on="1"/>
        <pt x="1182" y="1480" on="1"/>
        <pt x="1182" y="1134" on="1"/>
        <pt x="790" y="1134" on="1"/>
        <pt x="790" y="0" on="1"/>
      </contour>
    </TTGlyph>
    <TTGlyph name="Tbar" xMin="4" yMin="0" xMax="1182" yMax="1480">
      <component glyphName="T" x="0" y="0" flags="0x204"/>
      <component glyphName="uni0335.case" x="54" y="-380" flags="0x4"/>
    </TTGlyph>
    <TTGlyph name="Tcaron" xMin="4" yMin="0" xMax="1182" yMax="1902">
      <component glyphName="T" x="0" y="0" flags="0x204"/>
      <component glyphName="uni030C.case" x="-6" y="0" flags="0x4"/>
    </TTGlyph>
    <TTGlyph name="Thorn" xMin="88" yMin="0" xMax="1172" yMax="1480">
      <contour>
        <pt x="88" y="0" on="1"/>
        <pt x="88" y="1480" on="1"/>
        <pt x="480" y="1480" on="1"/>
        <pt x="480" y="1312" on="1"/>
        <pt x="492" y="1312" on="0"/>
        <pt x="522" y="1314" on="0"/>
        <pt x="534" y="1314" on="1"/>
        <pt x="851" y="1314" on="0"/>
        <pt x="1172" y="1048" on="0"/>
        <pt x="1172" y="760" on="1"/>
        <pt x="1172" y="486" on="0"/>
        <pt x="863" y="208" on="0"/>
        <pt x="578" y="208" on="1"/>
        <pt x="548" y="208" on="0"/>
        <pt x="506" y="210" on="0"/>
        <pt x="480" y="210" on="1"/>
        <pt x="480" y="0" on="1"/>
      </contour>
      <contour>
        <pt x="578" y="522" on="1"/>
        <pt x="685" y="522" on="0"/>
        <pt x="792" y="627" on="0"/>
        <pt x="792" y="756" on="1"/>
        <pt x="792" y="885" on="0"/>
        <pt x="682" y="1000" on="0"/>
        <pt x="568" y="1000" on="1"/>
        <pt x="515" y="1000" on="0"/>
        <pt x="480" y="992" on="1"/>
        <pt x="480" y="528" on="1"/>
        <pt x="503" y="525" on="0"/>
        <pt x="548" y="522" on="0"/>
      </contour>
    </TTGlyph>
    <TTGlyph name="U" xMin="82" yMin="-20" xMax="1256" yMax="1480">
      <contour>
        <pt x="674" y="-20" on="1"/>
        <pt x="379" y="-20" on="0"/>
        <pt x="82" y="270" on="0"/>
        <pt x="82" y="604" on="1"/>
        <pt x="82" y="1480" on="1"/>
        <pt x="474" y="1480" on="1"/>
        <pt x="474" y="560" on="1"/>
        <pt x="474" y="418" on="0"/>
        <pt x="581" y="308" on="0"/>
        <pt x="674" y="308" on="1"/>
        <pt x="767" y="308" on="0"/>
        <pt x="872" y="418" on="0"/>
        <pt x="872" y="560" on="1"/>
        <pt x="872" y="1480" on="1"/>
        <pt x="1256" y="1480" on="1"/>
        <pt x="1256" y="604" on="1"/>
        <pt x="1256" y="270" on="0"/>
        <pt x="967" y="-20" on="0"/>
      </contour>
    </TTGlyph>
    <TTGlyph name="Uacute" xMin="82" yMin="-20" xMax="1256" yMax="1902">
      <component glyphName="U" x="0" y="0" flags="0x204"/>
      <component glyphName="acutecomb.case" x="74" y="0" flags="0x4"/>
    </TTGlyph>
    <TTGlyph name="Ubreve" xMin="82" yMin="-20" xMax="1256" yMax="1902">
      <component glyphName="U" x="0" y="0" flags="0x204"/>
      <component glyphName="uni0306.case" x="74" y="0" flags="0x4"/>
    </TTGlyph>
    <TTGlyph name="Ucircumflex" xMin="82" yMin="-20" xMax="1256" yMax="1902">
      <component glyphName="U" x="0" y="0" flags="0x204"/>
      <component glyphName="uni0302.case" x="74" y="0" flags="0x4"/>
    </TTGlyph>
    <TTGlyph name="Udieresis" xMin="82" yMin="-20" xMax="1256" yMax="1930">
      <component glyphName="U" x="0" y="0" flags="0x204"/>
      <component glyphName="uni0308.case" x="74" y="0" flags="0x4"/>
    </TTGlyph>
    <TTGlyph name="Ugrave" xMin="82" yMin="-20" xMax="1256" yMax="1902">
      <component glyphName="U" x="0" y="0" flags="0x204"/>
      <component glyphName="gravecomb.case" x="74" y="0" flags="0x4"/>
    </TTGlyph>
    <TTGlyph name="Uhorn" xMin="82" yMin="-20" xMax="1422" yMax="1776">
      <contour>
        <pt x="674" y="-20" on="1"/>
        <pt x="379" y="-20" on="0"/>
        <pt x="82" y="270" on="0"/>
        <pt x="82" y="604" on="1"/>
        <pt x="82" y="1480" on="1"/>
        <pt x="474" y="1480" on="1"/>
        <pt x="474" y="560" on="1"/>
        <pt x="474" y="418" on="0"/>
        <pt x="581" y="308" on="0"/>
        <pt x="674" y="308" on="1"/>
        <pt x="767" y="308" on="0"/>
        <pt x="872" y="418" on="0"/>
        <pt x="872" y="560" on="1"/>
        <pt x="872" y="1480" on="1"/>
        <pt x="1006" y="1480" on="1"/>
        <pt x="1077" y="1480" on="0"/>
        <pt x="1152" y="1548" on="0"/>
        <pt x="1152" y="1636" on="1"/>
        <pt x="1152" y="1668" on="0"/>
        <pt x="1145" y="1737" on="0"/>
        <pt x="1136" y="1776" on="1"/>
        <pt x="1402" y="1776" on="1"/>
        <pt x="1414" y="1739" on="0"/>
        <pt x="1422" y="1657" on="0"/>
        <pt x="1422" y="1612" on="1"/>
        <pt x="1422" y="1497" on="0"/>
        <pt x="1333" y="1361" on="0"/>
        <pt x="1256" y="1332" on="1"/>
        <pt x="1256" y="604" on="1"/>
        <pt x="1256" y="270" on="0"/>
        <pt x="967" y="-20" on="0"/>
      </contour>
    </TTGlyph>
    <TTGlyph name="Uhungarumlaut" xMin="82" yMin="-20" xMax="1256" yMax="1902">
      <component glyphName="U" x="0" y="0" flags="0x204"/>
      <component glyphName="uni030B.case" x="74" y="0" flags="0x4"/>
    </TTGlyph>
    <TTGlyph name="Umacron" xMin="82" yMin="-20" xMax="1256" yMax="1868">
      <component glyphName="U" x="0" y="0" flags="0x204"/>
      <component glyphName="uni0304.case" x="74" y="0" flags="0x4"/>
    </TTGlyph>
    <TTGlyph name="Uogonek" xMin="82" yMin="-460" xMax="1256" yMax="1480">
      <contour>
        <pt x="756" y="-460" on="1"/>
        <pt x="606" y="-460" on="0"/>
        <pt x="464" y="-340" on="0"/>
        <pt x="464" y="-238" on="1"/>
        <pt x="464" y="-174" on="0"/>
        <pt x="524" y="-66" on="0"/>
        <pt x="596" y="-17" on="1"/>
        <pt x="339" y="0" on="0"/>
        <pt x="82" y="292" on="0"/>
        <pt x="82" y="604" on="1"/>
        <pt x="82" y="1480" on="1"/>
        <pt x="474" y="1480" on="1"/>
        <pt x="474" y="560" on="1"/>
        <pt x="474" y="418" on="0"/>
        <pt x="581" y="308" on="0"/>
        <pt x="674" y="308" on="1"/>
        <pt x="767" y="308" on="0"/>
        <pt x="872" y="418" on="0"/>
        <pt x="872" y="560" on="1"/>
        <pt x="872" y="1480" on="1"/>
        <pt x="1256" y="1480" on="1"/>
        <pt x="1256" y="604" on="1"/>
        <pt x="1256" y="357" on="0"/>
        <pt x="1099" y="74" on="0"/>
        <pt x="946" y="20" on="1"/>
        <pt x="831" y="-21" on="0"/>
        <pt x="717" y="-102" on="0"/>
        <pt x="680" y="-180" on="0"/>
        <pt x="680" y="-216" on="1"/>
        <pt x="680" y="-258" on="0"/>
        <pt x="739" y="-306" on="0"/>
        <pt x="808" y="-306" on="1"/>
        <pt x="869" y="-306" on="0"/>
        <pt x="938" y="-280" on="1"/>
        <pt x="938" y="-430" on="1"/>
        <pt x="899" y="-443" on="0"/>
        <pt x="812" y="-460" on="0"/>
      </contour>
    </TTGlyph>
    <TTGlyph name="Uring" xMin="82" yMin="-20" xMax="1256" yMax="2010">
      <component glyphName="U" x="0" y="0" flags="0x204"/>
      <component glyphName="uni030A.case" x="74" y="0" flags="0x4"/>
    </TTGlyph>
    <TTGlyph name="Utilde" xMin="82" yMin="-20" xMax="1256" yMax="1902">
      <component glyphName="U" x="0" y="0" flags="0x204"/>
      <component glyphName="tildecomb.case" x="74" y="0" flags="0x4"/>
    </TTGlyph>
    <TTGlyph name="V" xMin="-18" yMin="0" xMax="1298" yMax="1480">
      <contour>
        <pt x="340" y="0" on="1"/>
        <pt x="-18" y="1480" on="1"/>
        <pt x="384" y="1480" on="1"/>
        <pt x="650" y="314" on="1"/>
        <pt x="924" y="1480" on="1"/>
        <pt x="1298" y="1480" on="1"/>
        <pt x="940" y="0" on="1"/>
      </contour>
    </TTGlyph>
    <TTGlyph name="W" xMin="4" yMin="0" xMax="2024" yMax="1480">
      <contour>
        <pt x="308" y="0" on="1"/>
        <pt x="4" y="1480" on="1"/>
        <pt x="398" y="1480" on="1"/>
        <pt x="596" y="426" on="1"/>
        <pt x="816" y="1480" on="1"/>
        <pt x="1240" y="1480" on="1"/>
        <pt x="1447" y="409" on="1"/>
        <pt x="1658" y="1480" on="1"/>
        <pt x="2024" y="1480" on="1"/>
        <pt x="1720" y="0" on="1"/>
        <pt x="1212" y="0" on="1"/>
        <pt x="1024" y="958" on="1"/>
        <pt x="816" y="0" on="1"/>
      </contour>
    </TTGlyph>
    <TTGlyph name="Wacute" xMin="4" yMin="0" xMax="2024" yMax="1902">
      <component glyphName="W" x="0" y="0" flags="0x204"/>
      <component glyphName="acutecomb.case" x="414" y="0" flags="0x4"/>
    </TTGlyph>
    <TTGlyph name="Wcircumflex" xMin="4" yMin="0" xMax="2024" yMax="1902">
      <component glyphName="W" x="0" y="0" flags="0x204"/>
      <component glyphName="uni0302.case" x="414" y="0" flags="0x4"/>
    </TTGlyph>
    <TTGlyph name="Wdieresis" xMin="4" yMin="0" xMax="2024" yMax="1930">
      <component glyphName="W" x="0" y="0" flags="0x204"/>
      <component glyphName="uni0308.case" x="414" y="0" flags="0x4"/>
    </TTGlyph>
    <TTGlyph name="Wgrave" xMin="4" yMin="0" xMax="2024" yMax="1902">
      <component glyphName="W" x="0" y="0" flags="0x204"/>
      <component glyphName="gravecomb.case" x="414" y="0" flags="0x4"/>
    </TTGlyph>
    <TTGlyph name="X" xMin="-52" yMin="0" xMax="1332" yMax="1480">
      <contour>
        <pt x="-52" y="0" on="1"/>
        <pt x="416" y="776" on="1"/>
        <pt x="-6" y="1480" on="1"/>
        <pt x="422" y="1480" on="1"/>
        <pt x="644" y="1096" on="1"/>
        <pt x="866" y="1480" on="1"/>
        <pt x="1286" y="1480" on="1"/>
        <pt x="872" y="778" on="1"/>
        <pt x="1332" y="0" on="1"/>
        <pt x="910" y="0" on="1"/>
        <pt x="644" y="464" on="1"/>
        <pt x="376" y="0" on="1"/>
      </contour>
    </TTGlyph>
    <TTGlyph name="Y" xMin="-72" yMin="0" xMax="1252" yMax="1480">
      <contour>
        <pt x="398" y="0" on="1"/>
        <pt x="398" y="608" on="1"/>
        <pt x="-72" y="1480" on="1"/>
        <pt x="338" y="1480" on="1"/>
        <pt x="606" y="966" on="1"/>
        <pt x="876" y="1480" on="1"/>
        <pt x="1252" y="1480" on="1"/>
        <pt x="790" y="611" on="1"/>
        <pt x="790" y="0" on="1"/>
      </contour>
    </TTGlyph>
    <TTGlyph name="Yacute" xMin="-72" yMin="0" xMax="1252" yMax="1902">
      <component glyphName="Y" x="0" y="0" flags="0x204"/>
      <component glyphName="acutecomb.case" x="-4" y="0" flags="0x4"/>
    </TTGlyph>
    <TTGlyph name="Ycircumflex" xMin="-72" yMin="0" xMax="1252" yMax="1902">
      <component glyphName="Y" x="0" y="0" flags="0x204"/>
      <component glyphName="uni0302.case" x="-4" y="0" flags="0x4"/>
    </TTGlyph>
    <TTGlyph name="Ydieresis" xMin="-72" yMin="0" xMax="1252" yMax="1930">
      <component glyphName="Y" x="0" y="0" flags="0x204"/>
      <component glyphName="uni0308.case" x="-4" y="0" flags="0x4"/>
    </TTGlyph>
    <TTGlyph name="Ygrave" xMin="-72" yMin="0" xMax="1252" yMax="1902">
      <component glyphName="Y" x="0" y="0" flags="0x204"/>
      <component glyphName="gravecomb.case" x="-4" y="0" flags="0x4"/>
    </TTGlyph>
    <TTGlyph name="Z" xMin="32" yMin="0" xMax="1080" yMax="1480">
      <contour>
        <pt x="32" y="0" on="1"/>
        <pt x="32" y="220" on="1"/>
        <pt x="562" y="1134" on="1"/>
        <pt x="42" y="1134" on="1"/>
        <pt x="42" y="1480" on="1"/>
        <pt x="1070" y="1480" on="1"/>
        <pt x="1070" y="1260" on="1"/>
        <pt x="540" y="346" on="1"/>
        <pt x="1080" y="346" on="1"/>
        <pt x="1080" y="0" on="1"/>
      </contour>
    </TTGlyph>
    <TTGlyph name="Zacute" xMin="32" yMin="0" xMax="1080" yMax="1902">
      <component glyphName="Z" x="0" y="0" flags="0x204"/>
      <component glyphName="acutecomb.case" x="-42" y="0" flags="0x4"/>
    </TTGlyph>
    <TTGlyph name="Zcaron" xMin="32" yMin="0" xMax="1080" yMax="1902">
      <component glyphName="Z" x="0" y="0" flags="0x204"/>
      <component glyphName="uni030C.case" x="-42" y="0" flags="0x4"/>
    </TTGlyph>
    <TTGlyph name="Zdotaccent" xMin="32" yMin="0" xMax="1080" yMax="1930">
      <component glyphName="Z" x="0" y="0" flags="0x204"/>
      <component glyphName="uni0307.case" x="-42" y="0" flags="0x4"/>
    </TTGlyph>
    <TTGlyph name="a" xMin="30" yMin="-22" xMax="934" yMax="1118">
      <contour>
        <pt x="344" y="-22" on="1"/>
        <pt x="205" y="-22" on="0"/>
        <pt x="30" y="158" on="0"/>
        <pt x="30" y="306" on="1"/>
        <pt x="30" y="470" on="0"/>
        <pt x="231" y="655" on="0"/>
        <pt x="466" y="670" on="1"/>
        <pt x="560" y="676" on="1"/>
        <pt x="558" y="750" on="0"/>
        <pt x="479" y="812" on="0"/>
        <pt x="374" y="812" on="1"/>
        <pt x="316" y="812" on="0"/>
        <pt x="179" y="794" on="0"/>
        <pt x="116" y="776" on="1"/>
        <pt x="116" y="1080" on="1"/>
        <pt x="191" y="1098" on="0"/>
        <pt x="371" y="1118" on="0"/>
        <pt x="452" y="1118" on="1"/>
        <pt x="621" y="1118" on="0"/>
        <pt x="834" y="1028" on="0"/>
        <pt x="934" y="821" on="0"/>
        <pt x="934" y="646" on="1"/>
        <pt x="934" y="0" on="1"/>
        <pt x="622" y="0" on="1"/>
        <pt x="594" y="112" on="1"/>
        <pt x="578" y="112" on="1"/>
        <pt x="544" y="39" on="0"/>
        <pt x="421" y="-22" on="0"/>
      </contour>
      <contour>
        <pt x="404" y="350" on="1"/>
        <pt x="404" y="305" on="0"/>
        <pt x="450" y="260" on="0"/>
        <pt x="486" y="260" on="1"/>
        <pt x="504" y="260" on="0"/>
        <pt x="542" y="271" on="0"/>
        <pt x="560" y="284" on="1"/>
        <pt x="560" y="459" on="1"/>
        <pt x="514" y="456" on="1"/>
        <pt x="404" y="450" on="0"/>
      </contour>
    </TTGlyph>
    <TTGlyph name="a.sc" xMin="-6" yMin="0" xMax="1158" yMax="1190">
      <contour>
        <pt x="-6" y="0" on="1"/>
        <pt x="282" y="1190" on="1"/>
        <pt x="870" y="1190" on="1"/>
        <pt x="1158" y="0" on="1"/>
        <pt x="778" y="0" on="1"/>
        <pt x="725" y="246" on="1"/>
        <pt x="422" y="246" on="1"/>
        <pt x="370" y="0" on="1"/>
      </contour>
      <contour>
        <pt x="486" y="548" on="1"/>
        <pt x="660" y="548" on="1"/>
        <pt x="572" y="953" on="1"/>
      </contour>
    </TTGlyph>
    <TTGlyph name="aacute" xMin="30" yMin="-22" xMax="934" yMax="1616">
      <component glyphName="a" x="0" y="0" flags="0x204"/>
      <component glyphName="acutecomb" x="-98" y="0" flags="0x4"/>
    </TTGlyph>
    <TTGlyph name="aacute.sc" xMin="-6" yMin="0" xMax="1158" yMax="1612">
      <component glyphName="a.sc" x="0" y="0" flags="0x204"/>
      <component glyphName="acutecomb.sc" x="-24" y="-290" flags="0x4"/>
    </TTGlyph>
    <TTGlyph name="abreve" xMin="30" yMin="-22" xMax="934" yMax="1596">
      <component glyphName="a" x="0" y="0" flags="0x204"/>
      <component glyphName="uni0306" x="-98" y="0" flags="0x4"/>
    </TTGlyph>
    <TTGlyph name="abreve.sc" xMin="-6" yMin="0" xMax="1158" yMax="1612">
      <component glyphName="a.sc" x="0" y="0" flags="0x204"/>
      <component glyphName="uni0306.sc" x="-24" y="-290" flags="0x4"/>
    </TTGlyph>
    <TTGlyph name="acircumflex" xMin="30" yMin="-22" xMax="934" yMax="1616">
      <component glyphName="a" x="0" y="0" flags="0x204"/>
      <component glyphName="uni0302" x="-98" y="0" flags="0x4"/>
    </TTGlyph>
    <TTGlyph name="acircumflex.sc" xMin="-6" yMin="0" xMax="1158" yMax="1612">
      <component glyphName="a.sc" x="0" y="0" flags="0x204"/>
      <component glyphName="uni0302.sc" x="-24" y="-290" flags="0x4"/>
    </TTGlyph>
    <TTGlyph name="acute" xMin="432" yMin="1220" xMax="1028" yMax="1616">
      <component glyphName="acutecomb" x="0" y="0" flags="0x4"/>
    </TTGlyph>
    <TTGlyph name="acutecomb" xMin="432" yMin="1220" xMax="1028" yMax="1616">
      <contour>
        <pt x="432" y="1220" on="1"/>
        <pt x="640" y="1616" on="1"/>
        <pt x="1028" y="1616" on="1"/>
        <pt x="768" y="1220" on="1"/>
      </contour>
    </TTGlyph>
    <TTGlyph name="acutecomb.case" xMin="428" yMin="1586" xMax="990" yMax="1902">
      <contour>
        <pt x="428" y="1586" on="1"/>
        <pt x="590" y="1902" on="1"/>
        <pt x="990" y="1902" on="1"/>
        <pt x="772" y="1586" on="1"/>
      </contour>
    </TTGlyph>
    <TTGlyph name="acutecomb.sc" xMin="428" yMin="1586" xMax="990" yMax="1902">
      <component glyphName="acutecomb.case" x="0" y="0" flags="0x204"/>
    </TTGlyph>
    <TTGlyph name="adieresis" xMin="30" yMin="-22" xMax="948" yMax="1616">
      <component glyphName="a" x="0" y="0" flags="0x204"/>
      <component glyphName="uni0308" x="-98" y="0" flags="0x4"/>
    </TTGlyph>
    <TTGlyph name="adieresis.sc" xMin="-6" yMin="0" xMax="1158" yMax="1640">
      <component glyphName="a.sc" x="0" y="0" flags="0x204"/>
      <component glyphName="uni0308.sc" x="-24" y="-290" flags="0x4"/>
    </TTGlyph>
    <TTGlyph name="ae" xMin="30" yMin="-22" xMax="1464" yMax="1118">
      <contour>
        <pt x="384" y="-22" on="1"/>
        <pt x="215" y="-22" on="0"/>
        <pt x="30" y="156" on="0"/>
        <pt x="30" y="312" on="1"/>
        <pt x="30" y="467" on="0"/>
        <pt x="236" y="662" on="0"/>
        <pt x="468" y="662" on="1"/>
        <pt x="568" y="662" on="1"/>
        <pt x="567" y="747" on="0"/>
        <pt x="473" y="812" on="0"/>
        <pt x="370" y="812" on="1"/>
        <pt x="316" y="812" on="0"/>
        <pt x="181" y="794" on="0"/>
        <pt x="118" y="776" on="1"/>
        <pt x="118" y="1080" on="1"/>
        <pt x="207" y="1101" on="0"/>
        <pt x="361" y="1118" on="0"/>
        <pt x="434" y="1118" on="1"/>
        <pt x="553" y="1118" on="0"/>
        <pt x="716" y="1059" on="0"/>
        <pt x="767" y="1003" on="1"/>
        <pt x="816" y="1058" on="0"/>
        <pt x="955" y="1118" on="0"/>
        <pt x="1044" y="1118" on="1"/>
        <pt x="1236" y="1118" on="0"/>
        <pt x="1464" y="829" on="0"/>
        <pt x="1464" y="544" on="1"/>
        <pt x="1464" y="434" on="1"/>
        <pt x="935" y="434" on="1"/>
        <pt x="942" y="349" on="0"/>
        <pt x="1038" y="284" on="0"/>
        <pt x="1160" y="284" on="1"/>
        <pt x="1222" y="284" on="0"/>
        <pt x="1347" y="303" on="0"/>
        <pt x="1410" y="318" on="1"/>
        <pt x="1410" y="14" on="1"/>
        <pt x="1329" y="-4" on="0"/>
        <pt x="1189" y="-22" on="0"/>
        <pt x="1114" y="-22" on="1"/>
        <pt x="814" y="-22" on="0"/>
        <pt x="687" y="121" on="1"/>
        <pt x="625" y="37" on="0"/>
        <pt x="472" y="-22" on="0"/>
      </contour>
      <contour>
        <pt x="1022" y="870" on="1"/>
        <pt x="977" y="870" on="0"/>
        <pt x="935" y="790" on="0"/>
        <pt x="934" y="662" on="1"/>
        <pt x="1106" y="662" on="1"/>
        <pt x="1105" y="790" on="0"/>
        <pt x="1066" y="870" on="0"/>
      </contour>
      <contour>
        <pt x="492" y="262" on="1"/>
        <pt x="519" y="262" on="0"/>
        <pt x="570" y="280" on="0"/>
        <pt x="595" y="304" on="1"/>
        <pt x="578" y="368" on="0"/>
        <pt x="572" y="448" on="1"/>
        <pt x="516" y="448" on="1"/>
        <pt x="459" y="448" on="0"/>
        <pt x="404" y="393" on="0"/>
        <pt x="404" y="346" on="1"/>
        <pt x="404" y="306" on="0"/>
        <pt x="452" y="262" on="0"/>
      </contour>
    </TTGlyph>
    <TTGlyph name="ae.sc" xMin="-6" yMin="0" xMax="1576" yMax="1190">
      <contour>
        <pt x="-6" y="0" on="1"/>
        <pt x="280" y="1190" on="1"/>
        <pt x="1568" y="1190" on="1"/>
        <pt x="1568" y="888" on="1"/>
        <pt x="1068" y="888" on="1"/>
        <pt x="1080" y="754" on="1"/>
        <pt x="1476" y="754" on="1"/>
        <pt x="1476" y="452" on="1"/>
        <pt x="1107" y="452" on="1"/>
        <pt x="1120" y="302" on="1"/>
        <pt x="1576" y="302" on="1"/>
        <pt x="1576" y="0" on="1"/>
        <pt x="778" y="0" on="1"/>
        <pt x="757" y="246" on="1"/>
        <pt x="428" y="246" on="1"/>
        <pt x="376" y="0" on="1"/>
      </contour>
      <contour>
        <pt x="562" y="888" on="1"/>
        <pt x="491" y="548" on="1"/>
        <pt x="732" y="548" on="1"/>
        <pt x="703" y="888" on="1"/>
      </contour>
    </TTGlyph>
    <TTGlyph name="aeacute" xMin="30" yMin="-22" xMax="1464" yMax="1616">
      <component glyphName="ae" x="0" y="0" flags="0x204"/>
      <component glyphName="acutecomb" x="152" y="0" flags="0x4"/>
    </TTGlyph>
    <TTGlyph name="aeacute.sc" xMin="-6" yMin="0" xMax="1576" yMax="1612">
      <component glyphName="ae.sc" x="0" y="0" flags="0x204"/>
      <component glyphName="acutecomb.sc" x="248" y="-290" flags="0x4"/>
    </TTGlyph>
    <TTGlyph name="agrave" xMin="30" yMin="-22" xMax="934" yMax="1616">
      <component glyphName="a" x="0" y="0" flags="0x204"/>
      <component glyphName="gravecomb" x="-98" y="0" flags="0x4"/>
    </TTGlyph>
    <TTGlyph name="agrave.sc" xMin="-6" yMin="0" xMax="1158" yMax="1612">
      <component glyphName="a.sc" x="0" y="0" flags="0x204"/>
      <component glyphName="gravecomb.sc" x="-24" y="-290" flags="0x4"/>
    </TTGlyph>
    <TTGlyph name="amacron" xMin="30" yMin="-22" xMax="934" yMax="1542">
      <component glyphName="a" x="0" y="0" flags="0x204"/>
      <component glyphName="uni0304" x="-98" y="0" flags="0x4"/>
    </TTGlyph>
    <TTGlyph name="amacron.sc" xMin="-6" yMin="0" xMax="1158" yMax="1578">
      <component glyphName="a.sc" x="0" y="0" flags="0x204"/>
      <component glyphName="uni0304.sc" x="-24" y="-290" flags="0x4"/>
    </TTGlyph>
    <TTGlyph name="ampersand" xMin="60" yMin="-20" xMax="1502" yMax="1500">
      <contour>
        <pt x="618" y="-18" on="1"/>
        <pt x="342" y="-18" on="0"/>
        <pt x="60" y="213" on="0"/>
        <pt x="60" y="406" on="1"/>
        <pt x="60" y="531" on="0"/>
        <pt x="176" y="714" on="0"/>
        <pt x="261" y="760" on="1"/>
        <pt x="213" y="824" on="0"/>
        <pt x="174" y="954" on="0"/>
        <pt x="174" y="1024" on="1"/>
        <pt x="174" y="1245" on="0"/>
        <pt x="477" y="1500" on="0"/>
        <pt x="790" y="1500" on="1"/>
        <pt x="862" y="1500" on="0"/>
        <pt x="985" y="1487" on="0"/>
        <pt x="1040" y="1476" on="1"/>
        <pt x="1040" y="1150" on="1"/>
        <pt x="994" y="1159" on="0"/>
        <pt x="878" y="1172" on="0"/>
        <pt x="828" y="1172" on="1"/>
        <pt x="683" y="1172" on="0"/>
        <pt x="568" y="1094" on="0"/>
        <pt x="568" y="1026" on="1"/>
        <pt x="568" y="981" on="0"/>
        <pt x="611" y="916" on="0"/>
        <pt x="656" y="884" on="1"/>
        <pt x="964" y="664" on="1"/>
        <pt x="964" y="783" on="0"/>
        <pt x="936" y="906" on="1"/>
        <pt x="1250" y="906" on="1"/>
        <pt x="1278" y="782" on="0"/>
        <pt x="1278" y="666" on="1"/>
        <pt x="1278" y="552" on="0"/>
        <pt x="1256" y="455" on="1"/>
        <pt x="1502" y="280" on="1"/>
        <pt x="1296" y="-20" on="1"/>
        <pt x="1079" y="135" on="1"/>
        <pt x="908" y="-18" on="0"/>
      </contour>
      <contour>
        <pt x="450" y="454" on="1"/>
        <pt x="450" y="366" on="0"/>
        <pt x="564" y="270" on="0"/>
        <pt x="664" y="270" on="1"/>
        <pt x="710" y="270" on="0"/>
        <pt x="793" y="290" on="0"/>
        <pt x="829" y="313" on="1"/>
        <pt x="475" y="566" on="1"/>
        <pt x="450" y="517" on="0"/>
      </contour>
    </TTGlyph>
    <TTGlyph name="ampersand.sc" xMin="48" yMin="-20" xMax="1336" yMax="1206">
      <contour>
        <pt x="544" y="-14" on="1"/>
        <pt x="306" y="-14" on="0"/>
        <pt x="48" y="163" on="0"/>
        <pt x="48" y="326" on="1"/>
        <pt x="48" y="417" on="0"/>
        <pt x="139" y="566" on="0"/>
        <pt x="215" y="604" on="1"/>
        <pt x="140" y="698" on="0"/>
        <pt x="140" y="810" on="1"/>
        <pt x="140" y="1002" on="0"/>
        <pt x="428" y="1206" on="0"/>
        <pt x="698" y="1206" on="1"/>
        <pt x="821" y="1206" on="0"/>
        <pt x="924" y="1186" on="1"/>
        <pt x="924" y="880" on="1"/>
        <pt x="884" y="888" on="0"/>
        <pt x="779" y="898" on="0"/>
        <pt x="738" y="898" on="1"/>
        <pt x="623" y="898" on="0"/>
        <pt x="532" y="854" on="0"/>
        <pt x="532" y="816" on="1"/>
        <pt x="532" y="795" on="0"/>
        <pt x="550" y="770" on="0"/>
        <pt x="580" y="750" on="1"/>
        <pt x="838" y="586" on="1"/>
        <pt x="835" y="668" on="0"/>
        <pt x="816" y="754" on="1"/>
        <pt x="1120" y="754" on="1"/>
        <pt x="1142" y="653" on="0"/>
        <pt x="1142" y="566" on="1"/>
        <pt x="1142" y="478" on="0"/>
        <pt x="1126" y="402" on="1"/>
        <pt x="1336" y="268" on="1"/>
        <pt x="1138" y="-20" on="1"/>
        <pt x="945" y="103" on="1"/>
        <pt x="793" y="-14" on="0"/>
      </contour>
      <contour>
        <pt x="418" y="372" on="1"/>
        <pt x="418" y="317" on="0"/>
        <pt x="505" y="254" on="0"/>
        <pt x="592" y="254" on="1"/>
        <pt x="644" y="254" on="0"/>
        <pt x="685" y="269" on="1"/>
        <pt x="429" y="432" on="1"/>
        <pt x="418" y="403" on="0"/>
      </contour>
    </TTGlyph>
    <TTGlyph name="aogonek" xMin="30" yMin="-460" xMax="934" yMax="1118">
      <contour>
        <pt x="344" y="-22" on="1"/>
        <pt x="205" y="-22" on="0"/>
        <pt x="30" y="158" on="0"/>
        <pt x="30" y="306" on="1"/>
        <pt x="30" y="470" on="0"/>
        <pt x="231" y="655" on="0"/>
        <pt x="466" y="670" on="1"/>
        <pt x="560" y="676" on="1"/>
        <pt x="558" y="750" on="0"/>
        <pt x="479" y="812" on="0"/>
        <pt x="374" y="812" on="1"/>
        <pt x="316" y="812" on="0"/>
        <pt x="179" y="794" on="0"/>
        <pt x="116" y="776" on="1"/>
        <pt x="116" y="1080" on="1"/>
        <pt x="191" y="1098" on="0"/>
        <pt x="371" y="1118" on="0"/>
        <pt x="452" y="1118" on="1"/>
        <pt x="621" y="1118" on="0"/>
        <pt x="834" y="1028" on="0"/>
        <pt x="934" y="821" on="0"/>
        <pt x="934" y="646" on="1"/>
        <pt x="934" y="0" on="1"/>
        <pt x="840" y="-36" on="0"/>
        <pt x="743" y="-108" on="0"/>
        <pt x="708" y="-180" on="0"/>
        <pt x="708" y="-216" on="1"/>
        <pt x="708" y="-306" on="0"/>
        <pt x="816" y="-306" on="1"/>
        <pt x="865" y="-306" on="0"/>
        <pt x="934" y="-280" on="1"/>
        <pt x="934" y="-430" on="1"/>
        <pt x="900" y="-442" on="0"/>
        <pt x="820" y="-460" on="0"/>
        <pt x="764" y="-460" on="1"/>
        <pt x="629" y="-460" on="0"/>
        <pt x="492" y="-340" on="0"/>
        <pt x="492" y="-238" on="1"/>
        <pt x="492" y="-168" on="0"/>
        <pt x="556" y="-52" on="0"/>
        <pt x="638" y="0" on="1"/>
        <pt x="594" y="112" on="1"/>
        <pt x="578" y="112" on="1"/>
        <pt x="544" y="39" on="0"/>
        <pt x="421" y="-22" on="0"/>
      </contour>
      <contour>
        <pt x="404" y="350" on="1"/>
        <pt x="404" y="305" on="0"/>
        <pt x="450" y="260" on="0"/>
        <pt x="486" y="260" on="1"/>
        <pt x="504" y="260" on="0"/>
        <pt x="542" y="271" on="0"/>
        <pt x="560" y="284" on="1"/>
        <pt x="560" y="459" on="1"/>
        <pt x="514" y="456" on="1"/>
        <pt x="404" y="450" on="0"/>
      </contour>
    </TTGlyph>
    <TTGlyph name="aogonek.sc" xMin="-6" yMin="-460" xMax="1170" yMax="1190">
      <component glyphName="a.sc" x="0" y="0" flags="0x204"/>
      <component glyphName="uni0328.sc" x="642" y="0" flags="0x4"/>
    </TTGlyph>
    <TTGlyph name="approxequal" xMin="78" yMin="322" xMax="958" yMax="1198">
      <contour>
        <pt x="714" y="780" on="1"/>
        <pt x="636" y="780" on="0"/>
        <pt x="504" y="839" on="0"/>
        <pt x="381" y="898" on="0"/>
        <pt x="318" y="898" on="1"/>
        <pt x="248" y="898" on="0"/>
        <pt x="135" y="845" on="0"/>
        <pt x="78" y="788" on="1"/>
        <pt x="78" y="1096" on="1"/>
        <pt x="172" y="1198" on="0"/>
        <pt x="322" y="1198" on="1"/>
        <pt x="400" y="1198" on="0"/>
        <pt x="533" y="1139" on="0"/>
        <pt x="655" y="1080" on="0"/>
        <pt x="718" y="1080" on="1"/>
        <pt x="789" y="1080" on="0"/>
        <pt x="901" y="1133" on="0"/>
        <pt x="958" y="1190" on="1"/>
        <pt x="958" y="882" on="1"/>
        <pt x="865" y="780" on="0"/>
      </contour>
      <contour>
        <pt x="714" y="322" on="1"/>
        <pt x="636" y="322" on="0"/>
        <pt x="504" y="381" on="0"/>
        <pt x="381" y="440" on="0"/>
        <pt x="318" y="440" on="1"/>
        <pt x="248" y="440" on="0"/>
        <pt x="135" y="387" on="0"/>
        <pt x="78" y="330" on="1"/>
        <pt x="78" y="638" on="1"/>
        <pt x="172" y="740" on="0"/>
        <pt x="322" y="740" on="1"/>
        <pt x="400" y="740" on="0"/>
        <pt x="533" y="681" on="0"/>
        <pt x="655" y="622" on="0"/>
        <pt x="718" y="622" on="1"/>
        <pt x="789" y="622" on="0"/>
        <pt x="901" y="675" on="0"/>
        <pt x="958" y="732" on="1"/>
        <pt x="958" y="424" on="1"/>
        <pt x="865" y="322" on="0"/>
      </contour>
    </TTGlyph>
    <TTGlyph name="approxequal.osf" xMin="78" yMin="122" xMax="958" yMax="998">
      <contour>
        <pt x="714" y="580" on="1"/>
        <pt x="636" y="580" on="0"/>
        <pt x="504" y="639" on="0"/>
        <pt x="381" y="698" on="0"/>
        <pt x="318" y="698" on="1"/>
        <pt x="248" y="698" on="0"/>
        <pt x="135" y="645" on="0"/>
        <pt x="78" y="588" on="1"/>
        <pt x="78" y="896" on="1"/>
        <pt x="172" y="998" on="0"/>
        <pt x="322" y="998" on="1"/>
        <pt x="400" y="998" on="0"/>
        <pt x="533" y="939" on="0"/>
        <pt x="655" y="880" on="0"/>
        <pt x="718" y="880" on="1"/>
        <pt x="789" y="880" on="0"/>
        <pt x="901" y="933" on="0"/>
        <pt x="958" y="990" on="1"/>
        <pt x="958" y="682" on="1"/>
        <pt x="865" y="580" on="0"/>
      </contour>
      <contour>
        <pt x="714" y="122" on="1"/>
        <pt x="636" y="122" on="0"/>
        <pt x="504" y="181" on="0"/>
        <pt x="381" y="240" on="0"/>
        <pt x="318" y="240" on="1"/>
        <pt x="248" y="240" on="0"/>
        <pt x="135" y="187" on="0"/>
        <pt x="78" y="130" on="1"/>
        <pt x="78" y="438" on="1"/>
        <pt x="172" y="540" on="0"/>
        <pt x="322" y="540" on="1"/>
        <pt x="400" y="540" on="0"/>
        <pt x="533" y="481" on="0"/>
        <pt x="655" y="422" on="0"/>
        <pt x="718" y="422" on="1"/>
        <pt x="789" y="422" on="0"/>
        <pt x="901" y="475" on="0"/>
        <pt x="958" y="532" on="1"/>
        <pt x="958" y="224" on="1"/>
        <pt x="865" y="122" on="0"/>
      </contour>
    </TTGlyph>
    <TTGlyph name="approxequal.tf" xMin="160" yMin="322" xMax="1040" yMax="1198">
      <contour>
        <pt x="796" y="780" on="1"/>
        <pt x="718" y="780" on="0"/>
        <pt x="586" y="839" on="0"/>
        <pt x="463" y="898" on="0"/>
        <pt x="400" y="898" on="1"/>
        <pt x="330" y="898" on="0"/>
        <pt x="217" y="845" on="0"/>
        <pt x="160" y="788" on="1"/>
        <pt x="160" y="1096" on="1"/>
        <pt x="254" y="1198" on="0"/>
        <pt x="404" y="1198" on="1"/>
        <pt x="482" y="1198" on="0"/>
        <pt x="615" y="1139" on="0"/>
        <pt x="737" y="1080" on="0"/>
        <pt x="800" y="1080" on="1"/>
        <pt x="871" y="1080" on="0"/>
        <pt x="983" y="1133" on="0"/>
        <pt x="1040" y="1190" on="1"/>
        <pt x="1040" y="882" on="1"/>
        <pt x="947" y="780" on="0"/>
      </contour>
      <contour>
        <pt x="796" y="322" on="1"/>
        <pt x="718" y="322" on="0"/>
        <pt x="586" y="381" on="0"/>
        <pt x="463" y="440" on="0"/>
        <pt x="400" y="440" on="1"/>
        <pt x="330" y="440" on="0"/>
        <pt x="217" y="387" on="0"/>
        <pt x="160" y="330" on="1"/>
        <pt x="160" y="638" on="1"/>
        <pt x="254" y="740" on="0"/>
        <pt x="404" y="740" on="1"/>
        <pt x="482" y="740" on="0"/>
        <pt x="615" y="681" on="0"/>
        <pt x="737" y="622" on="0"/>
        <pt x="800" y="622" on="1"/>
        <pt x="871" y="622" on="0"/>
        <pt x="983" y="675" on="0"/>
        <pt x="1040" y="732" on="1"/>
        <pt x="1040" y="424" on="1"/>
        <pt x="947" y="322" on="0"/>
      </contour>
    </TTGlyph>
    <TTGlyph name="approxequal.tosf" xMin="160" yMin="122" xMax="1040" yMax="998">
      <contour>
        <pt x="796" y="580" on="1"/>
        <pt x="718" y="580" on="0"/>
        <pt x="586" y="639" on="0"/>
        <pt x="463" y="698" on="0"/>
        <pt x="400" y="698" on="1"/>
        <pt x="330" y="698" on="0"/>
        <pt x="217" y="645" on="0"/>
        <pt x="160" y="588" on="1"/>
        <pt x="160" y="896" on="1"/>
        <pt x="254" y="998" on="0"/>
        <pt x="404" y="998" on="1"/>
        <pt x="482" y="998" on="0"/>
        <pt x="615" y="939" on="0"/>
        <pt x="737" y="880" on="0"/>
        <pt x="800" y="880" on="1"/>
        <pt x="871" y="880" on="0"/>
        <pt x="983" y="933" on="0"/>
        <pt x="1040" y="990" on="1"/>
        <pt x="1040" y="682" on="1"/>
        <pt x="947" y="580" on="0"/>
      </contour>
      <contour>
        <pt x="796" y="122" on="1"/>
        <pt x="718" y="122" on="0"/>
        <pt x="586" y="181" on="0"/>
        <pt x="463" y="240" on="0"/>
        <pt x="400" y="240" on="1"/>
        <pt x="330" y="240" on="0"/>
        <pt x="217" y="187" on="0"/>
        <pt x="160" y="130" on="1"/>
        <pt x="160" y="438" on="1"/>
        <pt x="254" y="540" on="0"/>
        <pt x="404" y="540" on="1"/>
        <pt x="482" y="540" on="0"/>
        <pt x="615" y="481" on="0"/>
        <pt x="737" y="422" on="0"/>
        <pt x="800" y="422" on="1"/>
        <pt x="871" y="422" on="0"/>
        <pt x="983" y="475" on="0"/>
        <pt x="1040" y="532" on="1"/>
        <pt x="1040" y="224" on="1"/>
        <pt x="947" y="122" on="0"/>
      </contour>
    </TTGlyph>
    <TTGlyph name="aring" xMin="30" yMin="-22" xMax="934" yMax="1654">
      <component glyphName="a" x="0" y="0" flags="0x204"/>
      <component glyphName="uni030A" x="-98" y="0" flags="0x4"/>
    </TTGlyph>
    <TTGlyph name="aring.sc" xMin="-6" yMin="0" xMax="1158" yMax="1720">
      <component glyphName="a.sc" x="0" y="0" flags="0x204"/>
      <component glyphName="uni030A.sc" x="-24" y="-290" flags="0x4"/>
    </TTGlyph>
    <TTGlyph name="aringacute" xMin="30" yMin="-22" xMax="934" yMax="1780">
      <component glyphName="a" x="0" y="0" flags="0x204"/>
      <component glyphName="uni030A0301" x="-98" y="0" flags="0x4"/>
    </TTGlyph>
    <TTGlyph name="aringacute.sc" xMin="-6" yMin="0" xMax="1158" yMax="1846">
      <component glyphName="a.sc" x="0" y="0" flags="0x204"/>
      <component glyphName="uni030A0301.case.sc" x="-24" y="-290" flags="0x4"/>
    </TTGlyph>
    <TTGlyph name="arrowdown" xMin="78" yMin="144" xMax="1326" yMax="1376">
      <contour>
        <pt x="702" y="144" on="1"/>
        <pt x="78" y="768" on="1"/>
        <pt x="260" y="950" on="1"/>
        <pt x="552" y="658" on="1"/>
        <pt x="552" y="1376" on="1"/>
        <pt x="852" y="1376" on="1"/>
        <pt x="852" y="658" on="1"/>
        <pt x="1144" y="950" on="1"/>
        <pt x="1326" y="768" on="1"/>
      </contour>
    </TTGlyph>
    <TTGlyph name="arrowleft" xMin="78" yMin="136" xMax="1310" yMax="1384">
      <contour>
        <pt x="702" y="136" on="1"/>
        <pt x="78" y="760" on="1"/>
        <pt x="702" y="1384" on="1"/>
        <pt x="884" y="1202" on="1"/>
        <pt x="592" y="910" on="1"/>
        <pt x="1310" y="910" on="1"/>
        <pt x="1310" y="610" on="1"/>
        <pt x="592" y="610" on="1"/>
        <pt x="884" y="318" on="1"/>
      </contour>
    </TTGlyph>
    <TTGlyph name="arrowright" xMin="78" yMin="136" xMax="1310" yMax="1384">
      <contour>
        <pt x="686" y="136" on="1"/>
        <pt x="504" y="318" on="1"/>
        <pt x="796" y="610" on="1"/>
        <pt x="78" y="610" on="1"/>
        <pt x="78" y="910" on="1"/>
        <pt x="796" y="910" on="1"/>
        <pt x="504" y="1202" on="1"/>
        <pt x="686" y="1384" on="1"/>
        <pt x="1310" y="760" on="1"/>
      </contour>
    </TTGlyph>
    <TTGlyph name="arrowup" xMin="78" yMin="144" xMax="1326" yMax="1376">
      <contour>
        <pt x="552" y="144" on="1"/>
        <pt x="552" y="862" on="1"/>
        <pt x="260" y="570" on="1"/>
        <pt x="78" y="752" on="1"/>
        <pt x="702" y="1376" on="1"/>
        <pt x="1326" y="752" on="1"/>
        <pt x="1144" y="570" on="1"/>
        <pt x="852" y="862" on="1"/>
        <pt x="852" y="144" on="1"/>
      </contour>
    </TTGlyph>
    <TTGlyph name="asciicircum" xMin="54" yMin="740" xMax="1146" yMax="1480">
      <contour>
        <pt x="54" y="740" on="1"/>
        <pt x="442" y="1480" on="1"/>
        <pt x="758" y="1480" on="1"/>
        <pt x="1146" y="740" on="1"/>
        <pt x="792" y="740" on="1"/>
        <pt x="600" y="1125" on="1"/>
        <pt x="408" y="740" on="1"/>
      </contour>
    </TTGlyph>
    <TTGlyph name="asciicircum.osf" xMin="54" yMin="360" xMax="1146" yMax="1100">
      <contour>
        <pt x="54" y="360" on="1"/>
        <pt x="442" y="1100" on="1"/>
        <pt x="758" y="1100" on="1"/>
        <pt x="1146" y="360" on="1"/>
        <pt x="792" y="360" on="1"/>
        <pt x="600" y="745" on="1"/>
        <pt x="408" y="360" on="1"/>
      </contour>
    </TTGlyph>
    <TTGlyph name="asciicircum.tf" xMin="54" yMin="740" xMax="1146" yMax="1480">
      <contour>
        <pt x="54" y="740" on="1"/>
        <pt x="442" y="1480" on="1"/>
        <pt x="758" y="1480" on="1"/>
        <pt x="1146" y="740" on="1"/>
        <pt x="792" y="740" on="1"/>
        <pt x="600" y="1125" on="1"/>
        <pt x="408" y="740" on="1"/>
      </contour>
    </TTGlyph>
    <TTGlyph name="asciicircum.tosf" xMin="54" yMin="360" xMax="1146" yMax="1100">
      <contour>
        <pt x="54" y="360" on="1"/>
        <pt x="442" y="1100" on="1"/>
        <pt x="758" y="1100" on="1"/>
        <pt x="1146" y="360" on="1"/>
        <pt x="792" y="360" on="1"/>
        <pt x="600" y="745" on="1"/>
        <pt x="408" y="360" on="1"/>
      </contour>
    </TTGlyph>
    <TTGlyph name="asciitilde" xMin="78" yMin="554" xMax="958" yMax="966">
      <contour>
        <pt x="714" y="554" on="1"/>
        <pt x="636" y="554" on="0"/>
        <pt x="504" y="613" on="0"/>
        <pt x="381" y="672" on="0"/>
        <pt x="318" y="672" on="1"/>
        <pt x="249" y="672" on="0"/>
        <pt x="137" y="621" on="0"/>
        <pt x="78" y="562" on="1"/>
        <pt x="78" y="864" on="1"/>
        <pt x="172" y="966" on="0"/>
        <pt x="322" y="966" on="1"/>
        <pt x="400" y="966" on="0"/>
        <pt x="533" y="907" on="0"/>
        <pt x="655" y="848" on="0"/>
        <pt x="718" y="848" on="1"/>
        <pt x="787" y="848" on="0"/>
        <pt x="900" y="900" on="0"/>
        <pt x="958" y="958" on="1"/>
        <pt x="958" y="656" on="1"/>
        <pt x="865" y="554" on="0"/>
      </contour>
    </TTGlyph>
    <TTGlyph name="asciitilde.osf" xMin="78" yMin="354" xMax="958" yMax="766">
      <contour>
        <pt x="714" y="354" on="1"/>
        <pt x="636" y="354" on="0"/>
        <pt x="504" y="413" on="0"/>
        <pt x="381" y="472" on="0"/>
        <pt x="318" y="472" on="1"/>
        <pt x="249" y="472" on="0"/>
        <pt x="137" y="421" on="0"/>
        <pt x="78" y="362" on="1"/>
        <pt x="78" y="664" on="1"/>
        <pt x="172" y="766" on="0"/>
        <pt x="322" y="766" on="1"/>
        <pt x="400" y="766" on="0"/>
        <pt x="533" y="707" on="0"/>
        <pt x="655" y="648" on="0"/>
        <pt x="718" y="648" on="1"/>
        <pt x="787" y="648" on="0"/>
        <pt x="900" y="700" on="0"/>
        <pt x="958" y="758" on="1"/>
        <pt x="958" y="456" on="1"/>
        <pt x="865" y="354" on="0"/>
      </contour>
    </TTGlyph>
    <TTGlyph name="asciitilde.tf" xMin="160" yMin="554" xMax="1040" yMax="966">
      <contour>
        <pt x="796" y="554" on="1"/>
        <pt x="718" y="554" on="0"/>
        <pt x="586" y="613" on="0"/>
        <pt x="463" y="672" on="0"/>
        <pt x="400" y="672" on="1"/>
        <pt x="331" y="672" on="0"/>
        <pt x="219" y="621" on="0"/>
        <pt x="160" y="562" on="1"/>
        <pt x="160" y="864" on="1"/>
        <pt x="254" y="966" on="0"/>
        <pt x="404" y="966" on="1"/>
        <pt x="482" y="966" on="0"/>
        <pt x="615" y="907" on="0"/>
        <pt x="737" y="848" on="0"/>
        <pt x="800" y="848" on="1"/>
        <pt x="869" y="848" on="0"/>
        <pt x="982" y="900" on="0"/>
        <pt x="1040" y="958" on="1"/>
        <pt x="1040" y="656" on="1"/>
        <pt x="947" y="554" on="0"/>
      </contour>
    </TTGlyph>
    <TTGlyph name="asciitilde.tosf" xMin="160" yMin="354" xMax="1040" yMax="766">
      <contour>
        <pt x="796" y="354" on="1"/>
        <pt x="718" y="354" on="0"/>
        <pt x="586" y="413" on="0"/>
        <pt x="463" y="472" on="0"/>
        <pt x="400" y="472" on="1"/>
        <pt x="331" y="472" on="0"/>
        <pt x="219" y="421" on="0"/>
        <pt x="160" y="362" on="1"/>
        <pt x="160" y="664" on="1"/>
        <pt x="254" y="766" on="0"/>
        <pt x="404" y="766" on="1"/>
        <pt x="482" y="766" on="0"/>
        <pt x="615" y="707" on="0"/>
        <pt x="737" y="648" on="0"/>
        <pt x="800" y="648" on="1"/>
        <pt x="869" y="648" on="0"/>
        <pt x="982" y="700" on="0"/>
        <pt x="1040" y="758" on="1"/>
        <pt x="1040" y="456" on="1"/>
        <pt x="947" y="354" on="0"/>
      </contour>
    </TTGlyph>
    <TTGlyph name="asterisk" xMin="30" yMin="710" xMax="982" yMax="1616">
      <contour>
        <pt x="646" y="1112" on="1"/>
        <pt x="798" y="982" on="1"/>
        <pt x="882" y="866" on="1"/>
        <pt x="668" y="710" on="1"/>
        <pt x="584" y="826" on="1"/>
        <pt x="506" y="1014" on="1"/>
        <pt x="428" y="826" on="1"/>
        <pt x="344" y="710" on="1"/>
        <pt x="130" y="866" on="1"/>
        <pt x="214" y="982" on="1"/>
        <pt x="366" y="1112" on="1"/>
        <pt x="166" y="1130" on="1"/>
        <pt x="30" y="1174" on="1"/>
        <pt x="112" y="1426" on="1"/>
        <pt x="248" y="1380" on="1"/>
        <pt x="420" y="1276" on="1"/>
        <pt x="374" y="1472" on="1"/>
        <pt x="374" y="1616" on="1"/>
        <pt x="638" y="1616" on="1"/>
        <pt x="638" y="1472" on="1"/>
        <pt x="592" y="1276" on="1"/>
        <pt x="764" y="1380" on="1"/>
        <pt x="900" y="1426" on="1"/>
        <pt x="982" y="1174" on="1"/>
        <pt x="846" y="1130" on="1"/>
      </contour>
    </TTGlyph>
    <TTGlyph name="at" xMin="54" yMin="-460" xMax="1930" yMax="1498">
      <contour>
        <pt x="1034" y="-460" on="1"/>
        <pt x="723" y="-460" on="0"/>
        <pt x="285" y="-251" on="0"/>
        <pt x="54" y="183" on="0"/>
        <pt x="54" y="520" on="1"/>
        <pt x="54" y="857" on="0"/>
        <pt x="282" y="1290" on="0"/>
        <pt x="707" y="1498" on="0"/>
        <pt x="1002" y="1498" on="1"/>
        <pt x="1445" y="1498" on="0"/>
        <pt x="1930" y="1043" on="0"/>
        <pt x="1930" y="588" on="1"/>
        <pt x="1930" y="364" on="0"/>
        <pt x="1807" y="96" on="0"/>
        <pt x="1591" y="-22" on="0"/>
        <pt x="1452" y="-22" on="1"/>
        <pt x="1219" y="-22" on="0"/>
        <pt x="1120" y="132" on="1"/>
        <pt x="1102" y="132" on="1"/>
        <pt x="1077" y="44" on="0"/>
        <pt x="945" y="-22" on="0"/>
        <pt x="868" y="-22" on="1"/>
        <pt x="729" y="-22" on="0"/>
        <pt x="554" y="159" on="0"/>
        <pt x="554" y="306" on="1"/>
        <pt x="554" y="470" on="0"/>
        <pt x="755" y="653" on="0"/>
        <pt x="990" y="668" on="1"/>
        <pt x="1083" y="674" on="1"/>
        <pt x="1079" y="736" on="0"/>
        <pt x="1002" y="792" on="0"/>
        <pt x="906" y="792" on="1"/>
        <pt x="845" y="792" on="0"/>
        <pt x="708" y="768" on="0"/>
        <pt x="646" y="744" on="1"/>
        <pt x="650" y="1048" on="1"/>
        <pt x="724" y="1072" on="0"/>
        <pt x="903" y="1098" on="0"/>
        <pt x="982" y="1098" on="1"/>
        <pt x="1231" y="1098" on="0"/>
        <pt x="1458" y="891" on="0"/>
        <pt x="1458" y="636" on="1"/>
        <pt x="1458" y="344" on="1"/>
        <pt x="1458" y="292" on="0"/>
        <pt x="1497" y="246" on="0"/>
        <pt x="1530" y="246" on="1"/>
        <pt x="1569" y="246" on="0"/>
        <pt x="1624" y="296" on="0"/>
        <pt x="1653" y="440" on="0"/>
        <pt x="1652" y="580" on="1"/>
        <pt x="1651" y="820" on="0"/>
        <pt x="1514" y="1111" on="0"/>
        <pt x="1227" y="1242" on="0"/>
        <pt x="1002" y="1242" on="1"/>
        <pt x="777" y="1242" on="0"/>
        <pt x="492" y="1103" on="0"/>
        <pt x="356" y="786" on="0"/>
        <pt x="356" y="520" on="1"/>
        <pt x="356" y="254" on="0"/>
        <pt x="494" y="-64" on="0"/>
        <pt x="793" y="-204" on="0"/>
        <pt x="1034" y="-204" on="1"/>
        <pt x="1249" y="-204" on="0"/>
        <pt x="1462" y="-150" on="1"/>
        <pt x="1462" y="-406" on="1"/>
        <pt x="1252" y="-460" on="0"/>
      </contour>
      <contour>
        <pt x="928" y="354" on="1"/>
        <pt x="928" y="309" on="0"/>
        <pt x="974" y="264" on="0"/>
        <pt x="1010" y="264" on="1"/>
        <pt x="1028" y="264" on="0"/>
        <pt x="1066" y="275" on="0"/>
        <pt x="1084" y="288" on="1"/>
        <pt x="1084" y="463" on="1"/>
        <pt x="1038" y="460" on="1"/>
        <pt x="928" y="454" on="0"/>
      </contour>
    </TTGlyph>
    <TTGlyph name="atilde" xMin="30" yMin="-22" xMax="934" yMax="1588">
      <component glyphName="a" x="0" y="0" flags="0x204"/>
      <component glyphName="tildecomb" x="-98" y="0" flags="0x4"/>
    </TTGlyph>
    <TTGlyph name="atilde.sc" xMin="-6" yMin="0" xMax="1158" yMax="1612">
      <component glyphName="a.sc" x="0" y="0" flags="0x204"/>
      <component glyphName="tildecomb.sc" x="-24" y="-290" flags="0x4"/>
    </TTGlyph>
    <TTGlyph name="b" xMin="78" yMin="-21" xMax="1064" yMax="1616">
      <contour>
        <pt x="480" y="-20" on="1"/>
        <pt x="380" y="-20" on="0"/>
        <pt x="167" y="13" on="0"/>
        <pt x="78" y="46" on="1"/>
        <pt x="78" y="1616" on="1"/>
        <pt x="464" y="1616" on="1"/>
        <pt x="464" y="988" on="1"/>
        <pt x="482" y="988" on="1"/>
        <pt x="547" y="1118" on="0"/>
        <pt x="700" y="1118" on="1"/>
        <pt x="797" y="1118" on="0"/>
        <pt x="963" y="1001" on="0"/>
        <pt x="1064" y="757" on="0"/>
        <pt x="1064" y="566" on="1"/>
        <pt x="1064" y="284" on="0"/>
        <pt x="789" y="-21" on="0"/>
      </contour>
      <contour>
        <pt x="512" y="272" on="1"/>
        <pt x="590" y="272" on="0"/>
        <pt x="670" y="378" on="0"/>
        <pt x="670" y="532" on="1"/>
        <pt x="670" y="640" on="0"/>
        <pt x="637" y="753" on="0"/>
        <pt x="574" y="794" on="0"/>
        <pt x="528" y="794" on="1"/>
        <pt x="491" y="794" on="0"/>
        <pt x="464" y="782" on="1"/>
        <pt x="464" y="278" on="1"/>
        <pt x="488" y="272" on="0"/>
      </contour>
    </TTGlyph>
    <TTGlyph name="b.sc" xMin="90" yMin="-18" xMax="1100" yMax="1208">
      <contour>
        <pt x="484" y="-18" on="1"/>
        <pt x="391" y="-18" on="0"/>
        <pt x="173" y="-1" on="0"/>
        <pt x="90" y="12" on="1"/>
        <pt x="90" y="1164" on="1"/>
        <pt x="183" y="1184" on="0"/>
        <pt x="411" y="1208" on="0"/>
        <pt x="510" y="1208" on="1"/>
        <pt x="792" y="1208" on="0"/>
        <pt x="1066" y="1044" on="0"/>
        <pt x="1066" y="864" on="1"/>
        <pt x="1066" y="771" on="0"/>
        <pt x="963" y="637" on="0"/>
        <pt x="888" y="613" on="1"/>
        <pt x="974" y="592" on="0"/>
        <pt x="1100" y="465" on="0"/>
        <pt x="1100" y="340" on="1"/>
        <pt x="1100" y="165" on="0"/>
        <pt x="804" y="-18" on="0"/>
      </contour>
      <contour>
        <pt x="572" y="938" on="1"/>
        <pt x="523" y="938" on="0"/>
        <pt x="464" y="930" on="1"/>
        <pt x="464" y="744" on="1"/>
        <pt x="562" y="744" on="1"/>
        <pt x="640" y="744" on="0"/>
        <pt x="706" y="783" on="0"/>
        <pt x="706" y="840" on="1"/>
        <pt x="706" y="894" on="0"/>
        <pt x="641" y="938" on="0"/>
      </contour>
      <contour>
        <pt x="576" y="250" on="1"/>
        <pt x="666" y="250" on="0"/>
        <pt x="742" y="299" on="0"/>
        <pt x="742" y="362" on="1"/>
        <pt x="742" y="424" on="0"/>
        <pt x="663" y="468" on="0"/>
        <pt x="582" y="468" on="1"/>
        <pt x="464" y="468" on="1"/>
        <pt x="464" y="256" on="1"/>
        <pt x="503" y="253" on="0"/>
        <pt x="552" y="250" on="0"/>
      </contour>
    </TTGlyph>
    <TTGlyph name="backslash" xMin="0" yMin="-240" xMax="748" yMax="1616">
      <contour>
        <pt x="378" y="-240" on="1"/>
        <pt x="0" y="1616" on="1"/>
        <pt x="370" y="1616" on="1"/>
        <pt x="748" y="-240" on="1"/>
      </contour>
    </TTGlyph>
    <TTGlyph name="bar" xMin="88" yMin="-440" xMax="428" yMax="1616">
      <contour>
        <pt x="88" y="-440" on="1"/>
        <pt x="88" y="1616" on="1"/>
        <pt x="428" y="1616" on="1"/>
        <pt x="428" y="-440" on="1"/>
      </contour>
    </TTGlyph>
    <TTGlyph name="bar.tf" xMin="430" yMin="-440" xMax="770" yMax="1616">
      <contour>
        <pt x="430" y="-440" on="1"/>
        <pt x="430" y="1616" on="1"/>
        <pt x="770" y="1616" on="1"/>
        <pt x="770" y="-440" on="1"/>
      </contour>
    </TTGlyph>
    <TTGlyph name="braceleft" xMin="-14" yMin="-460" xMax="744" yMax="1636">
      <contour>
        <pt x="564" y="-460" on="1"/>
        <pt x="357" y="-460" on="0"/>
        <pt x="148" y="-259" on="0"/>
        <pt x="148" y="-66" on="1"/>
        <pt x="148" y="382" on="1"/>
        <pt x="148" y="427" on="0"/>
        <pt x="93" y="482" on="0"/>
        <pt x="48" y="482" on="1"/>
        <pt x="-14" y="482" on="1"/>
        <pt x="-14" y="782" on="1"/>
        <pt x="48" y="782" on="1"/>
        <pt x="93" y="782" on="0"/>
        <pt x="148" y="837" on="0"/>
        <pt x="148" y="882" on="1"/>
        <pt x="148" y="1242" on="1"/>
        <pt x="148" y="1436" on="0"/>
        <pt x="357" y="1636" on="0"/>
        <pt x="564" y="1636" on="1"/>
        <pt x="617" y="1636" on="0"/>
        <pt x="705" y="1628" on="0"/>
        <pt x="744" y="1622" on="1"/>
        <pt x="744" y="1330" on="1"/>
        <pt x="632" y="1330" on="1"/>
        <pt x="534" y="1330" on="0"/>
        <pt x="534" y="1246" on="1"/>
        <pt x="534" y="912" on="1"/>
        <pt x="534" y="805" on="0"/>
        <pt x="450" y="663" on="0"/>
        <pt x="349" y="632" on="1"/>
        <pt x="450" y="601" on="0"/>
        <pt x="534" y="459" on="0"/>
        <pt x="534" y="352" on="1"/>
        <pt x="534" y="-70" on="1"/>
        <pt x="534" y="-154" on="0"/>
        <pt x="632" y="-154" on="1"/>
        <pt x="744" y="-154" on="1"/>
        <pt x="744" y="-446" on="1"/>
        <pt x="705" y="-452" on="0"/>
        <pt x="617" y="-460" on="0"/>
      </contour>
    </TTGlyph>
    <TTGlyph name="braceleft.sc" xMin="-14" yMin="-260" xMax="744" yMax="1500">
      <contour>
        <pt x="564" y="-260" on="1"/>
        <pt x="357" y="-260" on="0"/>
        <pt x="148" y="-59" on="0"/>
        <pt x="148" y="134" on="1"/>
        <pt x="148" y="382" on="1"/>
        <pt x="148" y="427" on="0"/>
        <pt x="93" y="482" on="0"/>
        <pt x="48" y="482" on="1"/>
        <pt x="-14" y="482" on="1"/>
        <pt x="-14" y="782" on="1"/>
        <pt x="48" y="782" on="1"/>
        <pt x="93" y="782" on="0"/>
        <pt x="148" y="837" on="0"/>
        <pt x="148" y="882" on="1"/>
        <pt x="148" y="1106" on="1"/>
        <pt x="148" y="1300" on="0"/>
        <pt x="357" y="1500" on="0"/>
        <pt x="564" y="1500" on="1"/>
        <pt x="617" y="1500" on="0"/>
        <pt x="705" y="1492" on="0"/>
        <pt x="744" y="1486" on="1"/>
        <pt x="744" y="1194" on="1"/>
        <pt x="632" y="1194" on="1"/>
        <pt x="534" y="1194" on="0"/>
        <pt x="534" y="1110" on="1"/>
        <pt x="534" y="912" on="1"/>
        <pt x="534" y="805" on="0"/>
        <pt x="450" y="663" on="0"/>
        <pt x="349" y="632" on="1"/>
        <pt x="450" y="601" on="0"/>
        <pt x="534" y="459" on="0"/>
        <pt x="534" y="352" on="1"/>
        <pt x="534" y="130" on="1"/>
        <pt x="534" y="46" on="0"/>
        <pt x="632" y="46" on="1"/>
        <pt x="744" y="46" on="1"/>
        <pt x="744" y="-246" on="1"/>
        <pt x="705" y="-252" on="0"/>
        <pt x="617" y="-260" on="0"/>
      </contour>
    </TTGlyph>
    <TTGlyph name="braceright" xMin="-30" yMin="-460" xMax="728" yMax="1636">
      <contour>
        <pt x="150" y="-460" on="1"/>
        <pt x="98" y="-460" on="0"/>
        <pt x="9" y="-452" on="0"/>
        <pt x="-30" y="-446" on="1"/>
        <pt x="-30" y="-154" on="1"/>
        <pt x="82" y="-154" on="1"/>
        <pt x="180" y="-154" on="0"/>
        <pt x="180" y="-70" on="1"/>
        <pt x="180" y="352" on="1"/>
        <pt x="180" y="459" on="0"/>
        <pt x="267" y="601" on="0"/>
        <pt x="368" y="632" on="1"/>
        <pt x="267" y="663" on="0"/>
        <pt x="180" y="805" on="0"/>
        <pt x="180" y="912" on="1"/>
        <pt x="180" y="1246" on="1"/>
        <pt x="180" y="1330" on="0"/>
        <pt x="82" y="1330" on="1"/>
        <pt x="-30" y="1330" on="1"/>
        <pt x="-30" y="1622" on="1"/>
        <pt x="9" y="1628" on="0"/>
        <pt x="98" y="1636" on="0"/>
        <pt x="150" y="1636" on="1"/>
        <pt x="357" y="1636" on="0"/>
        <pt x="566" y="1436" on="0"/>
        <pt x="566" y="1242" on="1"/>
        <pt x="566" y="882" on="1"/>
        <pt x="566" y="837" on="0"/>
        <pt x="621" y="782" on="0"/>
        <pt x="666" y="782" on="1"/>
        <pt x="728" y="782" on="1"/>
        <pt x="728" y="482" on="1"/>
        <pt x="666" y="482" on="1"/>
        <pt x="621" y="482" on="0"/>
        <pt x="566" y="427" on="0"/>
        <pt x="566" y="382" on="1"/>
        <pt x="566" y="-66" on="1"/>
        <pt x="566" y="-259" on="0"/>
        <pt x="357" y="-460" on="0"/>
      </contour>
    </TTGlyph>
    <TTGlyph name="braceright.sc" xMin="-30" yMin="-260" xMax="728" yMax="1500">
      <contour>
        <pt x="150" y="-260" on="1"/>
        <pt x="98" y="-260" on="0"/>
        <pt x="9" y="-252" on="0"/>
        <pt x="-30" y="-246" on="1"/>
        <pt x="-30" y="46" on="1"/>
        <pt x="82" y="46" on="1"/>
        <pt x="180" y="46" on="0"/>
        <pt x="180" y="130" on="1"/>
        <pt x="180" y="352" on="1"/>
        <pt x="180" y="459" on="0"/>
        <pt x="264" y="601" on="0"/>
        <pt x="365" y="632" on="1"/>
        <pt x="264" y="663" on="0"/>
        <pt x="180" y="805" on="0"/>
        <pt x="180" y="912" on="1"/>
        <pt x="180" y="1110" on="1"/>
        <pt x="180" y="1194" on="0"/>
        <pt x="82" y="1194" on="1"/>
        <pt x="-30" y="1194" on="1"/>
        <pt x="-30" y="1486" on="1"/>
        <pt x="9" y="1492" on="0"/>
        <pt x="98" y="1500" on="0"/>
        <pt x="150" y="1500" on="1"/>
        <pt x="357" y="1500" on="0"/>
        <pt x="566" y="1300" on="0"/>
        <pt x="566" y="1106" on="1"/>
        <pt x="566" y="882" on="1"/>
        <pt x="566" y="837" on="0"/>
        <pt x="621" y="782" on="0"/>
        <pt x="666" y="782" on="1"/>
        <pt x="728" y="782" on="1"/>
        <pt x="728" y="482" on="1"/>
        <pt x="666" y="482" on="1"/>
        <pt x="621" y="482" on="0"/>
        <pt x="566" y="427" on="0"/>
        <pt x="566" y="382" on="1"/>
        <pt x="566" y="134" on="1"/>
        <pt x="566" y="-59" on="0"/>
        <pt x="357" y="-260" on="0"/>
      </contour>
    </TTGlyph>
    <TTGlyph name="bracketleft" xMin="108" yMin="-440" xMax="704" yMax="1616">
      <contour>
        <pt x="108" y="-440" on="1"/>
        <pt x="108" y="1616" on="1"/>
        <pt x="704" y="1616" on="1"/>
        <pt x="704" y="1316" on="1"/>
        <pt x="494" y="1316" on="1"/>
        <pt x="494" y="-140" on="1"/>
        <pt x="704" y="-140" on="1"/>
        <pt x="704" y="-440" on="1"/>
      </contour>
    </TTGlyph>
    <TTGlyph name="bracketleft.sc" xMin="108" yMin="-240" xMax="704" yMax="1480">
      <contour>
        <pt x="108" y="-240" on="1"/>
        <pt x="108" y="1480" on="1"/>
        <pt x="704" y="1480" on="1"/>
        <pt x="704" y="1180" on="1"/>
        <pt x="494" y="1180" on="1"/>
        <pt x="494" y="60" on="1"/>
        <pt x="704" y="60" on="1"/>
        <pt x="704" y="-240" on="1"/>
      </contour>
    </TTGlyph>
    <TTGlyph name="bracketright" xMin="-30" yMin="-440" xMax="566" yMax="1616">
      <contour>
        <pt x="-30" y="-440" on="1"/>
        <pt x="-30" y="-140" on="1"/>
        <pt x="180" y="-140" on="1"/>
        <pt x="180" y="1316" on="1"/>
        <pt x="-30" y="1316" on="1"/>
        <pt x="-30" y="1616" on="1"/>
        <pt x="566" y="1616" on="1"/>
        <pt x="566" y="-440" on="1"/>
      </contour>
    </TTGlyph>
    <TTGlyph name="bracketright.sc" xMin="-30" yMin="-240" xMax="566" yMax="1480">
      <contour>
        <pt x="-30" y="-240" on="1"/>
        <pt x="-30" y="60" on="1"/>
        <pt x="180" y="60" on="1"/>
        <pt x="180" y="1180" on="1"/>
        <pt x="-30" y="1180" on="1"/>
        <pt x="-30" y="1480" on="1"/>
        <pt x="566" y="1480" on="1"/>
        <pt x="566" y="-240" on="1"/>
      </contour>
    </TTGlyph>
    <TTGlyph name="breve" xMin="246" yMin="1232" xMax="954" yMax="1596">
      <component glyphName="uni0306" x="0" y="0" flags="0x4"/>
    </TTGlyph>
    <TTGlyph name="brokenbar" xMin="88" yMin="-440" xMax="428" yMax="1616">
      <contour>
        <pt x="88" y="836" on="1"/>
        <pt x="88" y="1616" on="1"/>
        <pt x="428" y="1616" on="1"/>
        <pt x="428" y="836" on="1"/>
      </contour>
      <contour>
        <pt x="88" y="-440" on="1"/>
        <pt x="88" y="340" on="1"/>
        <pt x="428" y="340" on="1"/>
        <pt x="428" y="-440" on="1"/>
      </contour>
    </TTGlyph>
    <TTGlyph name="brokenbar.tf" xMin="430" yMin="-440" xMax="770" yMax="1616">
      <contour>
        <pt x="430" y="836" on="1"/>
        <pt x="430" y="1616" on="1"/>
        <pt x="770" y="1616" on="1"/>
        <pt x="770" y="836" on="1"/>
      </contour>
      <contour>
        <pt x="430" y="-440" on="1"/>
        <pt x="430" y="340" on="1"/>
        <pt x="770" y="340" on="1"/>
        <pt x="770" y="-440" on="1"/>
      </contour>
    </TTGlyph>
    <TTGlyph name="bullet" xMin="26" yMin="210" xMax="726" yMax="910">
      <contour>
        <pt x="376" y="210" on="1"/>
        <pt x="278" y="210" on="0"/>
        <pt x="119" y="301" on="0"/>
        <pt x="26" y="459" on="0"/>
        <pt x="26" y="560" on="1"/>
        <pt x="26" y="662" on="0"/>
        <pt x="119" y="820" on="0"/>
        <pt x="278" y="910" on="0"/>
        <pt x="376" y="910" on="1"/>
        <pt x="474" y="910" on="0"/>
        <pt x="633" y="820" on="0"/>
        <pt x="726" y="662" on="0"/>
        <pt x="726" y="560" on="1"/>
        <pt x="726" y="459" on="0"/>
        <pt x="633" y="301" on="0"/>
        <pt x="474" y="210" on="0"/>
      </contour>
    </TTGlyph>
    <TTGlyph name="c" xMin="40" yMin="-22" xMax="806" yMax="1118">
      <contour>
        <pt x="566" y="-22" on="1"/>
        <pt x="314" y="-22" on="0"/>
        <pt x="40" y="256" on="0"/>
        <pt x="40" y="548" on="1"/>
        <pt x="40" y="750" on="0"/>
        <pt x="179" y="1001" on="0"/>
        <pt x="432" y="1118" on="0"/>
        <pt x="602" y="1118" on="1"/>
        <pt x="710" y="1118" on="0"/>
        <pt x="806" y="1100" on="1"/>
        <pt x="806" y="788" on="1"/>
        <pt x="776" y="793" on="0"/>
        <pt x="710" y="798" on="0"/>
        <pt x="678" y="798" on="1"/>
        <pt x="554" y="798" on="0"/>
        <pt x="442" y="686" on="0"/>
        <pt x="442" y="554" on="1"/>
        <pt x="442" y="407" on="0"/>
        <pt x="548" y="298" on="0"/>
        <pt x="654" y="298" on="1"/>
        <pt x="719" y="298" on="0"/>
        <pt x="806" y="326" on="1"/>
        <pt x="806" y="14" on="1"/>
        <pt x="751" y="-4" on="0"/>
        <pt x="625" y="-22" on="0"/>
      </contour>
    </TTGlyph>
    <TTGlyph name="c.sc" xMin="56" yMin="-16" xMax="956" yMax="1206">
      <contour>
        <pt x="698" y="-16" on="1"/>
        <pt x="394" y="-16" on="0"/>
        <pt x="56" y="274" on="0"/>
        <pt x="56" y="592" on="1"/>
        <pt x="56" y="895" on="0"/>
        <pt x="408" y="1206" on="0"/>
        <pt x="718" y="1206" on="1"/>
        <pt x="846" y="1206" on="0"/>
        <pt x="956" y="1184" on="1"/>
        <pt x="956" y="878" on="1"/>
        <pt x="911" y="886" on="0"/>
        <pt x="811" y="898" on="0"/>
        <pt x="758" y="898" on="1"/>
        <pt x="610" y="898" on="0"/>
        <pt x="464" y="762" on="0"/>
        <pt x="464" y="594" on="1"/>
        <pt x="464" y="422" on="0"/>
        <pt x="604" y="292" on="0"/>
        <pt x="758" y="292" on="1"/>
        <pt x="848" y="292" on="0"/>
        <pt x="956" y="328" on="1"/>
        <pt x="956" y="22" on="1"/>
        <pt x="908" y="4" on="0"/>
        <pt x="766" y="-16" on="0"/>
      </contour>
    </TTGlyph>
    <TTGlyph name="cacute" xMin="40" yMin="-22" xMax="886" yMax="1616">
      <component glyphName="c" x="0" y="0" flags="0x204"/>
      <component glyphName="acutecomb" x="-142" y="0" flags="0x4"/>
    </TTGlyph>
    <TTGlyph name="cacute.sc" xMin="56" yMin="-16" xMax="1012" yMax="1612">
      <component glyphName="c.sc" x="0" y="0" flags="0x204"/>
      <component glyphName="acutecomb.sc" x="22" y="-290" flags="0x4"/>
    </TTGlyph>
    <TTGlyph name="caron" xMin="246" yMin="1220" xMax="954" yMax="1616">
      <component glyphName="uni030C" x="0" y="0" flags="0x4"/>
    </TTGlyph>
    <TTGlyph name="caron.alt" xMin="568" yMin="1180" xMax="858" yMax="1616">
      <component glyphName="uni030C.alt" x="0" y="0" flags="0x4"/>
    </TTGlyph>
    <TTGlyph name="ccaron" xMin="40" yMin="-22" xMax="812" yMax="1616">
      <component glyphName="c" x="0" y="0" flags="0x204"/>
      <component glyphName="uni030C" x="-142" y="0" flags="0x4"/>
    </TTGlyph>
    <TTGlyph name="ccaron.sc" xMin="56" yMin="-16" xMax="976" yMax="1612">
      <component glyphName="c.sc" x="0" y="0" flags="0x204"/>
      <component glyphName="uni030C.sc" x="22" y="-290" flags="0x4"/>
    </TTGlyph>
    <TTGlyph name="ccedilla" xMin="40" yMin="-460" xMax="806" yMax="1118">
      <component glyphName="c" x="0" y="0" flags="0x204"/>
      <component glyphName="uni0327" x="-122" y="0" flags="0x4"/>
    </TTGlyph>
    <TTGlyph name="ccedilla.sc" xMin="56" yMin="-460" xMax="956" yMax="1206">
      <component glyphName="c.sc" x="0" y="0" flags="0x204"/>
      <component glyphName="uni0327.sc" x="20" y="0" flags="0x4"/>
    </TTGlyph>
    <TTGlyph name="ccircumflex" xMin="40" yMin="-22" xMax="812" yMax="1616">
      <component glyphName="c" x="0" y="0" flags="0x204"/>
      <component glyphName="uni0302" x="-142" y="0" flags="0x4"/>
    </TTGlyph>
    <TTGlyph name="ccircumflex.sc" xMin="56" yMin="-16" xMax="976" yMax="1612">
      <component glyphName="c.sc" x="0" y="0" flags="0x204"/>
      <component glyphName="uni0302.sc" x="22" y="-290" flags="0x4"/>
    </TTGlyph>
    <TTGlyph name="cdotaccent" xMin="40" yMin="-22" xMax="806" yMax="1626">
      <component glyphName="c" x="0" y="0" flags="0x204"/>
      <component glyphName="uni0307" x="-142" y="0" flags="0x4"/>
    </TTGlyph>
    <TTGlyph name="cdotaccent.sc" xMin="56" yMin="-16" xMax="956" yMax="1640">
      <component glyphName="c.sc" x="0" y="0" flags="0x204"/>
      <component glyphName="uni0307.sc" x="22" y="-290" flags="0x4"/>
    </TTGlyph>
    <TTGlyph name="cedilla" xMin="418" yMin="-460" xMax="864" yMax="20">
      <component glyphName="uni0327" x="0" y="0" flags="0x4"/>
    </TTGlyph>
    <TTGlyph name="cent" xMin="40" yMin="-240" xMax="806" yMax="1340">
      <contour>
        <pt x="374" y="-240" on="1"/>
        <pt x="374" y="2" on="1"/>
        <pt x="212" y="48" on="0"/>
        <pt x="40" y="317" on="0"/>
        <pt x="40" y="548" on="1"/>
        <pt x="40" y="776" on="0"/>
        <pt x="218" y="1038" on="0"/>
        <pt x="374" y="1087" on="1"/>
        <pt x="374" y="1340" on="1"/>
        <pt x="694" y="1340" on="1"/>
        <pt x="694" y="1115" on="1"/>
        <pt x="751" y="1110" on="0"/>
        <pt x="806" y="1100" on="1"/>
        <pt x="806" y="788" on="1"/>
        <pt x="776" y="793" on="0"/>
        <pt x="710" y="798" on="0"/>
        <pt x="678" y="798" on="1"/>
        <pt x="554" y="798" on="0"/>
        <pt x="442" y="686" on="0"/>
        <pt x="442" y="554" on="1"/>
        <pt x="442" y="407" on="0"/>
        <pt x="548" y="298" on="0"/>
        <pt x="654" y="298" on="1"/>
        <pt x="719" y="298" on="0"/>
        <pt x="806" y="326" on="1"/>
        <pt x="806" y="14" on="1"/>
        <pt x="755" y="-3" on="0"/>
        <pt x="694" y="-12" on="1"/>
        <pt x="694" y="-240" on="1"/>
      </contour>
    </TTGlyph>
    <TTGlyph name="cent.tf" xMin="104" yMin="-240" xMax="1094" yMax="1340">
      <contour>
        <pt x="578" y="-240" on="1"/>
        <pt x="578" y="-5" on="1"/>
        <pt x="345" y="38" on="0"/>
        <pt x="104" y="321" on="0"/>
        <pt x="104" y="546" on="1"/>
        <pt x="104" y="768" on="0"/>
        <pt x="344" y="1053" on="0"/>
        <pt x="578" y="1098" on="1"/>
        <pt x="578" y="1340" on="1"/>
        <pt x="898" y="1340" on="1"/>
        <pt x="898" y="1115" on="1"/>
        <pt x="1004" y="1107" on="0"/>
        <pt x="1094" y="1082" on="1"/>
        <pt x="1094" y="772" on="1"/>
        <pt x="1021" y="784" on="0"/>
        <pt x="899" y="798" on="0"/>
        <pt x="834" y="798" on="1"/>
        <pt x="657" y="798" on="0"/>
        <pt x="506" y="666" on="0"/>
        <pt x="506" y="546" on="1"/>
        <pt x="506" y="426" on="0"/>
        <pt x="660" y="298" on="0"/>
        <pt x="814" y="298" on="1"/>
        <pt x="877" y="298" on="0"/>
        <pt x="1001" y="317" on="0"/>
        <pt x="1094" y="338" on="1"/>
        <pt x="1094" y="26" on="1"/>
        <pt x="1055" y="12" on="0"/>
        <pt x="956" y="-10" on="0"/>
        <pt x="898" y="-16" on="1"/>
        <pt x="898" y="-240" on="1"/>
      </contour>
    </TTGlyph>
    <TTGlyph name="circumflex" xMin="246" yMin="1220" xMax="954" yMax="1616">
      <component glyphName="uni0302" x="0" y="0" flags="0x4"/>
    </TTGlyph>
    <TTGlyph name="colon" xMin="26" yMin="-20" xMax="518" yMax="1120">
      <component glyphName="period" x="0" y="0" flags="0x204"/>
      <component glyphName="period" x="0" y="656" flags="0x4"/>
    </TTGlyph>
    <TTGlyph name="colon.tf" xMin="54" yMin="-20" xMax="546" yMax="1120">
      <contour>
        <pt x="300" y="636" on="1"/>
        <pt x="192" y="636" on="0"/>
        <pt x="54" y="766" on="0"/>
        <pt x="54" y="878" on="1"/>
        <pt x="54" y="991" on="0"/>
        <pt x="189" y="1120" on="0"/>
        <pt x="300" y="1120" on="1"/>
        <pt x="411" y="1120" on="0"/>
        <pt x="546" y="988" on="0"/>
        <pt x="546" y="878" on="1"/>
        <pt x="546" y="769" on="0"/>
        <pt x="408" y="636" on="0"/>
      </contour>
      <contour>
        <pt x="300" y="-20" on="1"/>
        <pt x="192" y="-20" on="0"/>
        <pt x="54" y="110" on="0"/>
        <pt x="54" y="222" on="1"/>
        <pt x="54" y="335" on="0"/>
        <pt x="189" y="464" on="0"/>
        <pt x="300" y="464" on="1"/>
        <pt x="411" y="464" on="0"/>
        <pt x="546" y="332" on="0"/>
        <pt x="546" y="222" on="1"/>
        <pt x="546" y="113" on="0"/>
        <pt x="408" y="-20" on="0"/>
      </contour>
    </TTGlyph>
    <TTGlyph name="colonmonetary" xMin="54" yMin="-240" xMax="1068" yMax="1720">
      <contour>
        <pt x="770" y="-20" on="1"/>
        <pt x="697" y="-20" on="0"/>
        <pt x="631" y="-12" on="1"/>
        <pt x="574" y="-240" on="1"/>
        <pt x="354" y="-240" on="1"/>
        <pt x="424" y="38" on="1"/>
        <pt x="387" y="53" on="0"/>
        <pt x="353" y="73" on="1"/>
        <pt x="274" y="-240" on="1"/>
        <pt x="54" y="-240" on="1"/>
        <pt x="175" y="239" on="1"/>
        <pt x="116" y="328" on="0"/>
        <pt x="54" y="575" on="0"/>
        <pt x="54" y="736" on="1"/>
        <pt x="54" y="1027" on="0"/>
        <pt x="277" y="1383" on="0"/>
        <pt x="481" y="1453" on="1"/>
        <pt x="548" y="1720" on="1"/>
        <pt x="768" y="1720" on="1"/>
        <pt x="712" y="1497" on="1"/>
        <pt x="751" y="1500" on="0"/>
        <pt x="792" y="1500" on="1"/>
        <pt x="793" y="1500" on="1"/>
        <pt x="848" y="1720" on="1"/>
        <pt x="1068" y="1720" on="1"/>
        <pt x="1009" y="1482" on="1"/>
        <pt x="1039" y="1477" on="0"/>
        <pt x="1068" y="1470" on="1"/>
        <pt x="1068" y="1142" on="1"/>
        <pt x="1011" y="1154" on="0"/>
        <pt x="891" y="1170" on="0"/>
        <pt x="828" y="1170" on="1"/>
        <pt x="647" y="1170" on="0"/>
        <pt x="464" y="980" on="0"/>
        <pt x="464" y="740" on="1"/>
        <pt x="464" y="575" on="0"/>
        <pt x="542" y="388" on="0"/>
        <pt x="703" y="310" on="0"/>
        <pt x="828" y="310" on="1"/>
        <pt x="878" y="310" on="0"/>
        <pt x="1001" y="335" on="0"/>
        <pt x="1068" y="356" on="1"/>
        <pt x="1068" y="28" on="1"/>
        <pt x="1011" y="6" on="0"/>
        <pt x="848" y="-20" on="0"/>
      </contour>
    </TTGlyph>
    <TTGlyph name="colonmonetary.tf" xMin="102" yMin="-240" xMax="1116" yMax="1720">
      <contour>
        <pt x="102" y="-240" on="1"/>
        <pt x="223" y="239" on="1"/>
        <pt x="164" y="328" on="0"/>
        <pt x="102" y="575" on="0"/>
        <pt x="102" y="736" on="1"/>
        <pt x="102" y="1027" on="0"/>
        <pt x="325" y="1383" on="0"/>
        <pt x="529" y="1453" on="1"/>
        <pt x="596" y="1720" on="1"/>
        <pt x="816" y="1720" on="1"/>
        <pt x="760" y="1497" on="1"/>
        <pt x="799" y="1500" on="0"/>
        <pt x="840" y="1500" on="1"/>
        <pt x="841" y="1500" on="1"/>
        <pt x="896" y="1720" on="1"/>
        <pt x="1116" y="1720" on="1"/>
        <pt x="1057" y="1482" on="1"/>
        <pt x="1087" y="1477" on="0"/>
        <pt x="1116" y="1470" on="1"/>
        <pt x="1116" y="1142" on="1"/>
        <pt x="1059" y="1154" on="0"/>
        <pt x="939" y="1170" on="0"/>
        <pt x="876" y="1170" on="1"/>
        <pt x="695" y="1170" on="0"/>
        <pt x="512" y="980" on="0"/>
        <pt x="512" y="740" on="1"/>
        <pt x="512" y="575" on="0"/>
        <pt x="590" y="388" on="0"/>
        <pt x="751" y="310" on="0"/>
        <pt x="876" y="310" on="1"/>
        <pt x="926" y="310" on="0"/>
        <pt x="1049" y="335" on="0"/>
        <pt x="1116" y="356" on="1"/>
        <pt x="1116" y="28" on="1"/>
        <pt x="1059" y="6" on="0"/>
        <pt x="896" y="-20" on="0"/>
        <pt x="818" y="-20" on="1"/>
        <pt x="745" y="-20" on="0"/>
        <pt x="679" y="-12" on="1"/>
        <pt x="622" y="-240" on="1"/>
        <pt x="402" y="-240" on="1"/>
        <pt x="472" y="38" on="1"/>
        <pt x="435" y="53" on="0"/>
        <pt x="401" y="73" on="1"/>
        <pt x="322" y="-240" on="1"/>
      </contour>
    </TTGlyph>
    <TTGlyph name="comma" xMin="26" yMin="-360" xMax="518" yMax="464">
      <contour>
        <pt x="116" y="-360" on="1"/>
        <pt x="161" y="-264" on="0"/>
        <pt x="218" y="-98" on="0"/>
        <pt x="226" y="-17" on="1"/>
        <pt x="139" y="-3" on="0"/>
        <pt x="26" y="122" on="0"/>
        <pt x="26" y="222" on="1"/>
        <pt x="26" y="339" on="0"/>
        <pt x="160" y="464" on="0"/>
        <pt x="266" y="464" on="1"/>
        <pt x="518" y="464" on="0"/>
        <pt x="518" y="150" on="1"/>
        <pt x="518" y="20" on="0"/>
        <pt x="419" y="-253" on="0"/>
        <pt x="338" y="-360" on="1"/>
      </contour>
    </TTGlyph>
    <TTGlyph name="comma.tf" xMin="54" yMin="-360" xMax="546" yMax="464">
      <contour>
        <pt x="144" y="-360" on="1"/>
        <pt x="189" y="-264" on="0"/>
        <pt x="246" y="-98" on="0"/>
        <pt x="254" y="-17" on="1"/>
        <pt x="167" y="-3" on="0"/>
        <pt x="54" y="122" on="0"/>
        <pt x="54" y="222" on="1"/>
        <pt x="54" y="339" on="0"/>
        <pt x="188" y="464" on="0"/>
        <pt x="294" y="464" on="1"/>
        <pt x="546" y="464" on="0"/>
        <pt x="546" y="150" on="1"/>
        <pt x="546" y="20" on="0"/>
        <pt x="447" y="-253" on="0"/>
        <pt x="366" y="-360" on="1"/>
      </contour>
    </TTGlyph>
    <TTGlyph name="copyright" xMin="54" yMin="-22" xMax="1554" yMax="1502">
      <contour>
        <pt x="804" y="-22" on="1"/>
        <pt x="578" y="-22" on="0"/>
        <pt x="241" y="168" on="0"/>
        <pt x="54" y="511" on="0"/>
        <pt x="54" y="740" on="1"/>
        <pt x="54" y="969" on="0"/>
        <pt x="241" y="1312" on="0"/>
        <pt x="578" y="1502" on="0"/>
        <pt x="804" y="1502" on="1"/>
        <pt x="1030" y="1502" on="0"/>
        <pt x="1367" y="1312" on="0"/>
        <pt x="1554" y="969" on="0"/>
        <pt x="1554" y="740" on="1"/>
        <pt x="1554" y="511" on="0"/>
        <pt x="1367" y="168" on="0"/>
        <pt x="1030" y="-22" on="0"/>
      </contour>
      <contour>
        <pt x="804" y="190" on="1"/>
        <pt x="1058" y="190" on="0"/>
        <pt x="1332" y="485" on="0"/>
        <pt x="1332" y="740" on="1"/>
        <pt x="1332" y="995" on="0"/>
        <pt x="1058" y="1290" on="0"/>
        <pt x="804" y="1290" on="1"/>
        <pt x="551" y="1290" on="0"/>
        <pt x="276" y="995" on="0"/>
        <pt x="276" y="740" on="1"/>
        <pt x="276" y="485" on="0"/>
        <pt x="551" y="190" on="0"/>
      </contour>
      <contour>
        <pt x="874" y="324" on="1"/>
        <pt x="670" y="324" on="0"/>
        <pt x="428" y="539" on="0"/>
        <pt x="428" y="732" on="1"/>
        <pt x="428" y="927" on="0"/>
        <pt x="676" y="1144" on="0"/>
        <pt x="886" y="1144" on="1"/>
        <pt x="942" y="1144" on="0"/>
        <pt x="1036" y="1133" on="0"/>
        <pt x="1078" y="1122" on="1"/>
        <pt x="1078" y="872" on="1"/>
        <pt x="1033" y="880" on="0"/>
        <pt x="956" y="888" on="0"/>
        <pt x="914" y="888" on="1"/>
        <pt x="817" y="888" on="0"/>
        <pt x="728" y="807" on="0"/>
        <pt x="728" y="732" on="1"/>
        <pt x="728" y="580" on="0"/>
        <pt x="902" y="580" on="1"/>
        <pt x="944" y="580" on="0"/>
        <pt x="1020" y="591" on="0"/>
        <pt x="1078" y="604" on="1"/>
        <pt x="1078" y="354" on="1"/>
        <pt x="1041" y="341" on="0"/>
        <pt x="936" y="324" on="0"/>
      </contour>
    </TTGlyph>
    <TTGlyph name="currency" xMin="42" yMin="182" xMax="1158" yMax="1298">
      <contour>
        <pt x="240" y="182" on="1"/>
        <pt x="42" y="380" on="1"/>
        <pt x="140" y="476" on="1"/>
        <pt x="247" y="568" on="1"/>
        <pt x="210" y="646" on="0"/>
        <pt x="210" y="740" on="1"/>
        <pt x="210" y="833" on="0"/>
        <pt x="247" y="912" on="1"/>
        <pt x="140" y="1004" on="1"/>
        <pt x="42" y="1100" on="1"/>
        <pt x="240" y="1298" on="1"/>
        <pt x="336" y="1200" on="1"/>
        <pt x="432" y="1089" on="1"/>
        <pt x="510" y="1122" on="0"/>
        <pt x="600" y="1122" on="1"/>
        <pt x="690" y="1122" on="0"/>
        <pt x="768" y="1089" on="1"/>
        <pt x="864" y="1200" on="1"/>
        <pt x="960" y="1298" on="1"/>
        <pt x="1158" y="1100" on="1"/>
        <pt x="1060" y="1004" on="1"/>
        <pt x="953" y="912" on="1"/>
        <pt x="990" y="833" on="0"/>
        <pt x="990" y="740" on="1"/>
        <pt x="990" y="646" on="0"/>
        <pt x="953" y="568" on="1"/>
        <pt x="1060" y="476" on="1"/>
        <pt x="1158" y="380" on="1"/>
        <pt x="960" y="182" on="1"/>
        <pt x="864" y="280" on="1"/>
        <pt x="769" y="390" on="1"/>
        <pt x="691" y="356" on="0"/>
        <pt x="600" y="356" on="1"/>
        <pt x="509" y="356" on="0"/>
        <pt x="431" y="390" on="1"/>
        <pt x="336" y="280" on="1"/>
      </contour>
      <contour>
        <pt x="600" y="580" on="1"/>
        <pt x="663" y="580" on="0"/>
        <pt x="748" y="665" on="0"/>
        <pt x="748" y="740" on="1"/>
        <pt x="748" y="809" on="0"/>
        <pt x="667" y="900" on="0"/>
        <pt x="602" y="900" on="1"/>
        <pt x="538" y="900" on="0"/>
        <pt x="452" y="815" on="0"/>
        <pt x="452" y="740" on="1"/>
        <pt x="452" y="665" on="0"/>
        <pt x="537" y="580" on="0"/>
      </contour>
    </TTGlyph>
    <TTGlyph name="currency.tf" xMin="42" yMin="182" xMax="1158" yMax="1298">
      <contour>
        <pt x="240" y="182" on="1"/>
        <pt x="42" y="380" on="1"/>
        <pt x="140" y="476" on="1"/>
        <pt x="247" y="568" on="1"/>
        <pt x="210" y="646" on="0"/>
        <pt x="210" y="740" on="1"/>
        <pt x="210" y="833" on="0"/>
        <pt x="247" y="912" on="1"/>
        <pt x="140" y="1004" on="1"/>
        <pt x="42" y="1100" on="1"/>
        <pt x="240" y="1298" on="1"/>
        <pt x="336" y="1200" on="1"/>
        <pt x="432" y="1089" on="1"/>
        <pt x="510" y="1122" on="0"/>
        <pt x="600" y="1122" on="1"/>
        <pt x="690" y="1122" on="0"/>
        <pt x="768" y="1089" on="1"/>
        <pt x="864" y="1200" on="1"/>
        <pt x="960" y="1298" on="1"/>
        <pt x="1158" y="1100" on="1"/>
        <pt x="1060" y="1004" on="1"/>
        <pt x="953" y="912" on="1"/>
        <pt x="990" y="833" on="0"/>
        <pt x="990" y="740" on="1"/>
        <pt x="990" y="646" on="0"/>
        <pt x="953" y="568" on="1"/>
        <pt x="1060" y="476" on="1"/>
        <pt x="1158" y="380" on="1"/>
        <pt x="960" y="182" on="1"/>
        <pt x="864" y="280" on="1"/>
        <pt x="769" y="390" on="1"/>
        <pt x="691" y="356" on="0"/>
        <pt x="600" y="356" on="1"/>
        <pt x="509" y="356" on="0"/>
        <pt x="431" y="390" on="1"/>
        <pt x="336" y="280" on="1"/>
      </contour>
      <contour>
        <pt x="600" y="580" on="1"/>
        <pt x="663" y="580" on="0"/>
        <pt x="748" y="665" on="0"/>
        <pt x="748" y="740" on="1"/>
        <pt x="748" y="809" on="0"/>
        <pt x="667" y="900" on="0"/>
        <pt x="602" y="900" on="1"/>
        <pt x="538" y="900" on="0"/>
        <pt x="452" y="815" on="0"/>
        <pt x="452" y="740" on="1"/>
        <pt x="452" y="665" on="0"/>
        <pt x="537" y="580" on="0"/>
      </contour>
    </TTGlyph>
    <TTGlyph name="d" xMin="40" yMin="-22" xMax="1026" yMax="1616">
      <contour>
        <pt x="430" y="-22" on="1"/>
        <pt x="328" y="-22" on="0"/>
        <pt x="150" y="94" on="0"/>
        <pt x="40" y="337" on="0"/>
        <pt x="40" y="528" on="1"/>
        <pt x="40" y="810" on="0"/>
        <pt x="315" y="1116" on="0"/>
        <pt x="624" y="1116" on="1"/>
        <pt x="640" y="1116" on="1"/>
        <pt x="640" y="1616" on="1"/>
        <pt x="1026" y="1616" on="1"/>
        <pt x="1026" y="0" on="1"/>
        <pt x="700" y="0" on="1"/>
        <pt x="674" y="120" on="1"/>
        <pt x="658" y="120" on="1"/>
        <pt x="628" y="54" on="0"/>
        <pt x="514" y="-22" on="0"/>
      </contour>
      <contour>
        <pt x="564" y="300" on="1"/>
        <pt x="607" y="300" on="0"/>
        <pt x="640" y="320" on="1"/>
        <pt x="640" y="820" on="1"/>
        <pt x="628" y="822" on="0"/>
        <pt x="600" y="824" on="0"/>
        <pt x="592" y="824" on="1"/>
        <pt x="514" y="824" on="0"/>
        <pt x="434" y="718" on="0"/>
        <pt x="434" y="562" on="1"/>
        <pt x="434" y="454" on="0"/>
        <pt x="466" y="341" on="0"/>
        <pt x="524" y="300" on="0"/>
      </contour>
    </TTGlyph>
    <TTGlyph name="d.sc" xMin="90" yMin="-18" xMax="1156" yMax="1208">
      <contour>
        <pt x="440" y="-18" on="1"/>
        <pt x="355" y="-18" on="0"/>
        <pt x="170" y="-7" on="0"/>
        <pt x="90" y="2" on="1"/>
        <pt x="90" y="1162" on="1"/>
        <pt x="183" y="1183" on="0"/>
        <pt x="384" y="1208" on="0"/>
        <pt x="492" y="1208" on="1"/>
        <pt x="825" y="1208" on="0"/>
        <pt x="1156" y="909" on="0"/>
        <pt x="1156" y="594" on="1"/>
        <pt x="1156" y="281" on="0"/>
        <pt x="803" y="-18" on="0"/>
      </contour>
      <contour>
        <pt x="550" y="286" on="1"/>
        <pt x="614" y="286" on="0"/>
        <pt x="708" y="339" on="0"/>
        <pt x="760" y="473" on="0"/>
        <pt x="760" y="594" on="1"/>
        <pt x="760" y="718" on="0"/>
        <pt x="704" y="852" on="0"/>
        <pt x="605" y="904" on="0"/>
        <pt x="542" y="904" on="1"/>
        <pt x="510" y="904" on="0"/>
        <pt x="480" y="898" on="1"/>
        <pt x="480" y="288" on="1"/>
        <pt x="506" y="287" on="0"/>
        <pt x="541" y="286" on="0"/>
      </contour>
    </TTGlyph>
    <TTGlyph name="dagger" xMin="40" yMin="160" xMax="964" yMax="1616">
      <contour>
        <pt x="400" y="160" on="1"/>
        <pt x="368" y="380" on="1"/>
        <pt x="368" y="992" on="1"/>
        <pt x="400" y="1132" on="1"/>
        <pt x="180" y="1102" on="1"/>
        <pt x="40" y="1102" on="1"/>
        <pt x="40" y="1366" on="1"/>
        <pt x="180" y="1366" on="1"/>
        <pt x="400" y="1336" on="1"/>
        <pt x="368" y="1476" on="1"/>
        <pt x="368" y="1616" on="1"/>
        <pt x="636" y="1616" on="1"/>
        <pt x="636" y="1476" on="1"/>
        <pt x="604" y="1336" on="1"/>
        <pt x="824" y="1366" on="1"/>
        <pt x="964" y="1366" on="1"/>
        <pt x="964" y="1102" on="1"/>
        <pt x="824" y="1102" on="1"/>
        <pt x="604" y="1132" on="1"/>
        <pt x="636" y="992" on="1"/>
        <pt x="636" y="380" on="1"/>
        <pt x="604" y="160" on="1"/>
      </contour>
    </TTGlyph>
    <TTGlyph name="daggerdbl" xMin="40" yMin="160" xMax="964" yMax="1616">
      <contour>
        <pt x="368" y="160" on="1"/>
        <pt x="368" y="300" on="1"/>
        <pt x="400" y="440" on="1"/>
        <pt x="180" y="410" on="1"/>
        <pt x="40" y="410" on="1"/>
        <pt x="40" y="674" on="1"/>
        <pt x="180" y="674" on="1"/>
        <pt x="400" y="644" on="1"/>
        <pt x="368" y="784" on="1"/>
        <pt x="368" y="992" on="1"/>
        <pt x="400" y="1132" on="1"/>
        <pt x="180" y="1102" on="1"/>
        <pt x="40" y="1102" on="1"/>
        <pt x="40" y="1366" on="1"/>
        <pt x="180" y="1366" on="1"/>
        <pt x="400" y="1336" on="1"/>
        <pt x="368" y="1476" on="1"/>
        <pt x="368" y="1616" on="1"/>
        <pt x="636" y="1616" on="1"/>
        <pt x="636" y="1476" on="1"/>
        <pt x="604" y="1336" on="1"/>
        <pt x="824" y="1366" on="1"/>
        <pt x="964" y="1366" on="1"/>
        <pt x="964" y="1102" on="1"/>
        <pt x="824" y="1102" on="1"/>
        <pt x="604" y="1132" on="1"/>
        <pt x="636" y="992" on="1"/>
        <pt x="636" y="784" on="1"/>
        <pt x="604" y="644" on="1"/>
        <pt x="824" y="674" on="1"/>
        <pt x="964" y="674" on="1"/>
        <pt x="964" y="410" on="1"/>
        <pt x="824" y="410" on="1"/>
        <pt x="604" y="440" on="1"/>
        <pt x="636" y="300" on="1"/>
        <pt x="636" y="160" on="1"/>
      </contour>
    </TTGlyph>
    <TTGlyph name="dcaron" xMin="40" yMin="-22" xMax="1364" yMax="1616">
      <component glyphName="d" x="0" y="0" flags="0x204"/>
      <component glyphName="uni030C.alt" x="506" y="0" flags="0x4"/>
    </TTGlyph>
    <TTGlyph name="dcaron.sc" xMin="90" yMin="-18" xMax="1156" yMax="1612">
      <component glyphName="d.sc" x="0" y="0" flags="0x204"/>
      <component glyphName="uni030C.sc" x="-26" y="-290" flags="0x4"/>
    </TTGlyph>
    <TTGlyph name="dcroat" xMin="40" yMin="-22" xMax="1104" yMax="1616">
      <component glyphName="d" x="0" y="0" flags="0x204"/>
      <component glyphName="uni0335.d" x="426" y="250" flags="0x4"/>
    </TTGlyph>
    <TTGlyph name="dcroat.sc" xMin="0" yMin="-18" xMax="1156" yMax="1208">
      <component glyphName="eth.sc" x="0" y="0" flags="0x204"/>
    </TTGlyph>
    <TTGlyph name="degree" xMin="68" yMin="742" xMax="840" yMax="1500">
      <contour>
        <pt x="454" y="742" on="1"/>
        <pt x="343" y="742" on="0"/>
        <pt x="168" y="840" on="0"/>
        <pt x="68" y="1012" on="0"/>
        <pt x="68" y="1122" on="1"/>
        <pt x="68" y="1232" on="0"/>
        <pt x="168" y="1403" on="0"/>
        <pt x="343" y="1500" on="0"/>
        <pt x="454" y="1500" on="1"/>
        <pt x="565" y="1500" on="0"/>
        <pt x="740" y="1403" on="0"/>
        <pt x="840" y="1232" on="0"/>
        <pt x="840" y="1122" on="1"/>
        <pt x="840" y="1012" on="0"/>
        <pt x="740" y="840" on="0"/>
        <pt x="565" y="742" on="0"/>
      </contour>
      <contour>
        <pt x="454" y="968" on="1"/>
        <pt x="516" y="968" on="0"/>
        <pt x="598" y="1050" on="0"/>
        <pt x="598" y="1122" on="1"/>
        <pt x="598" y="1194" on="0"/>
        <pt x="514" y="1274" on="0"/>
        <pt x="454" y="1274" on="1"/>
        <pt x="394" y="1274" on="0"/>
        <pt x="310" y="1194" on="0"/>
        <pt x="310" y="1122" on="1"/>
        <pt x="310" y="1050" on="0"/>
        <pt x="393" y="968" on="0"/>
      </contour>
    </TTGlyph>
    <TTGlyph name="degree.tf" xMin="214" yMin="742" xMax="986" yMax="1500">
      <contour>
        <pt x="600" y="742" on="1"/>
        <pt x="489" y="742" on="0"/>
        <pt x="315" y="840" on="0"/>
        <pt x="214" y="1012" on="0"/>
        <pt x="214" y="1122" on="1"/>
        <pt x="214" y="1232" on="0"/>
        <pt x="315" y="1403" on="0"/>
        <pt x="489" y="1500" on="0"/>
        <pt x="600" y="1500" on="1"/>
        <pt x="711" y="1500" on="0"/>
        <pt x="886" y="1403" on="0"/>
        <pt x="986" y="1232" on="0"/>
        <pt x="986" y="1122" on="1"/>
        <pt x="986" y="1012" on="0"/>
        <pt x="886" y="840" on="0"/>
        <pt x="711" y="742" on="0"/>
      </contour>
      <contour>
        <pt x="600" y="968" on="1"/>
        <pt x="662" y="968" on="0"/>
        <pt x="744" y="1050" on="0"/>
        <pt x="744" y="1122" on="1"/>
        <pt x="744" y="1194" on="0"/>
        <pt x="660" y="1274" on="0"/>
        <pt x="600" y="1274" on="1"/>
        <pt x="540" y="1274" on="0"/>
        <pt x="456" y="1194" on="0"/>
        <pt x="456" y="1122" on="1"/>
        <pt x="456" y="1050" on="0"/>
        <pt x="539" y="968" on="0"/>
      </contour>
    </TTGlyph>
    <TTGlyph name="dieresis" xMin="154" yMin="1220" xMax="1046" yMax="1616">
      <component glyphName="uni0308" x="0" y="0" flags="0x4"/>
    </TTGlyph>
    <TTGlyph name="divide" xMin="78" yMin="146" xMax="958" yMax="1374">
      <contour>
        <pt x="518" y="950" on="1"/>
        <pt x="424" y="950" on="0"/>
        <pt x="302" y="1063" on="0"/>
        <pt x="302" y="1162" on="1"/>
        <pt x="302" y="1261" on="0"/>
        <pt x="421" y="1374" on="0"/>
        <pt x="518" y="1374" on="1"/>
        <pt x="616" y="1374" on="0"/>
        <pt x="734" y="1258" on="0"/>
        <pt x="734" y="1162" on="1"/>
        <pt x="734" y="1066" on="0"/>
        <pt x="613" y="950" on="0"/>
      </contour>
      <contour>
        <pt x="78" y="610" on="1"/>
        <pt x="78" y="910" on="1"/>
        <pt x="958" y="910" on="1"/>
        <pt x="958" y="610" on="1"/>
      </contour>
      <contour>
        <pt x="518" y="146" on="1"/>
        <pt x="424" y="146" on="0"/>
        <pt x="302" y="259" on="0"/>
        <pt x="302" y="358" on="1"/>
        <pt x="302" y="457" on="0"/>
        <pt x="421" y="570" on="0"/>
        <pt x="518" y="570" on="1"/>
        <pt x="616" y="570" on="0"/>
        <pt x="734" y="454" on="0"/>
        <pt x="734" y="358" on="1"/>
        <pt x="734" y="262" on="0"/>
        <pt x="613" y="146" on="0"/>
      </contour>
    </TTGlyph>
    <TTGlyph name="divide.osf" xMin="78" yMin="-18" xMax="958" yMax="1118">
      <contour>
        <pt x="518" y="730" on="1"/>
        <pt x="424" y="730" on="0"/>
        <pt x="302" y="839" on="0"/>
        <pt x="302" y="924" on="1"/>
        <pt x="302" y="1010" on="0"/>
        <pt x="421" y="1118" on="0"/>
        <pt x="518" y="1118" on="1"/>
        <pt x="616" y="1118" on="0"/>
        <pt x="734" y="1007" on="0"/>
        <pt x="734" y="924" on="1"/>
        <pt x="734" y="842" on="0"/>
        <pt x="613" y="730" on="0"/>
      </contour>
      <contour>
        <pt x="78" y="410" on="1"/>
        <pt x="78" y="690" on="1"/>
        <pt x="958" y="690" on="1"/>
        <pt x="958" y="410" on="1"/>
      </contour>
      <contour>
        <pt x="518" y="-18" on="1"/>
        <pt x="424" y="-18" on="0"/>
        <pt x="302" y="91" on="0"/>
        <pt x="302" y="176" on="1"/>
        <pt x="302" y="262" on="0"/>
        <pt x="421" y="370" on="0"/>
        <pt x="518" y="370" on="1"/>
        <pt x="616" y="370" on="0"/>
        <pt x="734" y="259" on="0"/>
        <pt x="734" y="176" on="1"/>
        <pt x="734" y="94" on="0"/>
        <pt x="613" y="-18" on="0"/>
      </contour>
    </TTGlyph>
    <TTGlyph name="divide.tf" xMin="160" yMin="146" xMax="1040" yMax="1374">
      <contour>
        <pt x="600" y="950" on="1"/>
        <pt x="506" y="950" on="0"/>
        <pt x="384" y="1063" on="0"/>
        <pt x="384" y="1162" on="1"/>
        <pt x="384" y="1261" on="0"/>
        <pt x="503" y="1374" on="0"/>
        <pt x="600" y="1374" on="1"/>
        <pt x="698" y="1374" on="0"/>
        <pt x="816" y="1258" on="0"/>
        <pt x="816" y="1162" on="1"/>
        <pt x="816" y="1066" on="0"/>
        <pt x="695" y="950" on="0"/>
      </contour>
      <contour>
        <pt x="160" y="610" on="1"/>
        <pt x="160" y="910" on="1"/>
        <pt x="1040" y="910" on="1"/>
        <pt x="1040" y="610" on="1"/>
      </contour>
      <contour>
        <pt x="600" y="146" on="1"/>
        <pt x="506" y="146" on="0"/>
        <pt x="384" y="259" on="0"/>
        <pt x="384" y="358" on="1"/>
        <pt x="384" y="457" on="0"/>
        <pt x="503" y="570" on="0"/>
        <pt x="600" y="570" on="1"/>
        <pt x="698" y="570" on="0"/>
        <pt x="816" y="454" on="0"/>
        <pt x="816" y="358" on="1"/>
        <pt x="816" y="262" on="0"/>
        <pt x="695" y="146" on="0"/>
      </contour>
    </TTGlyph>
    <TTGlyph name="divide.tosf" xMin="160" yMin="-18" xMax="1040" yMax="1118">
      <contour>
        <pt x="600" y="730" on="1"/>
        <pt x="506" y="730" on="0"/>
        <pt x="384" y="839" on="0"/>
        <pt x="384" y="924" on="1"/>
        <pt x="384" y="1010" on="0"/>
        <pt x="503" y="1118" on="0"/>
        <pt x="600" y="1118" on="1"/>
        <pt x="698" y="1118" on="0"/>
        <pt x="816" y="1007" on="0"/>
        <pt x="816" y="924" on="1"/>
        <pt x="816" y="842" on="0"/>
        <pt x="695" y="730" on="0"/>
      </contour>
      <contour>
        <pt x="160" y="410" on="1"/>
        <pt x="160" y="690" on="1"/>
        <pt x="1040" y="690" on="1"/>
        <pt x="1040" y="410" on="1"/>
      </contour>
      <contour>
        <pt x="600" y="-18" on="1"/>
        <pt x="506" y="-18" on="0"/>
        <pt x="384" y="91" on="0"/>
        <pt x="384" y="176" on="1"/>
        <pt x="384" y="262" on="0"/>
        <pt x="503" y="370" on="0"/>
        <pt x="600" y="370" on="1"/>
        <pt x="698" y="370" on="0"/>
        <pt x="816" y="259" on="0"/>
        <pt x="816" y="176" on="1"/>
        <pt x="816" y="94" on="0"/>
        <pt x="695" y="-18" on="0"/>
      </contour>
    </TTGlyph>
    <TTGlyph name="dollar" xMin="20" yMin="-240" xMax="1030" yMax="1720">
      <contour>
        <pt x="346" y="-240" on="1"/>
        <pt x="346" y="-16" on="1"/>
        <pt x="276" y="-11" on="0"/>
        <pt x="127" y="17" on="0"/>
        <pt x="66" y="38" on="1"/>
        <pt x="66" y="364" on="1"/>
        <pt x="149" y="340" on="0"/>
        <pt x="337" y="308" on="0"/>
        <pt x="424" y="308" on="1"/>
        <pt x="543" y="308" on="0"/>
        <pt x="636" y="371" on="0"/>
        <pt x="636" y="420" on="1"/>
        <pt x="636" y="461" on="0"/>
        <pt x="574" y="517" on="0"/>
        <pt x="476" y="550" on="1"/>
        <pt x="356" y="590" on="1"/>
        <pt x="214" y="638" on="0"/>
        <pt x="20" y="849" on="0"/>
        <pt x="20" y="1024" on="1"/>
        <pt x="20" y="1184" on="0"/>
        <pt x="180" y="1410" on="0"/>
        <pt x="346" y="1461" on="1"/>
        <pt x="346" y="1720" on="1"/>
        <pt x="706" y="1720" on="1"/>
        <pt x="706" y="1499" on="1"/>
        <pt x="772" y="1496" on="0"/>
        <pt x="897" y="1478" on="0"/>
        <pt x="948" y="1466" on="1"/>
        <pt x="948" y="1140" on="1"/>
        <pt x="888" y="1155" on="0"/>
        <pt x="744" y="1172" on="0"/>
        <pt x="682" y="1172" on="1"/>
        <pt x="574" y="1172" on="0"/>
        <pt x="458" y="1139" on="0"/>
        <pt x="414" y="1085" on="0"/>
        <pt x="414" y="1054" on="1"/>
        <pt x="414" y="1017" on="0"/>
        <pt x="466" y="967" on="0"/>
        <pt x="550" y="938" on="1"/>
        <pt x="670" y="898" on="1"/>
        <pt x="834" y="844" on="0"/>
        <pt x="1030" y="638" on="0"/>
        <pt x="1030" y="456" on="1"/>
        <pt x="1030" y="297" on="0"/>
        <pt x="863" y="71" on="0"/>
        <pt x="706" y="19" on="1"/>
        <pt x="706" y="-240" on="1"/>
      </contour>
    </TTGlyph>
    <TTGlyph name="dollar.tf" xMin="54" yMin="-240" xMax="1144" yMax="1720">
      <contour>
        <pt x="420" y="-240" on="1"/>
        <pt x="420" y="-17" on="1"/>
        <pt x="342" y="-12" on="0"/>
        <pt x="172" y="16" on="0"/>
        <pt x="104" y="38" on="1"/>
        <pt x="104" y="364" on="1"/>
        <pt x="193" y="340" on="0"/>
        <pt x="401" y="308" on="0"/>
        <pt x="510" y="308" on="1"/>
        <pt x="647" y="308" on="0"/>
        <pt x="750" y="371" on="0"/>
        <pt x="750" y="420" on="1"/>
        <pt x="750" y="447" on="0"/>
        <pt x="718" y="487" on="0"/>
        <pt x="630" y="527" on="0"/>
        <pt x="546" y="554" on="1"/>
        <pt x="416" y="596" on="1"/>
        <pt x="315" y="629" on="0"/>
        <pt x="151" y="740" on="0"/>
        <pt x="54" y="907" on="0"/>
        <pt x="54" y="1024" on="1"/>
        <pt x="54" y="1187" on="0"/>
        <pt x="234" y="1415" on="0"/>
        <pt x="420" y="1465" on="1"/>
        <pt x="420" y="1720" on="1"/>
        <pt x="780" y="1720" on="1"/>
        <pt x="780" y="1499" on="1"/>
        <pt x="855" y="1497" on="0"/>
        <pt x="997" y="1479" on="0"/>
        <pt x="1056" y="1466" on="1"/>
        <pt x="1056" y="1140" on="1"/>
        <pt x="918" y="1172" on="0"/>
        <pt x="748" y="1172" on="1"/>
        <pt x="626" y="1172" on="0"/>
        <pt x="496" y="1139" on="0"/>
        <pt x="448" y="1085" on="0"/>
        <pt x="448" y="1054" on="1"/>
        <pt x="448" y="1029" on="0"/>
        <pt x="474" y="994" on="0"/>
        <pt x="550" y="959" on="0"/>
        <pt x="626" y="934" on="1"/>
        <pt x="756" y="892" on="1"/>
        <pt x="872" y="854" on="0"/>
        <pt x="1047" y="743" on="0"/>
        <pt x="1144" y="577" on="0"/>
        <pt x="1144" y="456" on="1"/>
        <pt x="1144" y="294" on="0"/>
        <pt x="957" y="65" on="0"/>
        <pt x="780" y="15" on="1"/>
        <pt x="780" y="-240" on="1"/>
      </contour>
    </TTGlyph>
    <TTGlyph name="dong" xMin="40" yMin="-440" xMax="1104" yMax="1616">
      <contour>
        <pt x="430" y="-22" on="1"/>
        <pt x="328" y="-22" on="0"/>
        <pt x="150" y="94" on="0"/>
        <pt x="40" y="337" on="0"/>
        <pt x="40" y="528" on="1"/>
        <pt x="40" y="810" on="0"/>
        <pt x="315" y="1116" on="0"/>
        <pt x="624" y="1116" on="1"/>
        <pt x="640" y="1116" on="1"/>
        <pt x="640" y="1220" on="1"/>
        <pt x="410" y="1220" on="1"/>
        <pt x="410" y="1480" on="1"/>
        <pt x="640" y="1480" on="1"/>
        <pt x="640" y="1616" on="1"/>
        <pt x="1026" y="1616" on="1"/>
        <pt x="1026" y="1480" on="1"/>
        <pt x="1104" y="1480" on="1"/>
        <pt x="1104" y="1220" on="1"/>
        <pt x="1026" y="1220" on="1"/>
        <pt x="1026" y="0" on="1"/>
        <pt x="700" y="0" on="1"/>
        <pt x="674" y="120" on="1"/>
        <pt x="658" y="120" on="1"/>
        <pt x="628" y="54" on="0"/>
        <pt x="514" y="-22" on="0"/>
      </contour>
      <contour>
        <pt x="564" y="300" on="1"/>
        <pt x="607" y="300" on="0"/>
        <pt x="640" y="320" on="1"/>
        <pt x="640" y="820" on="1"/>
        <pt x="628" y="822" on="0"/>
        <pt x="600" y="824" on="0"/>
        <pt x="592" y="824" on="1"/>
        <pt x="514" y="824" on="0"/>
        <pt x="434" y="718" on="0"/>
        <pt x="434" y="562" on="1"/>
        <pt x="434" y="454" on="0"/>
        <pt x="466" y="341" on="0"/>
        <pt x="524" y="300" on="0"/>
      </contour>
      <contour>
        <pt x="120" y="-440" on="1"/>
        <pt x="120" y="-140" on="1"/>
        <pt x="1026" y="-140" on="1"/>
        <pt x="1026" y="-440" on="1"/>
      </contour>
    </TTGlyph>
    <TTGlyph name="dong.tf" xMin="88" yMin="-440" xMax="1152" yMax="1616">
      <contour>
        <pt x="478" y="-22" on="1"/>
        <pt x="376" y="-22" on="0"/>
        <pt x="198" y="94" on="0"/>
        <pt x="88" y="337" on="0"/>
        <pt x="88" y="528" on="1"/>
        <pt x="88" y="810" on="0"/>
        <pt x="363" y="1116" on="0"/>
        <pt x="672" y="1116" on="1"/>
        <pt x="688" y="1116" on="1"/>
        <pt x="688" y="1220" on="1"/>
        <pt x="458" y="1220" on="1"/>
        <pt x="458" y="1480" on="1"/>
        <pt x="688" y="1480" on="1"/>
        <pt x="688" y="1616" on="1"/>
        <pt x="1074" y="1616" on="1"/>
        <pt x="1074" y="1480" on="1"/>
        <pt x="1152" y="1480" on="1"/>
        <pt x="1152" y="1220" on="1"/>
        <pt x="1074" y="1220" on="1"/>
        <pt x="1074" y="0" on="1"/>
        <pt x="748" y="0" on="1"/>
        <pt x="722" y="120" on="1"/>
        <pt x="706" y="120" on="1"/>
        <pt x="676" y="54" on="0"/>
        <pt x="562" y="-22" on="0"/>
      </contour>
      <contour>
        <pt x="612" y="300" on="1"/>
        <pt x="655" y="300" on="0"/>
        <pt x="688" y="320" on="1"/>
        <pt x="688" y="820" on="1"/>
        <pt x="676" y="822" on="0"/>
        <pt x="648" y="824" on="0"/>
        <pt x="640" y="824" on="1"/>
        <pt x="562" y="824" on="0"/>
        <pt x="482" y="718" on="0"/>
        <pt x="482" y="562" on="1"/>
        <pt x="482" y="454" on="0"/>
        <pt x="514" y="341" on="0"/>
        <pt x="572" y="300" on="0"/>
      </contour>
      <contour>
        <pt x="168" y="-440" on="1"/>
        <pt x="168" y="-140" on="1"/>
        <pt x="1074" y="-140" on="1"/>
        <pt x="1074" y="-440" on="1"/>
      </contour>
    </TTGlyph>
    <TTGlyph name="dotaccent" xMin="366" yMin="1210" xMax="834" yMax="1626">
      <component glyphName="uni0307" x="0" y="0" flags="0x4"/>
    </TTGlyph>
    <TTGlyph name="dotbelowcomb" xMin="396" yMin="-500" xMax="804" yMax="-104">
      <contour>
        <pt x="600" y="-500" on="1"/>
        <pt x="507" y="-500" on="0"/>
        <pt x="396" y="-395" on="0"/>
        <pt x="396" y="-302" on="1"/>
        <pt x="396" y="-209" on="0"/>
        <pt x="507" y="-104" on="0"/>
        <pt x="600" y="-104" on="1"/>
        <pt x="693" y="-104" on="0"/>
        <pt x="804" y="-209" on="0"/>
        <pt x="804" y="-302" on="1"/>
        <pt x="804" y="-395" on="0"/>
        <pt x="693" y="-500" on="0"/>
      </contour>
    </TTGlyph>
    <TTGlyph name="dotbelowcomb.case" xMin="364" yMin="-464" xMax="836" yMax="-104">
      <contour>
        <pt x="600" y="-464" on="1"/>
        <pt x="491" y="-464" on="0"/>
        <pt x="364" y="-375" on="0"/>
        <pt x="364" y="-284" on="1"/>
        <pt x="364" y="-192" on="0"/>
        <pt x="491" y="-104" on="0"/>
        <pt x="600" y="-104" on="1"/>
        <pt x="710" y="-104" on="0"/>
        <pt x="836" y="-192" on="0"/>
        <pt x="836" y="-284" on="1"/>
        <pt x="836" y="-375" on="0"/>
        <pt x="710" y="-464" on="0"/>
      </contour>
    </TTGlyph>
    <TTGlyph name="dotbelowcomb.sc" xMin="364" yMin="-464" xMax="836" yMax="-104">
      <component glyphName="dotbelowcomb.case" x="0" y="0" flags="0x204"/>
    </TTGlyph>
    <TTGlyph name="dotlessi" xMin="78" yMin="0" xMax="466" yMax="1100">
      <contour>
        <pt x="78" y="0" on="1"/>
        <pt x="78" y="1100" on="1"/>
        <pt x="466" y="1100" on="1"/>
        <pt x="466" y="0" on="1"/>
      </contour>
    </TTGlyph>
    <TTGlyph name="e" xMin="40" yMin="-22" xMax="968" yMax="1118">
      <contour>
        <pt x="614" y="-22" on="1"/>
        <pt x="308" y="-22" on="0"/>
        <pt x="40" y="252" on="0"/>
        <pt x="40" y="556" on="1"/>
        <pt x="40" y="822" on="0"/>
        <pt x="287" y="1118" on="0"/>
        <pt x="524" y="1118" on="1"/>
        <pt x="746" y="1118" on="0"/>
        <pt x="968" y="819" on="0"/>
        <pt x="968" y="544" on="1"/>
        <pt x="968" y="434" on="1"/>
        <pt x="431" y="434" on="1"/>
        <pt x="438" y="349" on="0"/>
        <pt x="536" y="284" on="0"/>
        <pt x="664" y="284" on="1"/>
        <pt x="726" y="284" on="0"/>
        <pt x="851" y="303" on="0"/>
        <pt x="914" y="318" on="1"/>
        <pt x="914" y="14" on="1"/>
        <pt x="833" y="-4" on="0"/>
        <pt x="692" y="-22" on="0"/>
      </contour>
      <contour>
        <pt x="522" y="870" on="1"/>
        <pt x="474" y="870" on="0"/>
        <pt x="431" y="790" on="0"/>
        <pt x="430" y="662" on="1"/>
        <pt x="610" y="662" on="1"/>
        <pt x="609" y="790" on="0"/>
        <pt x="569" y="870" on="0"/>
      </contour>
    </TTGlyph>
    <TTGlyph name="e.sc" xMin="90" yMin="0" xMax="968" yMax="1190">
      <contour>
        <pt x="90" y="0" on="1"/>
        <pt x="90" y="1190" on="1"/>
        <pt x="960" y="1190" on="1"/>
        <pt x="960" y="888" on="1"/>
        <pt x="474" y="888" on="1"/>
        <pt x="474" y="754" on="1"/>
        <pt x="870" y="754" on="1"/>
        <pt x="870" y="452" on="1"/>
        <pt x="474" y="452" on="1"/>
        <pt x="474" y="302" on="1"/>
        <pt x="968" y="302" on="1"/>
        <pt x="968" y="0" on="1"/>
      </contour>
    </TTGlyph>
    <TTGlyph name="eacute" xMin="40" yMin="-22" xMax="968" yMax="1616">
      <component glyphName="e" x="0" y="0" flags="0x204"/>
      <component glyphName="acutecomb" x="-86" y="0" flags="0x4"/>
    </TTGlyph>
    <TTGlyph name="eacute.sc" xMin="90" yMin="0" xMax="968" yMax="1612">
      <component glyphName="e.sc" x="0" y="0" flags="0x204"/>
      <component glyphName="acutecomb.sc" x="-56" y="-290" flags="0x4"/>
    </TTGlyph>
    <TTGlyph name="ebreve" xMin="40" yMin="-22" xMax="968" yMax="1596">
      <component glyphName="e" x="0" y="0" flags="0x204"/>
      <component glyphName="uni0306" x="-86" y="0" flags="0x4"/>
    </TTGlyph>
    <TTGlyph name="ebreve.sc" xMin="90" yMin="0" xMax="968" yMax="1612">
      <component glyphName="e.sc" x="0" y="0" flags="0x204"/>
      <component glyphName="uni0306.sc" x="-56" y="-290" flags="0x4"/>
    </TTGlyph>
    <TTGlyph name="ecaron" xMin="40" yMin="-22" xMax="968" yMax="1616">
      <component glyphName="e" x="0" y="0" flags="0x204"/>
      <component glyphName="uni030C" x="-86" y="0" flags="0x4"/>
    </TTGlyph>
    <TTGlyph name="ecaron.sc" xMin="90" yMin="0" xMax="968" yMax="1612">
      <component glyphName="e.sc" x="0" y="0" flags="0x204"/>
      <component glyphName="uni030C.sc" x="-56" y="-290" flags="0x4"/>
    </TTGlyph>
    <TTGlyph name="ecircumflex" xMin="40" yMin="-22" xMax="968" yMax="1616">
      <component glyphName="e" x="0" y="0" flags="0x204"/>
      <component glyphName="uni0302" x="-86" y="0" flags="0x4"/>
    </TTGlyph>
    <TTGlyph name="ecircumflex.sc" xMin="90" yMin="0" xMax="968" yMax="1612">
      <component glyphName="e.sc" x="0" y="0" flags="0x204"/>
      <component glyphName="uni0302.sc" x="-56" y="-290" flags="0x4"/>
    </TTGlyph>
    <TTGlyph name="edieresis" xMin="40" yMin="-22" xMax="968" yMax="1616">
      <component glyphName="e" x="0" y="0" flags="0x204"/>
      <component glyphName="uni0308" x="-86" y="0" flags="0x4"/>
    </TTGlyph>
    <TTGlyph name="edieresis.sc" xMin="86" yMin="0" xMax="1002" yMax="1640">
      <component glyphName="e.sc" x="0" y="0" flags="0x204"/>
      <component glyphName="uni0308.sc" x="-56" y="-290" flags="0x4"/>
    </TTGlyph>
    <TTGlyph name="edotaccent" xMin="40" yMin="-22" xMax="968" yMax="1626">
      <component glyphName="e" x="0" y="0" flags="0x204"/>
      <component glyphName="uni0307" x="-86" y="0" flags="0x4"/>
    </TTGlyph>
    <TTGlyph name="edotaccent.sc" xMin="90" yMin="0" xMax="968" yMax="1640">
      <component glyphName="e.sc" x="0" y="0" flags="0x204"/>
      <component glyphName="uni0307.sc" x="-56" y="-290" flags="0x4"/>
    </TTGlyph>
    <TTGlyph name="egrave" xMin="40" yMin="-22" xMax="968" yMax="1616">
      <component glyphName="e" x="0" y="0" flags="0x204"/>
      <component glyphName="gravecomb" x="-86" y="0" flags="0x4"/>
    </TTGlyph>
    <TTGlyph name="egrave.sc" xMin="90" yMin="0" xMax="968" yMax="1612">
      <component glyphName="e.sc" x="0" y="0" flags="0x204"/>
      <component glyphName="gravecomb.sc" x="-56" y="-290" flags="0x4"/>
    </TTGlyph>
    <TTGlyph name="eight" xMin="54" yMin="-20" xMax="1164" yMax="1500">
      <contour>
        <pt x="612" y="-20" on="1"/>
        <pt x="335" y="-20" on="0"/>
        <pt x="54" y="206" on="0"/>
        <pt x="54" y="378" on="1"/>
        <pt x="54" y="482" on="0"/>
        <pt x="169" y="656" on="0"/>
        <pt x="285" y="715" on="1"/>
        <pt x="176" y="788" on="0"/>
        <pt x="86" y="969" on="0"/>
        <pt x="86" y="1080" on="1"/>
        <pt x="86" y="1271" on="0"/>
        <pt x="368" y="1500" on="0"/>
        <pt x="626" y="1500" on="1"/>
        <pt x="857" y="1500" on="0"/>
        <pt x="1130" y="1295" on="0"/>
        <pt x="1130" y="1118" on="1"/>
        <pt x="1130" y="1028" on="0"/>
        <pt x="1046" y="857" on="0"/>
        <pt x="939" y="788" on="1"/>
        <pt x="1066" y="714" on="0"/>
        <pt x="1164" y="535" on="0"/>
        <pt x="1164" y="412" on="1"/>
        <pt x="1164" y="284" on="0"/>
        <pt x="1032" y="89" on="0"/>
        <pt x="785" y="-20" on="0"/>
      </contour>
      <contour>
        <pt x="456" y="1092" on="1"/>
        <pt x="456" y="1051" on="0"/>
        <pt x="492" y="990" on="0"/>
        <pt x="594" y="932" on="0"/>
        <pt x="695" y="895" on="1"/>
        <pt x="749" y="938" on="0"/>
        <pt x="798" y="1032" on="0"/>
        <pt x="798" y="1088" on="1"/>
        <pt x="798" y="1154" on="0"/>
        <pt x="710" y="1222" on="0"/>
        <pt x="630" y="1222" on="1"/>
        <pt x="546" y="1222" on="0"/>
        <pt x="456" y="1149" on="0"/>
      </contour>
      <contour>
        <pt x="418" y="412" on="1"/>
        <pt x="418" y="339" on="0"/>
        <pt x="516" y="258" on="0"/>
        <pt x="612" y="258" on="1"/>
        <pt x="710" y="258" on="0"/>
        <pt x="800" y="331" on="0"/>
        <pt x="800" y="394" on="1"/>
        <pt x="800" y="439" on="0"/>
        <pt x="755" y="505" on="0"/>
        <pt x="640" y="565" on="0"/>
        <pt x="534" y="600" on="1"/>
        <pt x="528" y="602" on="1"/>
        <pt x="472" y="565" on="0"/>
        <pt x="418" y="461" on="0"/>
      </contour>
    </TTGlyph>
    <TTGlyph name="eight.dnom" xMin="30" yMin="-150" xMax="788" yMax="878">
      <contour>
        <pt x="410" y="-150" on="1"/>
        <pt x="220" y="-150" on="0"/>
        <pt x="30" y="5" on="0"/>
        <pt x="30" y="120" on="1"/>
        <pt x="30" y="263" on="0"/>
        <pt x="179" y="342" on="1"/>
        <pt x="108" y="392" on="0"/>
        <pt x="50" y="516" on="0"/>
        <pt x="50" y="590" on="1"/>
        <pt x="50" y="721" on="0"/>
        <pt x="244" y="878" on="0"/>
        <pt x="424" y="878" on="1"/>
        <pt x="588" y="878" on="0"/>
        <pt x="766" y="738" on="0"/>
        <pt x="766" y="618" on="1"/>
        <pt x="766" y="559" on="0"/>
        <pt x="716" y="447" on="0"/>
        <pt x="647" y="399" on="1"/>
        <pt x="727" y="349" on="0"/>
        <pt x="788" y="229" on="0"/>
        <pt x="788" y="148" on="1"/>
        <pt x="788" y="16" on="0"/>
        <pt x="589" y="-150" on="0"/>
      </contour>
      <contour>
        <pt x="326" y="598" on="1"/>
        <pt x="326" y="564" on="0"/>
        <pt x="377" y="518" on="0"/>
        <pt x="463" y="483" on="1"/>
        <pt x="512" y="537" on="0"/>
        <pt x="512" y="596" on="1"/>
        <pt x="512" y="674" on="0"/>
        <pt x="422" y="674" on="1"/>
        <pt x="377" y="674" on="0"/>
        <pt x="326" y="633" on="0"/>
      </contour>
      <contour>
        <pt x="304" y="146" on="1"/>
        <pt x="304" y="54" on="0"/>
        <pt x="412" y="54" on="1"/>
        <pt x="466" y="54" on="0"/>
        <pt x="512" y="97" on="0"/>
        <pt x="512" y="134" on="1"/>
        <pt x="512" y="173" on="0"/>
        <pt x="448" y="226" on="0"/>
        <pt x="359" y="257" on="1"/>
        <pt x="330" y="233" on="0"/>
        <pt x="304" y="172" on="0"/>
      </contour>
    </TTGlyph>
    <TTGlyph name="eight.numr" xMin="30" yMin="602" xMax="788" yMax="1630">
      <contour>
        <pt x="410" y="602" on="1"/>
        <pt x="220" y="602" on="0"/>
        <pt x="30" y="757" on="0"/>
        <pt x="30" y="872" on="1"/>
        <pt x="30" y="1015" on="0"/>
        <pt x="179" y="1094" on="1"/>
        <pt x="108" y="1144" on="0"/>
        <pt x="50" y="1268" on="0"/>
        <pt x="50" y="1342" on="1"/>
        <pt x="50" y="1473" on="0"/>
        <pt x="244" y="1630" on="0"/>
        <pt x="424" y="1630" on="1"/>
        <pt x="588" y="1630" on="0"/>
        <pt x="766" y="1490" on="0"/>
        <pt x="766" y="1370" on="1"/>
        <pt x="766" y="1311" on="0"/>
        <pt x="716" y="1199" on="0"/>
        <pt x="647" y="1151" on="1"/>
        <pt x="727" y="1101" on="0"/>
        <pt x="788" y="981" on="0"/>
        <pt x="788" y="900" on="1"/>
        <pt x="788" y="768" on="0"/>
        <pt x="589" y="602" on="0"/>
      </contour>
      <contour>
        <pt x="326" y="1350" on="1"/>
        <pt x="326" y="1316" on="0"/>
        <pt x="377" y="1270" on="0"/>
        <pt x="463" y="1235" on="1"/>
        <pt x="512" y="1289" on="0"/>
        <pt x="512" y="1348" on="1"/>
        <pt x="512" y="1426" on="0"/>
        <pt x="422" y="1426" on="1"/>
        <pt x="377" y="1426" on="0"/>
        <pt x="326" y="1385" on="0"/>
      </contour>
      <contour>
        <pt x="304" y="898" on="1"/>
        <pt x="304" y="806" on="0"/>
        <pt x="412" y="806" on="1"/>
        <pt x="466" y="806" on="0"/>
        <pt x="512" y="849" on="0"/>
        <pt x="512" y="886" on="1"/>
        <pt x="512" y="925" on="0"/>
        <pt x="448" y="978" on="0"/>
        <pt x="359" y="1009" on="1"/>
        <pt x="330" y="985" on="0"/>
        <pt x="304" y="924" on="0"/>
      </contour>
    </TTGlyph>
    <TTGlyph name="eight.osf" xMin="58" yMin="-20" xMax="1168" yMax="1500">
      <contour>
        <pt x="616" y="-20" on="1"/>
        <pt x="339" y="-20" on="0"/>
        <pt x="58" y="206" on="0"/>
        <pt x="58" y="378" on="1"/>
        <pt x="58" y="482" on="0"/>
        <pt x="173" y="656" on="0"/>
        <pt x="289" y="715" on="1"/>
        <pt x="180" y="788" on="0"/>
        <pt x="90" y="969" on="0"/>
        <pt x="90" y="1080" on="1"/>
        <pt x="90" y="1271" on="0"/>
        <pt x="372" y="1500" on="0"/>
        <pt x="630" y="1500" on="1"/>
        <pt x="861" y="1500" on="0"/>
        <pt x="1134" y="1295" on="0"/>
        <pt x="1134" y="1118" on="1"/>
        <pt x="1134" y="1028" on="0"/>
        <pt x="1050" y="857" on="0"/>
        <pt x="943" y="788" on="1"/>
        <pt x="1070" y="714" on="0"/>
        <pt x="1168" y="535" on="0"/>
        <pt x="1168" y="412" on="1"/>
        <pt x="1168" y="284" on="0"/>
        <pt x="1036" y="89" on="0"/>
        <pt x="789" y="-20" on="0"/>
      </contour>
      <contour>
        <pt x="460" y="1092" on="1"/>
        <pt x="460" y="1051" on="0"/>
        <pt x="496" y="990" on="0"/>
        <pt x="598" y="932" on="0"/>
        <pt x="699" y="895" on="1"/>
        <pt x="753" y="938" on="0"/>
        <pt x="802" y="1032" on="0"/>
        <pt x="802" y="1088" on="1"/>
        <pt x="802" y="1154" on="0"/>
        <pt x="714" y="1222" on="0"/>
        <pt x="634" y="1222" on="1"/>
        <pt x="550" y="1222" on="0"/>
        <pt x="460" y="1149" on="0"/>
      </contour>
      <contour>
        <pt x="422" y="412" on="1"/>
        <pt x="422" y="339" on="0"/>
        <pt x="520" y="258" on="0"/>
        <pt x="616" y="258" on="1"/>
        <pt x="714" y="258" on="0"/>
        <pt x="804" y="331" on="0"/>
        <pt x="804" y="394" on="1"/>
        <pt x="804" y="439" on="0"/>
        <pt x="759" y="505" on="0"/>
        <pt x="644" y="565" on="0"/>
        <pt x="538" y="600" on="1"/>
        <pt x="532" y="602" on="1"/>
        <pt x="476" y="565" on="0"/>
        <pt x="422" y="461" on="0"/>
      </contour>
    </TTGlyph>
    <TTGlyph name="eight.tf" xMin="54" yMin="-20" xMax="1144" yMax="1500">
      <contour>
        <pt x="602" y="-20" on="1"/>
        <pt x="329" y="-20" on="0"/>
        <pt x="54" y="205" on="0"/>
        <pt x="54" y="378" on="1"/>
        <pt x="54" y="482" on="0"/>
        <pt x="167" y="656" on="0"/>
        <pt x="281" y="715" on="1"/>
        <pt x="174" y="788" on="0"/>
        <pt x="86" y="970" on="0"/>
        <pt x="86" y="1080" on="1"/>
        <pt x="86" y="1271" on="0"/>
        <pt x="363" y="1500" on="0"/>
        <pt x="616" y="1500" on="1"/>
        <pt x="843" y="1500" on="0"/>
        <pt x="1110" y="1295" on="0"/>
        <pt x="1110" y="1118" on="1"/>
        <pt x="1110" y="1028" on="0"/>
        <pt x="1029" y="857" on="0"/>
        <pt x="924" y="788" on="1"/>
        <pt x="1048" y="714" on="0"/>
        <pt x="1144" y="535" on="0"/>
        <pt x="1144" y="412" on="1"/>
        <pt x="1144" y="284" on="0"/>
        <pt x="1015" y="89" on="0"/>
        <pt x="772" y="-20" on="0"/>
      </contour>
      <contour>
        <pt x="456" y="1092" on="1"/>
        <pt x="456" y="1051" on="0"/>
        <pt x="488" y="991" on="0"/>
        <pt x="584" y="933" on="0"/>
        <pt x="681" y="896" on="1"/>
        <pt x="729" y="939" on="0"/>
        <pt x="778" y="1032" on="0"/>
        <pt x="778" y="1088" on="1"/>
        <pt x="778" y="1154" on="0"/>
        <pt x="695" y="1222" on="0"/>
        <pt x="620" y="1222" on="1"/>
        <pt x="541" y="1222" on="0"/>
        <pt x="456" y="1149" on="0"/>
      </contour>
      <contour>
        <pt x="418" y="412" on="1"/>
        <pt x="418" y="339" on="0"/>
        <pt x="511" y="258" on="0"/>
        <pt x="602" y="258" on="1"/>
        <pt x="692" y="258" on="0"/>
        <pt x="778" y="331" on="0"/>
        <pt x="778" y="394" on="1"/>
        <pt x="778" y="439" on="0"/>
        <pt x="736" y="506" on="0"/>
        <pt x="627" y="566" on="0"/>
        <pt x="526" y="600" on="1"/>
        <pt x="521" y="602" on="1"/>
        <pt x="468" y="565" on="0"/>
        <pt x="418" y="461" on="0"/>
      </contour>
    </TTGlyph>
    <TTGlyph name="eight.tosf" xMin="54" yMin="-20" xMax="1144" yMax="1500">
      <contour>
        <pt x="602" y="-20" on="1"/>
        <pt x="329" y="-20" on="0"/>
        <pt x="54" y="205" on="0"/>
        <pt x="54" y="378" on="1"/>
        <pt x="54" y="482" on="0"/>
        <pt x="167" y="656" on="0"/>
        <pt x="281" y="715" on="1"/>
        <pt x="174" y="788" on="0"/>
        <pt x="86" y="970" on="0"/>
        <pt x="86" y="1080" on="1"/>
        <pt x="86" y="1271" on="0"/>
        <pt x="363" y="1500" on="0"/>
        <pt x="616" y="1500" on="1"/>
        <pt x="843" y="1500" on="0"/>
        <pt x="1110" y="1295" on="0"/>
        <pt x="1110" y="1118" on="1"/>
        <pt x="1110" y="1028" on="0"/>
        <pt x="1029" y="857" on="0"/>
        <pt x="924" y="788" on="1"/>
        <pt x="1048" y="714" on="0"/>
        <pt x="1144" y="535" on="0"/>
        <pt x="1144" y="412" on="1"/>
        <pt x="1144" y="284" on="0"/>
        <pt x="1015" y="89" on="0"/>
        <pt x="772" y="-20" on="0"/>
      </contour>
      <contour>
        <pt x="456" y="1092" on="1"/>
        <pt x="456" y="1051" on="0"/>
        <pt x="488" y="991" on="0"/>
        <pt x="584" y="933" on="0"/>
        <pt x="681" y="896" on="1"/>
        <pt x="729" y="939" on="0"/>
        <pt x="778" y="1032" on="0"/>
        <pt x="778" y="1088" on="1"/>
        <pt x="778" y="1154" on="0"/>
        <pt x="695" y="1222" on="0"/>
        <pt x="620" y="1222" on="1"/>
        <pt x="541" y="1222" on="0"/>
        <pt x="456" y="1149" on="0"/>
      </contour>
      <contour>
        <pt x="418" y="412" on="1"/>
        <pt x="418" y="339" on="0"/>
        <pt x="511" y="258" on="0"/>
        <pt x="602" y="258" on="1"/>
        <pt x="692" y="258" on="0"/>
        <pt x="778" y="331" on="0"/>
        <pt x="778" y="394" on="1"/>
        <pt x="778" y="439" on="0"/>
        <pt x="736" y="506" on="0"/>
        <pt x="627" y="566" on="0"/>
        <pt x="526" y="600" on="1"/>
        <pt x="521" y="602" on="1"/>
        <pt x="468" y="565" on="0"/>
        <pt x="418" y="461" on="0"/>
      </contour>
    </TTGlyph>
    <TTGlyph name="ellipsis" xMin="26" yMin="-20" xMax="1566" yMax="464">
      <component glyphName="period" x="0" y="0" flags="0x4"/>
      <component glyphName="period" x="524" y="0" flags="0x4"/>
      <component glyphName="period" x="1048" y="0" flags="0x4"/>
    </TTGlyph>
    <TTGlyph name="emacron" xMin="40" yMin="-22" xMax="968" yMax="1542">
      <component glyphName="e" x="0" y="0" flags="0x204"/>
      <component glyphName="uni0304" x="-86" y="0" flags="0x4"/>
    </TTGlyph>
    <TTGlyph name="emacron.sc" xMin="90" yMin="0" xMax="968" yMax="1578">
      <component glyphName="e.sc" x="0" y="0" flags="0x204"/>
      <component glyphName="uni0304.sc" x="-56" y="-290" flags="0x4"/>
    </TTGlyph>
    <TTGlyph name="emdash" xMin="0" yMin="440" xMax="1600" yMax="700">
      <contour>
        <pt x="0" y="440" on="1"/>
        <pt x="0" y="700" on="1"/>
        <pt x="1600" y="700" on="1"/>
        <pt x="1600" y="440" on="1"/>
      </contour>
    </TTGlyph>
    <TTGlyph name="endash" xMin="0" yMin="440" xMax="800" yMax="700">
      <contour>
        <pt x="0" y="440" on="1"/>
        <pt x="0" y="700" on="1"/>
        <pt x="800" y="700" on="1"/>
        <pt x="800" y="440" on="1"/>
      </contour>
    </TTGlyph>
    <TTGlyph name="eng" xMin="78" yMin="-476" xMax="1024" yMax="1118">
      <contour>
        <pt x="756" y="-476" on="1"/>
        <pt x="500" y="-308" on="1"/>
        <pt x="554" y="-230" on="0"/>
        <pt x="614" y="-85" on="0"/>
        <pt x="638" y="77" on="0"/>
        <pt x="638" y="180" on="1"/>
        <pt x="638" y="682" on="1"/>
        <pt x="638" y="742" on="0"/>
        <pt x="595" y="786" on="0"/>
        <pt x="560" y="786" on="1"/>
        <pt x="535" y="786" on="0"/>
        <pt x="481" y="764" on="0"/>
        <pt x="464" y="746" on="1"/>
        <pt x="464" y="0" on="1"/>
        <pt x="78" y="0" on="1"/>
        <pt x="78" y="1100" on="1"/>
        <pt x="398" y="1100" on="1"/>
        <pt x="426" y="988" on="1"/>
        <pt x="442" y="988" on="1"/>
        <pt x="493" y="1053" on="0"/>
        <pt x="622" y="1118" on="0"/>
        <pt x="706" y="1118" on="1"/>
        <pt x="796" y="1118" on="0"/>
        <pt x="940" y="1039" on="0"/>
        <pt x="1024" y="859" on="0"/>
        <pt x="1024" y="708" on="1"/>
        <pt x="1024" y="196" on="1"/>
        <pt x="1024" y="9" on="0"/>
        <pt x="908" y="-312" on="0"/>
      </contour>
    </TTGlyph>
    <TTGlyph name="eng.sc" xMin="90" yMin="-476" xMax="1168" yMax="1190">
      <contour>
        <pt x="90" y="0" on="1"/>
        <pt x="90" y="1190" on="1"/>
        <pt x="468" y="1190" on="1"/>
        <pt x="806" y="611" on="1"/>
        <pt x="806" y="1190" on="1"/>
        <pt x="1166" y="1190" on="1"/>
        <pt x="1166" y="78" on="1"/>
        <pt x="1168" y="-75" on="0"/>
        <pt x="1078" y="-342" on="0"/>
        <pt x="938" y="-476" on="1"/>
        <pt x="694" y="-318" on="1"/>
        <pt x="749" y="-245" on="0"/>
        <pt x="797" y="-110" on="0"/>
        <pt x="803" y="-26" on="1"/>
        <pt x="450" y="582" on="1"/>
        <pt x="450" y="0" on="1"/>
      </contour>
    </TTGlyph>
    <TTGlyph name="eogonek" xMin="40" yMin="-460" xMax="968" yMax="1118">
      <contour>
        <pt x="744" y="-460" on="1"/>
        <pt x="609" y="-460" on="0"/>
        <pt x="472" y="-340" on="0"/>
        <pt x="472" y="-238" on="1"/>
        <pt x="472" y="-175" on="0"/>
        <pt x="523" y="-68" on="0"/>
        <pt x="586" y="-22" on="1"/>
        <pt x="295" y="-16" on="0"/>
        <pt x="40" y="259" on="0"/>
        <pt x="40" y="556" on="1"/>
        <pt x="40" y="822" on="0"/>
        <pt x="287" y="1118" on="0"/>
        <pt x="524" y="1118" on="1"/>
        <pt x="746" y="1118" on="0"/>
        <pt x="968" y="819" on="0"/>
        <pt x="968" y="544" on="1"/>
        <pt x="968" y="434" on="1"/>
        <pt x="431" y="434" on="1"/>
        <pt x="438" y="349" on="0"/>
        <pt x="536" y="284" on="0"/>
        <pt x="664" y="284" on="1"/>
        <pt x="726" y="284" on="0"/>
        <pt x="851" y="303" on="0"/>
        <pt x="914" y="318" on="1"/>
        <pt x="914" y="14" on="1"/>
        <pt x="820" y="-26" on="0"/>
        <pt x="723" y="-104" on="0"/>
        <pt x="688" y="-180" on="0"/>
        <pt x="688" y="-216" on="1"/>
        <pt x="688" y="-306" on="0"/>
        <pt x="796" y="-306" on="1"/>
        <pt x="845" y="-306" on="0"/>
        <pt x="914" y="-280" on="1"/>
        <pt x="914" y="-430" on="1"/>
        <pt x="880" y="-442" on="0"/>
        <pt x="800" y="-460" on="0"/>
      </contour>
      <contour>
        <pt x="522" y="860" on="1"/>
        <pt x="474" y="860" on="0"/>
        <pt x="431" y="780" on="0"/>
        <pt x="430" y="652" on="1"/>
        <pt x="610" y="652" on="1"/>
        <pt x="609" y="780" on="0"/>
        <pt x="569" y="860" on="0"/>
      </contour>
    </TTGlyph>
    <TTGlyph name="eogonek.sc" xMin="90" yMin="-460" xMax="980" yMax="1190">
      <component glyphName="e.sc" x="0" y="0" flags="0x204"/>
      <component glyphName="uni0328.sc" x="452" y="0" flags="0x4"/>
    </TTGlyph>
    <TTGlyph name="equal" xMin="78" yMin="380" xMax="958" yMax="1140">
      <contour>
        <pt x="78" y="840" on="1"/>
        <pt x="78" y="1140" on="1"/>
        <pt x="958" y="1140" on="1"/>
        <pt x="958" y="840" on="1"/>
      </contour>
      <contour>
        <pt x="78" y="380" on="1"/>
        <pt x="78" y="680" on="1"/>
        <pt x="958" y="680" on="1"/>
        <pt x="958" y="380" on="1"/>
      </contour>
    </TTGlyph>
    <TTGlyph name="equal.osf" xMin="78" yMin="180" xMax="958" yMax="940">
      <contour>
        <pt x="78" y="640" on="1"/>
        <pt x="78" y="940" on="1"/>
        <pt x="958" y="940" on="1"/>
        <pt x="958" y="640" on="1"/>
      </contour>
      <contour>
        <pt x="78" y="180" on="1"/>
        <pt x="78" y="480" on="1"/>
        <pt x="958" y="480" on="1"/>
        <pt x="958" y="180" on="1"/>
      </contour>
    </TTGlyph>
    <TTGlyph name="equal.tf" xMin="160" yMin="380" xMax="1040" yMax="1140">
      <contour>
        <pt x="160" y="840" on="1"/>
        <pt x="160" y="1140" on="1"/>
        <pt x="1040" y="1140" on="1"/>
        <pt x="1040" y="840" on="1"/>
      </contour>
      <contour>
        <pt x="160" y="380" on="1"/>
        <pt x="160" y="680" on="1"/>
        <pt x="1040" y="680" on="1"/>
        <pt x="1040" y="380" on="1"/>
      </contour>
    </TTGlyph>
    <TTGlyph name="equal.tosf" xMin="160" yMin="180" xMax="1040" yMax="940">
      <contour>
        <pt x="160" y="640" on="1"/>
        <pt x="160" y="940" on="1"/>
        <pt x="1040" y="940" on="1"/>
        <pt x="1040" y="640" on="1"/>
      </contour>
      <contour>
        <pt x="160" y="180" on="1"/>
        <pt x="160" y="480" on="1"/>
        <pt x="1040" y="480" on="1"/>
        <pt x="1040" y="180" on="1"/>
      </contour>
    </TTGlyph>
    <TTGlyph name="estimated" xMin="54" yMin="-18" xMax="1448" yMax="1498">
      <contour>
        <pt x="750" y="-18" on="1"/>
        <pt x="601" y="-18" on="0"/>
        <pt x="347" y="96" on="0"/>
        <pt x="159" y="300" on="0"/>
        <pt x="54" y="576" on="0"/>
        <pt x="54" y="738" on="1"/>
        <pt x="54" y="962" on="0"/>
        <pt x="231" y="1305" on="0"/>
        <pt x="545" y="1498" on="0"/>
        <pt x="750" y="1498" on="1"/>
        <pt x="952" y="1498" on="0"/>
        <pt x="1258" y="1312" on="0"/>
        <pt x="1437" y="971" on="0"/>
        <pt x="1448" y="738" on="1"/>
        <pt x="364" y="738" on="1"/>
        <pt x="364" y="198" on="1"/>
        <pt x="519" y="46" on="0"/>
        <pt x="750" y="46" on="1"/>
        <pt x="921" y="46" on="0"/>
        <pt x="1191" y="203" on="0"/>
        <pt x="1318" y="390" on="1"/>
        <pt x="1374" y="352" on="1"/>
        <pt x="1236" y="150" on="0"/>
        <pt x="939" y="-18" on="0"/>
      </contour>
      <contour>
        <pt x="364" y="802" on="1"/>
        <pt x="1138" y="802" on="1"/>
        <pt x="1138" y="1280" on="1"/>
        <pt x="1068" y="1355" on="0"/>
        <pt x="859" y="1434" on="0"/>
        <pt x="748" y="1434" on="1"/>
        <pt x="633" y="1434" on="0"/>
        <pt x="427" y="1355" on="0"/>
        <pt x="364" y="1280" on="1"/>
      </contour>
    </TTGlyph>
    <TTGlyph name="eth" xMin="40" yMin="-26" xMax="1028" yMax="1616">
      <contour>
        <pt x="534" y="-26" on="1"/>
        <pt x="297" y="-26" on="0"/>
        <pt x="40" y="251" on="0"/>
        <pt x="40" y="542" on="1"/>
        <pt x="40" y="741" on="0"/>
        <pt x="157" y="993" on="0"/>
        <pt x="366" y="1112" on="0"/>
        <pt x="504" y="1112" on="1"/>
        <pt x="539" y="1112" on="0"/>
        <pt x="580" y="1099" on="1"/>
        <pt x="546" y="1172" on="0"/>
        <pt x="497" y="1247" on="1"/>
        <pt x="156" y="1170" on="1"/>
        <pt x="108" y="1370" on="1"/>
        <pt x="358" y="1426" on="1"/>
        <pt x="314" y="1476" on="0"/>
        <pt x="219" y="1571" on="0"/>
        <pt x="170" y="1616" on="1"/>
        <pt x="584" y="1616" on="1"/>
        <pt x="642" y="1566" on="0"/>
        <pt x="696" y="1502" on="1"/>
        <pt x="954" y="1560" on="1"/>
        <pt x="1002" y="1360" on="1"/>
        <pt x="825" y="1320" on="1"/>
        <pt x="917" y="1165" on="0"/>
        <pt x="1028" y="801" on="0"/>
        <pt x="1028" y="620" on="1"/>
        <pt x="1028" y="387" on="0"/>
        <pt x="913" y="103" on="0"/>
        <pt x="692" y="-26" on="0"/>
      </contour>
      <contour>
        <pt x="534" y="258" on="1"/>
        <pt x="568" y="258" on="0"/>
        <pt x="612" y="298" on="0"/>
        <pt x="634" y="417" on="0"/>
        <pt x="634" y="536" on="1"/>
        <pt x="634" y="660" on="0"/>
        <pt x="611" y="785" on="0"/>
        <pt x="566" y="828" on="0"/>
        <pt x="534" y="828" on="1"/>
        <pt x="502" y="828" on="0"/>
        <pt x="457" y="786" on="0"/>
        <pt x="434" y="662" on="0"/>
        <pt x="434" y="540" on="1"/>
        <pt x="434" y="419" on="0"/>
        <pt x="456" y="298" on="0"/>
        <pt x="500" y="258" on="0"/>
      </contour>
    </TTGlyph>
    <TTGlyph name="eth.sc" xMin="0" yMin="-18" xMax="1156" yMax="1208">
      <component glyphName="d.sc" x="0" y="0" flags="0x204"/>
      <component glyphName="uni0335.dsc" x="0" y="-4" flags="0x4"/>
    </TTGlyph>
    <TTGlyph name="exclam" xMin="46" yMin="-20" xMax="538" yMax="1480">
      <contour>
        <pt x="176" y="532" on="1"/>
        <pt x="84" y="996" on="1"/>
        <pt x="84" y="1480" on="1"/>
        <pt x="500" y="1480" on="1"/>
        <pt x="500" y="996" on="1"/>
        <pt x="412" y="532" on="1"/>
      </contour>
      <contour>
        <pt x="292" y="-20" on="1"/>
        <pt x="184" y="-20" on="0"/>
        <pt x="46" y="108" on="0"/>
        <pt x="46" y="216" on="1"/>
        <pt x="46" y="324" on="0"/>
        <pt x="181" y="452" on="0"/>
        <pt x="292" y="452" on="1"/>
        <pt x="403" y="452" on="0"/>
        <pt x="538" y="321" on="0"/>
        <pt x="538" y="216" on="1"/>
        <pt x="538" y="111" on="0"/>
        <pt x="400" y="-20" on="0"/>
      </contour>
    </TTGlyph>
    <TTGlyph name="exclamdown" xMin="46" yMin="-380" xMax="538" yMax="1120">
      <contour>
        <pt x="292" y="1120" on="1"/>
        <pt x="400" y="1120" on="0"/>
        <pt x="538" y="988" on="0"/>
        <pt x="538" y="878" on="1"/>
        <pt x="538" y="769" on="0"/>
        <pt x="403" y="636" on="0"/>
        <pt x="292" y="636" on="1"/>
        <pt x="181" y="636" on="0"/>
        <pt x="46" y="766" on="0"/>
        <pt x="46" y="878" on="1"/>
        <pt x="46" y="991" on="0"/>
        <pt x="184" y="1120" on="0"/>
      </contour>
      <contour>
        <pt x="176" y="556" on="1"/>
        <pt x="412" y="556" on="1"/>
        <pt x="500" y="98" on="1"/>
        <pt x="500" y="-380" on="1"/>
        <pt x="84" y="-380" on="1"/>
        <pt x="84" y="98" on="1"/>
      </contour>
    </TTGlyph>
    <TTGlyph name="f" xMin="8" yMin="0" xMax="800" yMax="1636">
      <contour>
        <pt x="148" y="0" on="1"/>
        <pt x="148" y="800" on="1"/>
        <pt x="8" y="800" on="1"/>
        <pt x="8" y="1100" on="1"/>
        <pt x="148" y="1100" on="1"/>
        <pt x="148" y="1142" on="1"/>
        <pt x="148" y="1376" on="0"/>
        <pt x="399" y="1636" on="0"/>
        <pt x="654" y="1636" on="1"/>
        <pt x="690" y="1636" on="0"/>
        <pt x="767" y="1630" on="0"/>
        <pt x="800" y="1624" on="1"/>
        <pt x="800" y="1320" on="1"/>
        <pt x="752" y="1326" on="0"/>
        <pt x="716" y="1326" on="1"/>
        <pt x="613" y="1326" on="0"/>
        <pt x="528" y="1249" on="0"/>
        <pt x="528" y="1168" on="1"/>
        <pt x="528" y="1100" on="1"/>
        <pt x="758" y="1100" on="1"/>
        <pt x="758" y="800" on="1"/>
        <pt x="528" y="800" on="1"/>
        <pt x="528" y="0" on="1"/>
      </contour>
    </TTGlyph>
    <TTGlyph name="f.sc" xMin="90" yMin="0" xMax="962" yMax="1190">
      <contour>
        <pt x="90" y="0" on="1"/>
        <pt x="90" y="1190" on="1"/>
        <pt x="962" y="1190" on="1"/>
        <pt x="962" y="880" on="1"/>
        <pt x="480" y="880" on="1"/>
        <pt x="480" y="710" on="1"/>
        <pt x="876" y="710" on="1"/>
        <pt x="876" y="400" on="1"/>
        <pt x="480" y="400" on="1"/>
        <pt x="480" y="0" on="1"/>
      </contour>
    </TTGlyph>
    <TTGlyph name="f.short" xMin="8" yMin="0" xMax="758" yMax="1636">
      <contour>
        <pt x="148" y="0" on="1"/>
        <pt x="148" y="800" on="1"/>
        <pt x="8" y="800" on="1"/>
        <pt x="8" y="1100" on="1"/>
        <pt x="148" y="1100" on="1"/>
        <pt x="148" y="1168" on="1"/>
        <pt x="148" y="1384" on="0"/>
        <pt x="385" y="1636" on="0"/>
        <pt x="602" y="1636" on="1"/>
        <pt x="638" y="1636" on="0"/>
        <pt x="711" y="1629" on="0"/>
        <pt x="738" y="1620" on="1"/>
        <pt x="738" y="1316" on="1"/>
        <pt x="720" y="1322" on="0"/>
        <pt x="684" y="1326" on="0"/>
        <pt x="664" y="1326" on="1"/>
        <pt x="528" y="1326" on="0"/>
        <pt x="528" y="1198" on="1"/>
        <pt x="528" y="1100" on="1"/>
        <pt x="758" y="1100" on="1"/>
        <pt x="758" y="800" on="1"/>
        <pt x="528" y="800" on="1"/>
        <pt x="528" y="0" on="1"/>
      </contour>
    </TTGlyph>
    <TTGlyph name="f_i" xMin="8" yMin="0" xMax="1246" yMax="1636">
      <component glyphName="f.short" x="0" y="0" flags="0x4"/>
      <component glyphName="i" x="740" y="0" flags="0x4"/>
    </TTGlyph>
    <TTGlyph name="f_j" xMin="8" yMin="-476" xMax="1246" yMax="1636">
      <component glyphName="f.short" x="0" y="0" flags="0x4"/>
      <component glyphName="j" x="740" y="0" flags="0x4"/>
    </TTGlyph>
    <TTGlyph name="f_l" xMin="8" yMin="0" xMax="1204" yMax="1636">
      <component glyphName="f.short" x="0" y="0" flags="0x4"/>
      <component glyphName="l" x="740" y="0" flags="0x4"/>
    </TTGlyph>
    <TTGlyph name="fi" xMin="8" yMin="0" xMax="1246" yMax="1636">
      <component glyphName="f.short" x="0" y="0" flags="0x4"/>
      <component glyphName="i" x="740" y="0" flags="0x4"/>
    </TTGlyph>
    <TTGlyph name="figuredash" xMin="78" yMin="440" xMax="1122" yMax="700">
      <contour>
        <pt x="78" y="440" on="1"/>
        <pt x="78" y="700" on="1"/>
        <pt x="1122" y="700" on="1"/>
        <pt x="1122" y="440" on="1"/>
      </contour>
    </TTGlyph>
    <TTGlyph name="five" xMin="50" yMin="-20" xMax="972" yMax="1480">
      <contour>
        <pt x="382" y="-20" on="1"/>
        <pt x="213" y="-20" on="0"/>
        <pt x="50" y="26" on="1"/>
        <pt x="50" y="330" on="1"/>
        <pt x="125" y="309" on="0"/>
        <pt x="303" y="286" on="0"/>
        <pt x="372" y="286" on="1"/>
        <pt x="492" y="286" on="0"/>
        <pt x="598" y="362" on="0"/>
        <pt x="598" y="440" on="1"/>
        <pt x="598" y="493" on="0"/>
        <pt x="539" y="565" on="0"/>
        <pt x="369" y="609" on="0"/>
        <pt x="204" y="620" on="1"/>
        <pt x="86" y="628" on="1"/>
        <pt x="132" y="1480" on="1"/>
        <pt x="920" y="1480" on="1"/>
        <pt x="920" y="1158" on="1"/>
        <pt x="481" y="1158" on="1"/>
        <pt x="467" y="914" on="1"/>
        <pt x="731" y="885" on="0"/>
        <pt x="972" y="664" on="0"/>
        <pt x="972" y="456" on="1"/>
        <pt x="972" y="216" on="0"/>
        <pt x="661" y="-20" on="0"/>
      </contour>
    </TTGlyph>
    <TTGlyph name="five.dnom" xMin="86" yMin="-150" xMax="748" yMax="864">
      <contour>
        <pt x="320" y="-150" on="1"/>
        <pt x="194" y="-150" on="0"/>
        <pt x="86" y="-120" on="1"/>
        <pt x="86" y="108" on="1"/>
        <pt x="140" y="93" on="0"/>
        <pt x="264" y="78" on="0"/>
        <pt x="312" y="78" on="1"/>
        <pt x="392" y="78" on="0"/>
        <pt x="460" y="120" on="0"/>
        <pt x="460" y="162" on="1"/>
        <pt x="460" y="207" on="0"/>
        <pt x="376" y="252" on="0"/>
        <pt x="244" y="264" on="1"/>
        <pt x="110" y="276" on="1"/>
        <pt x="142" y="864" on="1"/>
        <pt x="714" y="864" on="1"/>
        <pt x="714" y="624" on="1"/>
        <pt x="406" y="624" on="1"/>
        <pt x="399" y="488" on="1"/>
        <pt x="575" y="466" on="0"/>
        <pt x="748" y="318" on="0"/>
        <pt x="748" y="178" on="1"/>
        <pt x="748" y="12" on="0"/>
        <pt x="521" y="-150" on="0"/>
      </contour>
    </TTGlyph>
    <TTGlyph name="five.numr" xMin="86" yMin="602" xMax="748" yMax="1616">
      <contour>
        <pt x="320" y="602" on="1"/>
        <pt x="194" y="602" on="0"/>
        <pt x="86" y="632" on="1"/>
        <pt x="86" y="860" on="1"/>
        <pt x="140" y="845" on="0"/>
        <pt x="264" y="830" on="0"/>
        <pt x="312" y="830" on="1"/>
        <pt x="392" y="830" on="0"/>
        <pt x="460" y="872" on="0"/>
        <pt x="460" y="914" on="1"/>
        <pt x="460" y="959" on="0"/>
        <pt x="376" y="1004" on="0"/>
        <pt x="244" y="1016" on="1"/>
        <pt x="110" y="1028" on="1"/>
        <pt x="142" y="1616" on="1"/>
        <pt x="714" y="1616" on="1"/>
        <pt x="714" y="1376" on="1"/>
        <pt x="406" y="1376" on="1"/>
        <pt x="399" y="1240" on="1"/>
        <pt x="575" y="1218" on="0"/>
        <pt x="748" y="1070" on="0"/>
        <pt x="748" y="930" on="1"/>
        <pt x="748" y="764" on="0"/>
        <pt x="521" y="602" on="0"/>
      </contour>
    </TTGlyph>
    <TTGlyph name="five.osf" xMin="50" yMin="-420" xMax="960" yMax="1100">
      <contour>
        <pt x="374" y="-420" on="1"/>
        <pt x="213" y="-420" on="0"/>
        <pt x="50" y="-374" on="1"/>
        <pt x="50" y="-70" on="1"/>
        <pt x="125" y="-91" on="0"/>
        <pt x="301" y="-114" on="0"/>
        <pt x="364" y="-114" on="1"/>
        <pt x="478" y="-114" on="0"/>
        <pt x="586" y="-36" on="0"/>
        <pt x="586" y="48" on="1"/>
        <pt x="586" y="104" on="0"/>
        <pt x="526" y="179" on="0"/>
        <pt x="361" y="223" on="0"/>
        <pt x="204" y="234" on="1"/>
        <pt x="86" y="242" on="1"/>
        <pt x="132" y="1100" on="1"/>
        <pt x="920" y="1100" on="1"/>
        <pt x="920" y="778" on="1"/>
        <pt x="481" y="778" on="1"/>
        <pt x="467" y="528" on="1"/>
        <pt x="723" y="500" on="0"/>
        <pt x="960" y="276" on="0"/>
        <pt x="960" y="64" on="1"/>
        <pt x="960" y="-182" on="0"/>
        <pt x="650" y="-420" on="0"/>
      </contour>
    </TTGlyph>
    <TTGlyph name="five.tf" xMin="130" yMin="-20" xMax="1092" yMax="1480">
      <contour>
        <pt x="476" y="-20" on="1"/>
        <pt x="299" y="-20" on="0"/>
        <pt x="130" y="26" on="1"/>
        <pt x="130" y="330" on="1"/>
        <pt x="208" y="309" on="0"/>
        <pt x="394" y="286" on="0"/>
        <pt x="466" y="286" on="1"/>
        <pt x="598" y="286" on="0"/>
        <pt x="718" y="362" on="0"/>
        <pt x="718" y="440" on="1"/>
        <pt x="718" y="493" on="0"/>
        <pt x="652" y="564" on="0"/>
        <pt x="467" y="608" on="0"/>
        <pt x="290" y="620" on="1"/>
        <pt x="168" y="628" on="1"/>
        <pt x="216" y="1480" on="1"/>
        <pt x="1038" y="1480" on="1"/>
        <pt x="1038" y="1158" on="1"/>
        <pt x="565" y="1158" on="1"/>
        <pt x="550" y="916" on="1"/>
        <pt x="833" y="888" on="0"/>
        <pt x="1092" y="667" on="0"/>
        <pt x="1092" y="456" on="1"/>
        <pt x="1092" y="216" on="0"/>
        <pt x="767" y="-20" on="0"/>
      </contour>
    </TTGlyph>
    <TTGlyph name="five.tosf" xMin="130" yMin="-420" xMax="1080" yMax="1100">
      <contour>
        <pt x="468" y="-420" on="1"/>
        <pt x="386" y="-420" on="0"/>
        <pt x="213" y="-398" on="0"/>
        <pt x="130" y="-374" on="1"/>
        <pt x="130" y="-70" on="1"/>
        <pt x="208" y="-91" on="0"/>
        <pt x="392" y="-114" on="0"/>
        <pt x="458" y="-114" on="1"/>
        <pt x="706" y="-114" on="0"/>
        <pt x="706" y="48" on="1"/>
        <pt x="706" y="104" on="0"/>
        <pt x="638" y="179" on="0"/>
        <pt x="458" y="223" on="0"/>
        <pt x="290" y="234" on="1"/>
        <pt x="168" y="242" on="1"/>
        <pt x="216" y="1100" on="1"/>
        <pt x="1038" y="1100" on="1"/>
        <pt x="1038" y="778" on="1"/>
        <pt x="563" y="778" on="1"/>
        <pt x="549" y="530" on="1"/>
        <pt x="824" y="504" on="0"/>
        <pt x="1080" y="279" on="0"/>
        <pt x="1080" y="64" on="1"/>
        <pt x="1080" y="-182" on="0"/>
        <pt x="756" y="-420" on="0"/>
      </contour>
    </TTGlyph>
    <TTGlyph name="fiveeighths" xMin="86" yMin="-150" xMax="1954" yMax="1616">
      <component glyphName="five.numr" x="0" y="0" flags="0x4"/>
      <component glyphName="fraction" x="820" y="0" flags="0x4"/>
      <component glyphName="eight.dnom" x="1166" y="0" flags="0x4"/>
    </TTGlyph>
    <TTGlyph name="fl" xMin="8" yMin="0" xMax="1204" yMax="1636">
      <component glyphName="f.short" x="0" y="0" flags="0x4"/>
      <component glyphName="l" x="740" y="0" flags="0x4"/>
    </TTGlyph>
    <TTGlyph name="florin" xMin="-124" yMin="-460" xMax="800" yMax="1636">
      <contour>
        <pt x="22" y="-460" on="1"/>
        <pt x="-14" y="-460" on="0"/>
        <pt x="-91" y="-454" on="0"/>
        <pt x="-124" y="-448" on="1"/>
        <pt x="-124" y="-144" on="1"/>
        <pt x="-76" y="-150" on="0"/>
        <pt x="-40" y="-150" on="1"/>
        <pt x="64" y="-150" on="0"/>
        <pt x="148" y="-73" on="0"/>
        <pt x="148" y="8" on="1"/>
        <pt x="148" y="800" on="1"/>
        <pt x="8" y="800" on="1"/>
        <pt x="8" y="1100" on="1"/>
        <pt x="148" y="1100" on="1"/>
        <pt x="148" y="1142" on="1"/>
        <pt x="148" y="1376" on="0"/>
        <pt x="399" y="1636" on="0"/>
        <pt x="654" y="1636" on="1"/>
        <pt x="690" y="1636" on="0"/>
        <pt x="767" y="1630" on="0"/>
        <pt x="800" y="1624" on="1"/>
        <pt x="800" y="1320" on="1"/>
        <pt x="752" y="1326" on="0"/>
        <pt x="716" y="1326" on="1"/>
        <pt x="613" y="1326" on="0"/>
        <pt x="528" y="1249" on="0"/>
        <pt x="528" y="1168" on="1"/>
        <pt x="528" y="1100" on="1"/>
        <pt x="758" y="1100" on="1"/>
        <pt x="758" y="800" on="1"/>
        <pt x="528" y="800" on="1"/>
        <pt x="528" y="34" on="1"/>
        <pt x="528" y="-200" on="0"/>
        <pt x="277" y="-460" on="0"/>
      </contour>
    </TTGlyph>
    <TTGlyph name="florin.tf" xMin="106" yMin="-460" xMax="1030" yMax="1636">
      <contour>
        <pt x="252" y="-460" on="1"/>
        <pt x="216" y="-460" on="0"/>
        <pt x="139" y="-454" on="0"/>
        <pt x="106" y="-448" on="1"/>
        <pt x="106" y="-144" on="1"/>
        <pt x="154" y="-150" on="0"/>
        <pt x="190" y="-150" on="1"/>
        <pt x="294" y="-150" on="0"/>
        <pt x="378" y="-73" on="0"/>
        <pt x="378" y="8" on="1"/>
        <pt x="378" y="800" on="1"/>
        <pt x="238" y="800" on="1"/>
        <pt x="238" y="1100" on="1"/>
        <pt x="378" y="1100" on="1"/>
        <pt x="378" y="1142" on="1"/>
        <pt x="378" y="1376" on="0"/>
        <pt x="629" y="1636" on="0"/>
        <pt x="884" y="1636" on="1"/>
        <pt x="920" y="1636" on="0"/>
        <pt x="997" y="1630" on="0"/>
        <pt x="1030" y="1624" on="1"/>
        <pt x="1030" y="1320" on="1"/>
        <pt x="982" y="1326" on="0"/>
        <pt x="946" y="1326" on="1"/>
        <pt x="843" y="1326" on="0"/>
        <pt x="758" y="1249" on="0"/>
        <pt x="758" y="1168" on="1"/>
        <pt x="758" y="1100" on="1"/>
        <pt x="988" y="1100" on="1"/>
        <pt x="988" y="800" on="1"/>
        <pt x="758" y="800" on="1"/>
        <pt x="758" y="34" on="1"/>
        <pt x="758" y="-200" on="0"/>
        <pt x="507" y="-460" on="0"/>
      </contour>
    </TTGlyph>
    <TTGlyph name="four" xMin="26" yMin="0" xMax="1154" yMax="1480">
      <contour>
        <pt x="26" y="286" on="1"/>
        <pt x="26" y="506" on="1"/>
        <pt x="458" y="1480" on="1"/>
        <pt x="828" y="1480" on="1"/>
        <pt x="444" y="586" on="1"/>
        <pt x="648" y="586" on="1"/>
        <pt x="688" y="980" on="1"/>
        <pt x="994" y="980" on="1"/>
        <pt x="994" y="586" on="1"/>
        <pt x="1154" y="586" on="1"/>
        <pt x="1154" y="286" on="1"/>
        <pt x="994" y="286" on="1"/>
        <pt x="994" y="0" on="1"/>
        <pt x="648" y="0" on="1"/>
        <pt x="648" y="286" on="1"/>
      </contour>
    </TTGlyph>
    <TTGlyph name="four.dnom" xMin="24" yMin="-136" xMax="798" yMax="864">
      <contour>
        <pt x="24" y="48" on="1"/>
        <pt x="24" y="214" on="1"/>
        <pt x="296" y="864" on="1"/>
        <pt x="578" y="864" on="1"/>
        <pt x="338" y="272" on="1"/>
        <pt x="436" y="272" on="1"/>
        <pt x="504" y="526" on="1"/>
        <pt x="696" y="526" on="1"/>
        <pt x="696" y="272" on="1"/>
        <pt x="798" y="272" on="1"/>
        <pt x="798" y="48" on="1"/>
        <pt x="696" y="48" on="1"/>
        <pt x="696" y="-136" on="1"/>
        <pt x="436" y="-136" on="1"/>
        <pt x="436" y="48" on="1"/>
      </contour>
    </TTGlyph>
    <TTGlyph name="four.numr" xMin="24" yMin="616" xMax="798" yMax="1616">
      <contour>
        <pt x="436" y="616" on="1"/>
        <pt x="436" y="800" on="1"/>
        <pt x="24" y="800" on="1"/>
        <pt x="24" y="966" on="1"/>
        <pt x="296" y="1616" on="1"/>
        <pt x="578" y="1616" on="1"/>
        <pt x="338" y="1024" on="1"/>
        <pt x="436" y="1024" on="1"/>
        <pt x="504" y="1278" on="1"/>
        <pt x="696" y="1278" on="1"/>
        <pt x="696" y="1024" on="1"/>
        <pt x="798" y="1024" on="1"/>
        <pt x="798" y="800" on="1"/>
        <pt x="696" y="800" on="1"/>
        <pt x="696" y="616" on="1"/>
      </contour>
    </TTGlyph>
    <TTGlyph name="four.osf" xMin="24" yMin="-400" xMax="1120" yMax="1100">
      <contour>
        <pt x="24" y="0" on="1"/>
        <pt x="24" y="220" on="1"/>
        <pt x="422" y="1100" on="1"/>
        <pt x="794" y="1100" on="1"/>
        <pt x="443" y="300" on="1"/>
        <pt x="634" y="300" on="1"/>
        <pt x="694" y="694" on="1"/>
        <pt x="980" y="694" on="1"/>
        <pt x="980" y="300" on="1"/>
        <pt x="1120" y="300" on="1"/>
        <pt x="1120" y="0" on="1"/>
        <pt x="980" y="0" on="1"/>
        <pt x="980" y="-400" on="1"/>
        <pt x="634" y="-400" on="1"/>
        <pt x="634" y="0" on="1"/>
      </contour>
    </TTGlyph>
    <TTGlyph name="four.tf" xMin="38" yMin="0" xMax="1166" yMax="1480">
      <contour>
        <pt x="38" y="286" on="1"/>
        <pt x="38" y="506" on="1"/>
        <pt x="470" y="1480" on="1"/>
        <pt x="840" y="1480" on="1"/>
        <pt x="456" y="586" on="1"/>
        <pt x="660" y="586" on="1"/>
        <pt x="700" y="980" on="1"/>
        <pt x="1006" y="980" on="1"/>
        <pt x="1006" y="586" on="1"/>
        <pt x="1166" y="586" on="1"/>
        <pt x="1166" y="286" on="1"/>
        <pt x="1006" y="286" on="1"/>
        <pt x="1006" y="0" on="1"/>
        <pt x="660" y="0" on="1"/>
        <pt x="660" y="286" on="1"/>
      </contour>
    </TTGlyph>
    <TTGlyph name="four.tosf" xMin="50" yMin="-400" xMax="1146" yMax="1100">
      <contour>
        <pt x="50" y="0" on="1"/>
        <pt x="50" y="220" on="1"/>
        <pt x="448" y="1100" on="1"/>
        <pt x="820" y="1100" on="1"/>
        <pt x="469" y="300" on="1"/>
        <pt x="660" y="300" on="1"/>
        <pt x="720" y="694" on="1"/>
        <pt x="1006" y="694" on="1"/>
        <pt x="1006" y="300" on="1"/>
        <pt x="1146" y="300" on="1"/>
        <pt x="1146" y="0" on="1"/>
        <pt x="1006" y="0" on="1"/>
        <pt x="1006" y="-400" on="1"/>
        <pt x="660" y="-400" on="1"/>
        <pt x="660" y="0" on="1"/>
      </contour>
    </TTGlyph>
    <TTGlyph name="fraction" xMin="-350" yMin="-136" xMax="696" yMax="1616">
      <contour>
        <pt x="-350" y="-136" on="1"/>
        <pt x="380" y="1616" on="1"/>
        <pt x="696" y="1616" on="1"/>
        <pt x="-34" y="-136" on="1"/>
      </contour>
    </TTGlyph>
    <TTGlyph name="franc" xMin="40" yMin="0" xMax="1172" yMax="1480">
      <contour>
        <pt x="40" y="170" on="1"/>
        <pt x="40" y="470" on="1"/>
        <pt x="200" y="470" on="1"/>
        <pt x="200" y="1480" on="1"/>
        <pt x="1172" y="1480" on="1"/>
        <pt x="1172" y="1142" on="1"/>
        <pt x="592" y="1142" on="1"/>
        <pt x="592" y="956" on="1"/>
        <pt x="1074" y="956" on="1"/>
        <pt x="1074" y="618" on="1"/>
        <pt x="592" y="618" on="1"/>
        <pt x="592" y="470" on="1"/>
        <pt x="852" y="470" on="1"/>
        <pt x="852" y="170" on="1"/>
        <pt x="592" y="170" on="1"/>
        <pt x="592" y="0" on="1"/>
        <pt x="200" y="0" on="1"/>
        <pt x="200" y="170" on="1"/>
      </contour>
    </TTGlyph>
    <TTGlyph name="franc.tf" xMin="40" yMin="0" xMax="1172" yMax="1480">
      <contour>
        <pt x="40" y="170" on="1"/>
        <pt x="40" y="470" on="1"/>
        <pt x="200" y="470" on="1"/>
        <pt x="200" y="1480" on="1"/>
        <pt x="1172" y="1480" on="1"/>
        <pt x="1172" y="1142" on="1"/>
        <pt x="592" y="1142" on="1"/>
        <pt x="592" y="956" on="1"/>
        <pt x="1074" y="956" on="1"/>
        <pt x="1074" y="618" on="1"/>
        <pt x="592" y="618" on="1"/>
        <pt x="592" y="470" on="1"/>
        <pt x="852" y="470" on="1"/>
        <pt x="852" y="170" on="1"/>
        <pt x="592" y="170" on="1"/>
        <pt x="592" y="0" on="1"/>
        <pt x="200" y="0" on="1"/>
        <pt x="200" y="170" on="1"/>
      </contour>
    </TTGlyph>
    <TTGlyph name="g" xMin="40" yMin="-460" xMax="1026" yMax="1118">
      <contour>
        <pt x="438" y="-460" on="1"/>
        <pt x="368" y="-460" on="0"/>
        <pt x="197" y="-444" on="0"/>
        <pt x="120" y="-426" on="1"/>
        <pt x="120" y="-122" on="1"/>
        <pt x="261" y="-158" on="0"/>
        <pt x="402" y="-158" on="1"/>
        <pt x="521" y="-158" on="0"/>
        <pt x="640" y="-58" on="0"/>
        <pt x="640" y="66" on="1"/>
        <pt x="640" y="120" on="1"/>
        <pt x="622" y="120" on="1"/>
        <pt x="557" y="-10" on="0"/>
        <pt x="404" y="-10" on="1"/>
        <pt x="314" y="-10" on="0"/>
        <pt x="147" y="103" on="0"/>
        <pt x="40" y="341" on="0"/>
        <pt x="40" y="530" on="1"/>
        <pt x="40" y="811" on="0"/>
        <pt x="316" y="1117" on="0"/>
        <pt x="626" y="1118" on="1"/>
        <pt x="725" y="1118" on="0"/>
        <pt x="938" y="1085" on="0"/>
        <pt x="1026" y="1052" on="1"/>
        <pt x="1026" y="136" on="1"/>
        <pt x="1026" y="-180" on="0"/>
        <pt x="731" y="-460" on="0"/>
      </contour>
      <contour>
        <pt x="576" y="308" on="1"/>
        <pt x="613" y="308" on="0"/>
        <pt x="640" y="320" on="1"/>
        <pt x="640" y="822" on="1"/>
        <pt x="628" y="824" on="0"/>
        <pt x="602" y="826" on="0"/>
        <pt x="590" y="826" on="1"/>
        <pt x="517" y="826" on="0"/>
        <pt x="434" y="720" on="0"/>
        <pt x="434" y="564" on="1"/>
        <pt x="434" y="460" on="0"/>
        <pt x="464" y="349" on="0"/>
        <pt x="527" y="308" on="0"/>
      </contour>
    </TTGlyph>
    <TTGlyph name="g.sc" xMin="56" yMin="-18" xMax="1076" yMax="1206">
      <contour>
        <pt x="764" y="-18" on="1"/>
        <pt x="56" y="-18" on="0"/>
        <pt x="56" y="594" on="1"/>
        <pt x="56" y="887" on="0"/>
        <pt x="420" y="1206" on="0"/>
        <pt x="772" y="1206" on="1"/>
        <pt x="853" y="1206" on="0"/>
        <pt x="983" y="1193" on="0"/>
        <pt x="1040" y="1178" on="1"/>
        <pt x="1040" y="872" on="1"/>
        <pt x="989" y="884" on="0"/>
        <pt x="879" y="898" on="0"/>
        <pt x="820" y="898" on="1"/>
        <pt x="624" y="898" on="0"/>
        <pt x="460" y="760" on="0"/>
        <pt x="460" y="590" on="1"/>
        <pt x="460" y="427" on="0"/>
        <pt x="597" y="288" on="0"/>
        <pt x="718" y="288" on="1"/>
        <pt x="722" y="288" on="1"/>
        <pt x="722" y="578" on="1"/>
        <pt x="1076" y="578" on="1"/>
        <pt x="1076" y="8" on="1"/>
        <pt x="1001" y="-4" on="0"/>
        <pt x="836" y="-18" on="0"/>
      </contour>
    </TTGlyph>
    <TTGlyph name="gbreve" xMin="40" yMin="-460" xMax="1026" yMax="1596">
      <component glyphName="g" x="0" y="0" flags="0x204"/>
      <component glyphName="uni0306" x="-28" y="0" flags="0x4"/>
    </TTGlyph>
    <TTGlyph name="gbreve.sc" xMin="56" yMin="-18" xMax="1076" yMax="1612">
      <component glyphName="g.sc" x="0" y="0" flags="0x204"/>
      <component glyphName="uni0306.sc" x="82" y="-290" flags="0x4"/>
    </TTGlyph>
    <TTGlyph name="gcaron" xMin="40" yMin="-460" xMax="1026" yMax="1616">
      <component glyphName="g" x="0" y="0" flags="0x204"/>
      <component glyphName="uni030C" x="-28" y="0" flags="0x4"/>
    </TTGlyph>
    <TTGlyph name="gcaron.sc" xMin="56" yMin="-18" xMax="1076" yMax="1612">
      <component glyphName="g.sc" x="0" y="0" flags="0x204"/>
      <component glyphName="uni030C.sc" x="82" y="-290" flags="0x4"/>
    </TTGlyph>
    <TTGlyph name="gcircumflex" xMin="40" yMin="-460" xMax="1026" yMax="1616">
      <component glyphName="g" x="0" y="0" flags="0x204"/>
      <component glyphName="uni0302" x="-28" y="0" flags="0x4"/>
    </TTGlyph>
    <TTGlyph name="gcircumflex.sc" xMin="56" yMin="-18" xMax="1076" yMax="1612">
      <component glyphName="g.sc" x="0" y="0" flags="0x204"/>
      <component glyphName="uni0302.sc" x="82" y="-290" flags="0x4"/>
    </TTGlyph>
    <TTGlyph name="gdotaccent" xMin="40" yMin="-460" xMax="1026" yMax="1626">
      <component glyphName="g" x="0" y="0" flags="0x204"/>
      <component glyphName="uni0307" x="-28" y="0" flags="0x4"/>
    </TTGlyph>
    <TTGlyph name="gdotaccent.sc" xMin="56" yMin="-18" xMax="1076" yMax="1640">
      <component glyphName="g.sc" x="0" y="0" flags="0x204"/>
      <component glyphName="uni0307.sc" x="82" y="-290" flags="0x4"/>
    </TTGlyph>
    <TTGlyph name="germandbls" xMin="8" yMin="-22" xMax="1414" yMax="1636">
      <contour>
        <pt x="8" y="800" on="1"/>
        <pt x="8" y="1100" on="1"/>
        <pt x="151" y="1100" on="1"/>
        <pt x="171" y="1347" on="0"/>
        <pt x="500" y="1636" on="0"/>
        <pt x="778" y="1636" on="1"/>
        <pt x="928" y="1636" on="0"/>
        <pt x="1165" y="1533" on="0"/>
        <pt x="1302" y="1302" on="0"/>
        <pt x="1302" y="1110" on="1"/>
        <pt x="1302" y="1032" on="0"/>
        <pt x="1278" y="879" on="0"/>
        <pt x="1258" y="808" on="1"/>
        <pt x="1230" y="813" on="0"/>
        <pt x="1162" y="816" on="0"/>
        <pt x="1130" y="816" on="1"/>
        <pt x="1021" y="816" on="0"/>
        <pt x="954" y="774" on="0"/>
        <pt x="954" y="750" on="1"/>
        <pt x="954" y="720" on="0"/>
        <pt x="1002" y="708" on="1"/>
        <pt x="1162" y="670" on="1"/>
        <pt x="1281" y="642" on="0"/>
        <pt x="1414" y="494" on="0"/>
        <pt x="1414" y="350" on="1"/>
        <pt x="1414" y="178" on="0"/>
        <pt x="1160" y="-22" on="0"/>
        <pt x="938" y="-22" on="1"/>
        <pt x="866" y="-22" on="0"/>
        <pt x="716" y="-3" on="0"/>
        <pt x="644" y="16" on="1"/>
        <pt x="644" y="318" on="1"/>
        <pt x="780" y="280" on="0"/>
        <pt x="934" y="280" on="1"/>
        <pt x="1014" y="280" on="0"/>
        <pt x="1066" y="315" on="0"/>
        <pt x="1066" y="342" on="1"/>
        <pt x="1066" y="377" on="0"/>
        <pt x="1020" y="388" on="1"/>
        <pt x="860" y="426" on="1"/>
        <pt x="743" y="453" on="0"/>
        <pt x="606" y="610" on="0"/>
        <pt x="606" y="752" on="1"/>
        <pt x="606" y="908" on="0"/>
        <pt x="816" y="1092" on="0"/>
        <pt x="1028" y="1104" on="1"/>
        <pt x="1028" y="1109" on="0"/>
        <pt x="1028" y="1114" on="1"/>
        <pt x="1028" y="1252" on="0"/>
        <pt x="902" y="1360" on="0"/>
        <pt x="804" y="1360" on="1"/>
        <pt x="662" y="1360" on="0"/>
        <pt x="534" y="1198" on="0"/>
        <pt x="534" y="1030" on="1"/>
        <pt x="534" y="0" on="1"/>
        <pt x="148" y="0" on="1"/>
        <pt x="148" y="800" on="1"/>
      </contour>
    </TTGlyph>
</ttFont>
